<?xml version="1.0" encoding="UTF-8"?>
<svg width="48px" height="46px" viewBox="0 0 48 46" version="1.1" xmlns="http://www.w3.org/2000/svg" xmlns:xlink="http://www.w3.org/1999/xlink">
    <!-- Generator: Sketch 45.1 (43504) - http://www.bohemiancoding.com/sketch -->
    <title>nc sample glyph shopping cart</title>
    <desc>Created with Sketch.</desc>
    <defs></defs>
    <g id="Page-2" stroke="none" stroke-width="1" fill="none" fill-rule="evenodd">
        <g id="005_02_购买详情" transform="translate(-1059.000000, -582.000000)" fill="#469BFF">
            <g id="Group-8" transform="translate(1059.000000, 582.000000)">
                <g id="nc-sample-glyph-shopping-cart" transform="translate(16.000000, 15.000000)" fill-rule="nonzero">
                    <circle id="Oval" cx="5.80645161" cy="16.2580645" r="1.74193548"></circle>
                    <circle id="Oval" cx="15.6774194" cy="16.2580645" r="1.74193548"></circle>
                    <path d="M17.4193548,2.90322581 L3.83225806,2.90322581 L3.48387097,0.522580645 C3.42580645,0.232258065 3.19354839,0 2.90322581,0 L0.580645161,0 C0.232258065,0 0,0.232258065 0,0.580645161 C0,0.929032258 0.232258065,1.16129032 0.580645161,1.16129032 L2.38064516,1.16129032 L4.06451613,12.2516129 C4.12258065,12.5419355 4.35483871,12.7741935 4.64516129,12.7741935 L16.2580645,12.7741935 C16.5483871,12.7741935 16.7806452,12.5419355 16.8387097,12.2516129 L18,3.54193548 C18,3.36774194 18,3.19354839 17.883871,3.07741935 C17.7677419,2.96129032 17.5935484,2.90322581 17.4193548,2.90322581 Z" id="Shape"></path>
                </g>
                <text id="+" font-family="PingFangSC-Semibold, PingFang SC" font-size="12" font-weight="500" letter-spacing="0.514285982">
                    <tspan x="8" y="27">+</tspan>
                </text>
            </g>
        </g>
    </g>
</svg>