<?xml version="1.0" encoding="UTF-8"?>
<svg width="58px" height="69px" viewBox="0 0 58 69" version="1.1" xmlns="http://www.w3.org/2000/svg" xmlns:xlink="http://www.w3.org/1999/xlink">
    <!-- Generator: Sketch 45.1 (43504) - http://www.bohemiancoding.com/sketch -->
    <title>thin 0311 stamp</title>
    <desc>Created with Sketch.</desc>
    <defs></defs>
    <g id="Page-2" stroke="none" stroke-width="1" fill="none" fill-rule="evenodd">
        <g id="003_05_申请成功" transform="translate(-267.000000, -1596.000000)">
            <g id="thin-0311-stamp" transform="translate(260.000000, 1595.000000)">
                <g id="Group" transform="translate(6.833333, 1.000000)" fill-rule="nonzero" fill="#000000">
                    <path d="M56.0885,53.74175 C55.954625,53.74175 55.82075,53.7245417 55.6839583,53.684875 C54.9122083,53.462625 54.4647917,52.6538333 54.6870417,51.8791667 C56.0287083,47.2165833 53.3255417,42.33175 48.6600417,40.9900833 L41.50225,38.930625 C38.5059583,37.791375 37.6029583,35.9427917 37.352125,34.5868333 C36.415,29.4984167 43.0486667,22.9315417 45.9455,20.3424167 C48.3721667,17.8941667 49.3265,14.3425417 48.4319583,10.90175 C47.5377083,7.46825 44.97425,4.83479167 41.573125,3.85654167 C37.9500417,2.82404167 34.25025,3.82533333 31.652375,6.546875 C29.0434167,9.28270833 28.2060417,13.03675 29.410625,16.590125 C30.5670833,21.0249167 31.977,28.8022083 28.7782917,32.1945833 C27.8484583,33.1786667 26.118,34.2254583 23.1173333,33.6371667 L15.8315,31.5465 C13.567,30.892875 11.193125,31.1661667 9.1395,32.3027917 C7.08295833,33.4405833 5.59195833,35.3104583 4.94241667,37.5720417 C4.72016667,38.3437917 3.91545833,38.808125 3.137875,38.5689583 C2.36320833,38.3467083 1.91725,37.5379167 2.1395,36.76325 C3.92683333,30.5554167 10.4280833,26.9565417 16.637375,28.743875 L23.8021667,30.8045 C25.730375,31.1775417 26.426875,30.4384583 26.6546667,30.1934583 C28.5502083,28.183875 27.879375,22.279375 26.6190833,17.4245833 C25.110875,12.9953333 26.2189167,8.01658333 29.5415833,4.53320833 C32.9024583,1.0055 37.693375,-0.291833333 42.379,1.05391667 C46.7796667,2.32004167 50.0979583,5.72670833 51.2544167,10.1670417 C52.410875,14.616125 51.1774167,19.2104583 47.9504167,22.4590417 C42.780625,27.083125 39.7700417,31.612125 40.2200833,34.0574583 C40.2827917,34.3934583 40.4735417,35.4189583 42.4274167,36.1679583 L49.4685417,38.1874583 C55.6778333,39.9733333 59.27525,46.4789583 57.489375,52.68825 C57.30475,53.3258333 56.72375,53.74175 56.0885,53.74175 Z" id="Shape"></path>
                    <path d="M51.5084583,69 L1.925125,69 C1.11895833,69 0.466791667,68.3478333 0.466791667,67.5416667 C0.466791667,66.7355 1.11895833,66.0833333 1.925125,66.0833333 L51.5084583,66.0833333 C52.314625,66.0833333 52.9667917,66.7355 52.9667917,67.5416667 C52.9667917,68.3478333 52.314625,69 51.5084583,69 Z" id="Shape"></path>
                    <path d="M56.0885,53.74175 C55.954625,53.74175 55.82075,53.7245417 55.6839583,53.684875 L3.13845833,38.5686667 C2.36379167,38.3464167 1.91783333,37.537625 2.14008333,36.7629583 C2.36233333,35.9912083 3.17404167,35.5353333 3.944625,35.7660417 L56.4930417,50.8819583 C57.2647917,51.1042083 57.7122083,51.913 57.4899583,52.6876667 C57.30475,53.3258333 56.72375,53.74175 56.0885,53.74175 Z" id="Shape"></path>
                    <path d="M51.9302083,57.8860417 C51.7963333,57.8860417 51.6624583,57.8688333 51.5285833,57.8291667 L4.46029167,44.2993333 C3.68708333,44.0770833 3.23966667,43.2682917 3.46191667,42.49625 L4.88175,37.5545417 C4.9885,37.1815 5.237875,36.8679583 5.57679167,36.680125 C5.91570833,36.4949167 6.31033333,36.4465 6.68629167,36.5547083 L53.753125,50.086875 C54.1261667,50.1921667 54.4397083,50.443 54.6275417,50.7819167 C54.815375,51.1208333 54.8611667,51.5195417 54.7529583,51.892875 L53.3316667,56.8319583 C53.1464583,57.470125 52.5651667,57.8860417 51.9302083,57.8860417 Z M6.667625,41.8983333 L50.9332917,54.624625 L51.5457917,52.4884583 L7.28158333,39.7621667 L6.667625,41.8983333 Z" id="Shape"></path>
                </g>
                <rect id="Rectangle-path" x="0" y="0" width="70" height="70"></rect>
            </g>
        </g>
    </g>
</svg>