<?xml version="1.0" encoding="UTF-8"?>
<svg width="295px" height="292px" viewBox="0 0 295 292" version="1.1" xmlns="http://www.w3.org/2000/svg" xmlns:xlink="http://www.w3.org/1999/xlink">
    <!-- Generator: Sketch 45.1 (43504) - http://www.bohemiancoding.com/sketch -->
    <title>Group 8</title>
    <desc>Created with Sketch.</desc>
    <defs></defs>
    <g id="Page-2" stroke="none" stroke-width="1" fill="none" fill-rule="evenodd" opacity="0.176279438">
        <g id="003_05_申请成功" transform="translate(-996.000000, -358.000000)">
            <g id="Group-8" transform="translate(936.000000, 298.000000)">
                <g id="thin-0312-post-stamp" transform="translate(195.461197, 195.461197) rotate(-20.000000) translate(-195.461197, -195.461197) translate(42.961197, 42.961197)">
                    <g id="Group" transform="translate(1.789310, 44.046253)" fill-rule="nonzero" fill="#768DA7">
                        <path d="M256.783704,239.50396 C252.365451,239.50396 247.921849,238.031209 243.935788,235.073033 C243.057461,234.429179 239.962402,232.436783 237.313478,234.566062 C229.701307,240.656052 219.242493,240.977979 211.346418,235.34553 C208.809027,233.514097 205.876199,233.488748 203.31346,235.34553 C195.750719,240.742237 185.935758,240.729563 178.38569,235.34553 C175.8483,233.514097 172.915472,233.488748 170.352733,235.34553 C162.826747,240.742237 153.037135,240.754911 145.4313,235.34553 C142.881236,233.514097 139.954745,233.514097 137.40468,235.34553 C129.854613,240.729563 120.057396,240.754911 112.47691,235.34553 C109.915439,233.514097 107.000355,233.514097 104.45029,235.34553 C96.5352035,240.976711 86.1131448,240.705482 78.4895666,234.566062 C75.8469796,232.449457 72.7468513,234.417773 71.8621867,235.085707 C65.6429185,239.690272 58.0675026,240.667459 51.0370806,237.808142 C43.4375835,234.689002 37.8862498,227.398757 36.5427763,218.771376 C36.0041195,215.306229 38.3742095,212.062881 41.8342874,211.530561 C45.3247835,211.047671 48.5364455,213.374669 49.0687652,216.815735 C49.7303625,221.0857 52.3298569,224.6383 55.8457016,226.074295 C57.4920903,226.754904 60.8026117,227.510291 64.299445,224.910797 C71.3425413,219.650971 80.0434331,219.550845 86.4236646,224.687729 C89.654338,227.274549 93.7379904,227.410164 97.0865346,225.02233 C103.992749,220.095838 112.929382,220.095838 119.835596,225.02233 C122.978817,227.274549 126.896436,227.274549 130.040925,225.02233 C136.947139,220.095838 145.883772,220.095838 152.789986,225.02233 C155.9218,227.263143 159.833082,227.274549 162.988978,225.035005 C169.92054,220.084432 178.831825,220.097106 185.738039,225.02233 C188.906608,227.274549 192.830565,227.263143 195.961112,225.02233 C202.843244,220.108513 211.767204,220.084432 218.697499,225.02233 C222.063787,227.424106 226.161381,227.274549 229.37938,224.676323 C235.729193,219.577461 244.417411,219.663646 251.497263,224.886716 C256.485858,228.611686 260.607534,226.124992 262.636685,224.341722 C266.535293,220.8639 268.96115,214.069219 265.062542,207.384805 C260.755823,199.983027 260.66837,191.232705 264.839475,184.57364 C267.463051,180.389861 267.599933,174.65982 265.174076,170.327751 C261.127179,163.062855 261.127179,154.027362 265.174076,146.748525 C267.501073,142.590094 267.488399,137.230142 265.174076,133.071711 C263.465583,130.014676 264.566978,126.152823 267.612607,124.44433 C270.645562,122.748512 274.518821,123.837232 276.239988,126.882861 C280.658241,134.804285 280.658241,145.027358 276.239988,152.9247 C274.309695,156.378441 274.309695,160.685161 276.239988,164.150308 C280.930738,172.541948 280.670916,183.198481 275.572054,191.293542 C273.938339,193.917117 274.111977,197.72954 276.018188,201.009643 C283.160144,213.250461 278.939609,226.778985 271.080289,233.796733 C266.833139,237.585075 261.833136,239.50396 256.783704,239.50396 Z" id="Shape"></path>
                        <path d="M42.5453144,108.998188 C39.042144,108.998188 36.2081754,106.157882 36.2081754,102.654712 C36.2081754,97.5609194 37.5947414,92.6724505 40.2119798,88.5076827 C41.8520314,85.895514 41.6783938,82.0906958 39.7721824,78.8105927 C36.7290882,73.5862553 35.5833335,67.2744649 36.5427763,61.0551967 C37.8862498,52.4164089 43.4426532,45.1198271 51.0484874,42.0070244 C58.0789094,39.135033 65.6479882,40.1312313 71.8495124,44.7357965 C72.734177,45.3923241 75.8165614,47.3720463 78.4895666,45.2491047 C86.1144122,39.1477073 96.5478778,38.8371875 104.45029,44.4759738 C107.000355,46.2833258 109.921776,46.2883955 112.470573,44.4696366 C120.057396,39.0665919 129.829264,39.0665919 137.40468,44.4759738 C139.954745,46.2833258 142.874898,46.2896629 145.424963,44.4696366 C153.000379,39.0729291 162.76591,39.0665919 170.365407,44.4759738 C173.21205,46.5063931 173.868578,50.4671049 171.838158,53.3137478 C169.796332,56.1730649 165.859701,56.8232553 162.988978,54.7864989 C159.845757,52.5520237 155.945881,52.5406168 152.789986,54.7864989 C145.883772,59.7243975 136.947139,59.7193278 130.040925,54.792836 C126.897704,52.5406168 122.980084,52.546954 119.835596,54.7864989 C112.929382,59.7243975 103.992749,59.7193278 97.0865346,54.792836 C93.7443275,52.4100718 89.6670123,52.5406168 86.4173274,55.1337741 C80.0421656,60.2377058 71.3780292,60.1578579 64.2867707,54.9094394 C60.7836003,52.2985381 57.4857532,53.0653319 55.8520388,53.7332664 C52.3298569,55.1755992 49.7303625,58.7218622 49.0687652,62.9918264 C48.5491198,66.3517775 49.1372063,69.7066588 50.7278282,72.4354309 C55.0472221,79.8498835 55.1283375,88.5938678 50.9445584,95.2529334 C49.5960152,97.393619 48.8837208,99.956358 48.8837208,102.654712 C48.8824533,106.157882 46.0484848,108.998188 42.5453144,108.998188 Z" id="Shape"></path>
                        <path d="M67.9559742,95.7915902 C64.4528038,95.7915902 61.6188352,92.9576217 61.6188352,89.4544513 L61.6188352,76.3593873 C61.6188352,72.8562169 64.4528038,70.0222484 67.9559742,70.0222484 L155.686059,70.0222484 C159.189229,70.0222484 162.023198,72.8562169 162.023198,76.3593873 C162.023198,79.8625577 159.189229,82.6965263 155.686059,82.6965263 L74.2931132,82.6965263 L74.2931132,89.4544513 C74.2931132,92.9576217 71.4591446,95.7915902 67.9559742,95.7915902 Z" id="Shape"></path>
                        <path d="M245.395865,209.439306 L158.024463,209.439306 C154.521292,209.439306 151.687324,206.605337 151.687324,203.102167 C151.687324,199.598996 154.521292,196.765028 158.024463,196.765028 L239.058726,196.765028 L239.058726,139.730777 C239.058726,136.227607 241.892695,133.393638 245.395865,133.393638 C248.899036,133.393638 251.733004,136.227607 251.733004,139.730777 L251.733004,203.102167 C251.733004,206.605337 248.899036,209.439306 245.395865,209.439306 Z" id="Shape"></path>
                        <path d="M238.959867,100.402493 C217.992809,100.402493 200.937033,82.9880347 200.937033,61.5875164 C200.937033,40.1869981 217.992809,22.7725402 238.959867,22.7725402 C259.926925,22.7725402 276.982701,40.1869981 276.982701,61.5875164 C276.982701,82.9880347 259.926925,100.402493 238.959867,100.402493 Z M238.959867,35.4468182 C224.986475,35.4468182 213.611311,47.1743275 213.611311,61.5875164 C213.611311,76.0007053 224.986475,87.7282146 238.959867,87.7282146 C252.933258,87.7282146 264.308423,76.0007053 264.308423,61.5875164 C264.308423,47.1743275 252.934526,35.4468182 238.959867,35.4468182 Z" id="Shape"></path>
                        <path d="M238.959867,122.810616 C205.937036,122.810616 179.078973,95.3454557 179.078973,61.586249 C179.078973,27.8270423 205.937036,0.361882007 238.959867,0.361882007 C271.982698,0.361882007 298.84076,27.8270423 298.84076,61.586249 C298.84076,95.3454557 271.982698,122.810616 238.959867,122.810616 Z M238.959867,13.0374274 C212.930702,13.0374274 191.753251,34.8156391 191.753251,61.5875164 C191.753251,88.3593937 212.930702,110.137605 238.959867,110.137605 C264.989031,110.137605 286.166482,88.3593937 286.166482,61.5875164 C286.166482,34.8156391 264.989031,13.0374274 238.959867,13.0374274 Z" id="Shape"></path>
                        <path d="M116.920512,141.488699 C109.258911,141.488699 102.067526,138.444338 96.6657486,132.910748 C90.6695477,126.747247 80.2842443,126.758654 74.3057874,132.898074 C63.5009655,143.988067 44.5998148,143.975393 33.7949929,132.910748 C27.8038617,126.747247 17.4198258,126.747247 11.4299621,132.910748 C8.98509384,135.398709 4.96861517,135.47222 2.46924756,133.009607 C-0.0377246155,130.571076 -0.0871542994,126.560935 2.35771391,124.048893 C13.1625358,112.984248 32.0636865,112.984248 42.8685085,124.048893 C48.8596396,130.212394 59.2436755,130.212394 65.2335393,124.048893 C76.0269544,112.995655 94.9445816,112.971574 105.737997,124.061567 C111.729128,130.200987 122.113164,130.213662 128.103028,124.048893 C130.554233,121.560932 134.570712,121.487421 137.063742,123.950034 C139.570714,126.388565 139.620144,130.398706 137.175276,132.910748 C131.773498,138.44307 124.582113,141.488699 116.920512,141.488699 Z" id="Shape"></path>
                        <path d="M116.920512,172.047651 C109.258911,172.047651 102.067526,169.003289 96.6657486,163.4697 C90.6695477,157.293524 80.2842443,157.317605 74.3057874,163.457025 C63.5009655,174.547018 44.5998148,174.534344 33.7949929,163.4697 C27.8038617,157.306198 17.4198258,157.306198 11.4299621,163.4697 C8.98509384,165.970335 4.96861517,166.043845 2.46924756,163.568559 C-0.0377246155,161.130028 -0.0871542994,157.119886 2.35771391,154.607844 C13.1625358,143.5432 32.0636865,143.5432 42.8685085,154.607844 C48.8596396,160.771346 59.2436755,160.771346 65.2335393,154.607844 C76.0269544,143.554607 94.9445816,143.530525 105.737997,154.620519 C111.729128,160.759939 122.113164,160.772613 128.103028,154.607844 C130.554233,152.132558 134.570712,152.05778 137.063742,154.508985 C139.570714,156.947516 139.620144,160.957658 137.175276,163.4697 C131.773498,169.003289 124.582113,172.047651 116.920512,172.047651 Z" id="Shape"></path>
                        <path d="M116.920512,202.606602 C109.265248,202.606602 102.067526,199.549567 96.6708183,194.028651 C90.655606,187.852475 80.2829769,187.876557 74.3057874,194.015977 C63.5009655,205.080621 44.5947451,205.069215 33.80133,194.028651 C27.798792,187.86515 17.4198258,187.86515 11.4299621,194.028651 C8.98509384,196.529286 4.96861517,196.602797 2.46924756,194.12751 C-0.0377246155,191.688979 -0.0871542994,187.678838 2.35771391,185.166796 C13.1625358,174.102151 32.0636865,174.102151 42.8685085,185.166796 C48.8596396,191.306216 59.2373384,191.306216 65.2398764,185.166796 C76.0206172,174.113558 94.945849,174.089477 105.737997,185.17947 C111.729128,191.293542 122.106827,191.306216 128.109365,185.166796 C130.554233,182.678835 134.558037,182.605324 137.070079,185.067937 C139.570714,187.506468 139.620144,191.529283 137.168939,194.028651 C131.773498,199.549567 124.575776,202.606602 116.920512,202.606602 Z" id="Shape"></path>
                    </g>
                    <rect id="Rectangle-path" x="2.27373675e-13" y="0" width="304.18267" height="304.18267"></rect>
                </g>
            </g>
        </g>
    </g>
</svg>