<?xml version="1.0" encoding="UTF-8"?>
<svg width="14px" height="16px" viewBox="0 0 14 16" version="1.1" xmlns="http://www.w3.org/2000/svg" xmlns:xlink="http://www.w3.org/1999/xlink">
    <!-- Generator: Sketch 45.2 (43514) - http://www.bohemiancoding.com/sketch -->
    <title>Group 2</title>
    <desc>Created with Sketch.</desc>
    <defs></defs>
    <g id="Page-3" stroke="none" stroke-width="1" fill="none" fill-rule="evenodd">
        <g id="007_01_个人资料" transform="translate(-606.000000, -795.000000)">
            <g id="认证-copy" transform="translate(605.000000, 795.000000)">
                <g id="Group-2">
                    <rect id="Rectangle-6" x="0" y="0" width="16" height="16"></rect>
                    <path d="M14.6860683,2.32390244 L14.0246045,2.31414634 C14.0089485,2.31414634 12.5255474,2.28292683 10.9932215,1.66243902 C9.42175577,1.02634146 8.40803314,0.294634146 8.39824818,0.288780488 L7.9990215,0 L7.60175182,0.288780488 C7.59196686,0.296585366 6.57824423,1.02634146 5.00677846,1.66243902 C3.47640955,2.28292683 1.99105149,2.31414634 1.97735254,2.31414634 L1.31197475,2.32390244 L1.31197475,9.04390244 C1.31197475,12.417561 5.66041428,15.9843902 7.9990215,15.9843902 C10.3395857,15.9843902 14.6880253,12.417561 14.6880253,9.04390244 L14.6860683,2.32390244 L14.6860683,2.32390244 Z M7.25536398,10.9229268 L4.41576642,8.51121951 L5.28858552,7.48682927 L7.11054646,9.03219512 L10.568554,5.06146341 L11.5881476,5.94536585 L7.25536398,10.9229268 Z" id="Shape" fill="#12CE83" fill-rule="nonzero"></path>
                </g>
            </g>
        </g>
    </g>
</svg>