<?xml version="1.0" encoding="UTF-8"?>
<svg width="134px" height="135px" viewBox="0 0 134 135" version="1.1" xmlns="http://www.w3.org/2000/svg" xmlns:xlink="http://www.w3.org/1999/xlink">
    <!-- Generator: Sketch 43.1 (39012) - http://www.bohemiancoding.com/sketch -->
    <title>thin 0037 smiley happy like face</title>
    <desc>Created with Sketch.</desc>
    <defs></defs>
    <g id="Page-2" stroke="none" stroke-width="1" fill="none" fill-rule="evenodd">
        <g id="002_03_-选择用户" transform="translate(-530.000000, -470.000000)">
            <g id="thin-0037-smiley-happy-like-face" transform="translate(525.000000, 465.000000)">
                <g id="Group" transform="translate(5.733333, 5.733333)" stroke="#12CE83" stroke-linecap="round" stroke-linejoin="round">
                    <path d="M66.2596667,105.231 C79.6360833,105.231 91.1394167,97.6756667 96.4425,86.7994167 L36.0768333,86.7994167 C41.3799167,97.6756667 52.88325,105.231 66.2596667,105.231 Z" id="Shape"></path>
                    <path d="M66.23225,0.434 C29.855,0.434 0.2625,30.0265 0.2625,66.40375 C0.2625,102.781 29.855,132.37875 66.23225,132.37875 C102.6095,132.37875 132.202,102.781 132.202,66.40375 C132.202,30.0265 102.6095,0.434 66.23225,0.434 Z" id="Shape" stroke-width="2"></path>
                    <circle id="Oval" cx="46.151" cy="51.9586667" r="11.3545833"></circle>
                    <ellipse id="Oval" cx="86.443" cy="51.9586667" rx="11.3545833" ry="11.3545833"></ellipse>
                </g>
                <rect id="Rectangle-path" x="0" y="0" width="144" height="144"></rect>
            </g>
        </g>
    </g>
</svg>