<?xml version="1.0" encoding="UTF-8"?>
<svg width="142px" height="134px" viewBox="0 0 142 134" version="1.1" xmlns="http://www.w3.org/2000/svg" xmlns:xlink="http://www.w3.org/1999/xlink">
    <!-- Generator: Sketch 43.1 (39012) - http://www.bohemiancoding.com/sketch -->
    <title>thin 0379 business suitcase</title>
    <desc>Created with Sketch.</desc>
    <defs></defs>
    <g id="Page-2" stroke="none" stroke-width="1" fill="none" fill-rule="evenodd">
        <g id="002_03_-选择用户" transform="translate(-935.000000, -465.000000)">
            <g id="thin-0379-business-suitcase" transform="translate(934.000000, 457.000000)">
                <g id="Group" transform="translate(2.000000, 9.000000)" stroke="#469BFF" stroke-linecap="round" stroke-linejoin="round">
                    <path d="M139.144,119.2074 C139.144,126.2568 133.4296,131.9712 126.3802,131.9712 L13.4308,131.9712 C6.3814,131.9712 0.667,126.2568 0.667,119.2074 L0.667,42.7206 C0.667,35.6712 6.3814,29.9568 13.4308,29.9568 L126.3802,29.9568 C133.4296,29.9568 139.144,35.6712 139.144,42.7206 L139.144,119.2074 Z" id="Shape" stroke-width="2"></path>
                    <path d="M42.9508,17.955 L42.9508,14.715 C42.9508,6.5946 49.915,0.012 58.5064,0.012 L81.232,0.012 C89.8228,0.012 96.7876,6.5946 96.7876,14.715 L96.7876,17.955" id="Shape" stroke-width="2"></path>
                    <path d="M78.8044,66.1296 L139.144,66.1296" id="Shape"></path>
                    <path d="M0.6676,66.1296 L60.7114,66.1296" id="Shape"></path>
                    <path d="M78.8044,75.03 C78.8044,76.6248 77.5126,77.9178 75.9178,77.9178 L63.598,77.9178 C62.0038,77.9178 60.712,76.6248 60.712,75.03 L60.712,62.7102 C60.712,61.116 62.0038,59.8242 63.598,59.8242 L75.9184,59.8242 C77.5126,59.8242 78.805,61.116 78.805,62.7102 L78.805,75.03 L78.8044,75.03 Z" id="Shape"></path>
                </g>
                <rect id="Rectangle-path" x="0.9262" y="0.9124" width="143" height="143"></rect>
            </g>
        </g>
    </g>
</svg>