<?xml version="1.0" encoding="UTF-8"?>
<svg width="24px" height="27px" viewBox="0 0 24 27" version="1.1" xmlns="http://www.w3.org/2000/svg" xmlns:xlink="http://www.w3.org/1999/xlink">
    <!-- Generator: Sketch 43.1 (39012) - http://www.bohemiancoding.com/sketch -->
    <title>Group Copy 3</title>
    <desc>Created with Sketch.</desc>
    <defs>
        <rect id="path-1" x="10" y="0" width="4" height="4" rx="2"></rect>
        <rect id="path-2" x="10" y="23" width="4" height="4" rx="2"></rect>
        <rect id="path-3" x="0" y="6" width="4" height="4" rx="2"></rect>
        <rect id="path-4" x="0" y="17" width="4" height="4" rx="2"></rect>
        <rect id="path-5" x="20" y="6" width="4" height="4" rx="2"></rect>
        <rect id="path-6" x="20" y="17" width="4" height="4" rx="2"></rect>
    </defs>
    <g id="Page-2" stroke="none" stroke-width="1" fill="none" fill-rule="evenodd">
        <g id="001_02_最新公示" transform="translate(-261.000000, -776.000000)">
            <g id="Group-11" transform="translate(240.000000, 768.000000)">
                <g id="Group-Copy-3" transform="translate(21.000000, 8.000000)">
                    <polygon id="Polygon" stroke="#F08988" fill="#F9DBDB" points="11.9592921 2 21.9185843 7.75 21.9185843 19.25 11.9592921 25 2 19.25 2 7.75"></polygon>
                    <g id="Rectangle-10">
                        <use fill="#F9DBDB" fill-rule="evenodd" xlink:href="#path-1"></use>
                        <rect stroke="#F08988" stroke-width="1" x="10.5" y="0.5" width="3" height="3" rx="1.5"></rect>
                    </g>
                    <g id="Rectangle-10-Copy-5">
                        <use fill="#F9DBDB" fill-rule="evenodd" xlink:href="#path-2"></use>
                        <rect stroke="#F08988" stroke-width="1" x="10.5" y="23.5" width="3" height="3" rx="1.5"></rect>
                    </g>
                    <g id="Rectangle-10-Copy">
                        <use fill="#F9DBDB" fill-rule="evenodd" xlink:href="#path-3"></use>
                        <rect stroke="#F08988" stroke-width="1" x="0.5" y="6.5" width="3" height="3" rx="1.5"></rect>
                    </g>
                    <g id="Rectangle-10-Copy-3">
                        <use fill="#F9DBDB" fill-rule="evenodd" xlink:href="#path-4"></use>
                        <rect stroke="#F08988" stroke-width="1" x="0.5" y="17.5" width="3" height="3" rx="1.5"></rect>
                    </g>
                    <g id="Rectangle-10-Copy-2">
                        <use fill="#F9DBDB" fill-rule="evenodd" xlink:href="#path-5"></use>
                        <rect stroke="#F08988" stroke-width="1" x="20.5" y="6.5" width="3" height="3" rx="1.5"></rect>
                    </g>
                    <g id="Rectangle-10-Copy-4">
                        <use fill="#F9DBDB" fill-rule="evenodd" xlink:href="#path-6"></use>
                        <rect stroke="#F08988" stroke-width="1" x="20.5" y="17.5" width="3" height="3" rx="1.5"></rect>
                    </g>
                </g>
            </g>
        </g>
    </g>
</svg>