<?xml version="1.0" encoding="UTF-8"?>
<svg width="17px" height="14px" viewBox="0 0 17 14" version="1.1" xmlns="http://www.w3.org/2000/svg" xmlns:xlink="http://www.w3.org/1999/xlink">
    <!-- Generator: Sketch 45.2 (43514) - http://www.bohemiancoding.com/sketch -->
    <title>Layer_1</title>
    <desc>Created with Sketch.</desc>
    <defs></defs>
    <g id="Page-3" stroke="none" stroke-width="1" fill="none" fill-rule="evenodd">
        <g id="006_01_购物车" transform="translate(-453.000000, -452.000000)">
            <g id="Group-8" transform="translate(348.000000, 223.000000)">
                <g id="Group-7" transform="translate(35.000000, 228.000000)">
                    <g id="thin-0655-like-heart-favorite-rating-love" transform="translate(71.000000, 0.000000)">
                        <g id="Layer_1">
                            <g id="Group" transform="translate(0.000000, 1.280000)" stroke="#96979B">
                                <path d="M11.824448,8.659328 L11.824448,13.64224" id="Shape"></path>
                                <path d="M9.332928,11.150784 L14.315904,11.150784" id="Shape"></path>
                                <path d="M13.00512,7.622272 L13.828352,6.838336 C15.278144,5.388672 15.278144,3.038464 13.82848,1.5888 C12.378816,0.139136 10.028736,0.139136 8.579264,1.5888 L7.704192,2.463744 L6.829248,1.588992 C5.379584,0.139328 3.029376,0.139328 1.579904,1.588992 C0.13024,3.038656 0.13024,5.388736 1.579904,6.838336 L7.704192,12.962176 L8.50432,12.162112" id="Shape"></path>
                            </g>
                            <rect id="Rectangle-path" x="0.018752" y="-6.4e-05" width="15.36" height="15.36"></rect>
                        </g>
                    </g>
                </g>
            </g>
        </g>
    </g>
</svg>