<?xml version="1.0" encoding="UTF-8"?>
<svg width="12px" height="12px" viewBox="0 0 12 12" version="1.1" xmlns="http://www.w3.org/2000/svg" xmlns:xlink="http://www.w3.org/1999/xlink">
    <!-- Generator: Sketch 45.1 (43504) - http://www.bohemiancoding.com/sketch -->
    <title>Group 2</title>
    <desc>Created with Sketch.</desc>
    <defs></defs>
    <g id="Page-2" stroke="none" stroke-width="1" fill="none" fill-rule="evenodd">
        <g id="003_04_授权通自定义方案" transform="translate(-1543.000000, -39.000000)" fill-rule="nonzero" fill="#A1A9B2">
            <g id="thin-0153-delete-exit-remove-close" transform="translate(1537.000000, 33.000000)">
                <g id="Group">
                    <g id="Group-2" transform="translate(6.000000, 6.000000)">
                        <path d="M1.3877,11.123 C1.2598,11.123 1.1318,11.0742 1.0342,10.9765 C0.8389,10.7812 0.8389,10.4648 1.0342,10.2695 L10.2754,1.0283 C10.4707,0.833 10.7871,0.833 10.9824,1.0283 C11.1777,1.2236 11.1777,1.54 10.9824,1.7353 L1.7412,10.9765 C1.6436,11.0742 1.5156,11.123 1.3877,11.123 Z" id="Shape"></path>
                        <path d="M10.6289,11.123 C10.501,11.123 10.373,11.0742 10.2754,10.9765 L1.0342,1.7354 C0.8389,1.5401 0.8389,1.2237 1.0342,1.0284 C1.2295,0.8331 1.5459,0.8331 1.7412,1.0284 L10.9824,10.2696 C11.1777,10.4649 11.1777,10.7813 10.9824,10.9766 C10.8848,11.0742 10.7568,11.123 10.6289,11.123 Z" id="Shape"></path>
                    </g>
                </g>
            </g>
        </g>
    </g>
</svg>