<?xml version="1.0" encoding="UTF-8"?>
<svg width="21px" height="21px" viewBox="0 0 21 21" version="1.1" xmlns="http://www.w3.org/2000/svg" xmlns:xlink="http://www.w3.org/1999/xlink">
    <!-- Generator: Sketch 43.1 (39012) - http://www.bohemiancoding.com/sketch -->
    <title>server</title>
    <desc>Created with Sketch.</desc>
    <defs></defs>
    <g id="Page-2" stroke="none" stroke-width="1" fill="none" fill-rule="evenodd">
        <g id="server">
            <path d="M1.91621487,5.08687545 C1.91621487,5.08687545 10.5587805,8.86919382 20.0018198,4.53302838 C20.1240702,10.0544903 20.0018198,18.0294629 20.0018198,18.0294629 C20.0018198,18.0294629 10.455665,23.4446203 1.35917866,18.0294629 C1.30708939,7.98580243 1.91621487,5.08687545 1.91621487,5.08687545 Z" id="Path-2" fill="#30E89E"></path>
            <path d="M10.5,0 C5.44305682,0 0,1.19485227 0,3.81818182 L0,17.1818182 C0,19.8051477 5.44305682,21 10.5,21 C15.5569432,21 21,19.8051477 21,17.1818182 L21,3.81818182 C21,1.19485227 15.5569432,0 10.5,0 Z M10.5,1.90909091 C16.0337386,1.90909091 18.8952273,3.27790909 19.0875682,3.81818182 C18.8952273,4.35845455 16.0337386,5.72727273 10.5,5.72727273 C4.96626136,5.72727273 2.10477273,4.35845455 1.91219318,3.81818182 C2.10477273,3.27790909 4.96626136,1.90909091 10.5,1.90909091 Z M1.90909091,6.13844318 C3.94060227,7.15646591 7.29678409,7.63636364 10.5,7.63636364 C13.7034545,7.63636364 17.0596364,7.15598864 19.0911477,6.13796591 L19.091625,10.4880682 C18.9403295,11.0185568 16.0778864,12.4093295 10.5,12.4093295 C4.91590909,12.4093295 2.05322727,11.0154545 1.90909091,10.5002386 L1.90909091,6.13844318 L1.90909091,6.13844318 Z M10.5,19.0909091 C4.91590909,19.0909091 2.05322727,17.6970341 1.90909091,17.1818182 L1.90909091,12.8202614 C3.94060227,13.8382841 7.29678409,14.3181818 10.5,14.3181818 C13.7039318,14.3181818 17.0605909,13.8378068 19.0918636,12.8193068 L19.0923409,17.1679773 C18.9467727,17.6970341 16.0840909,19.0909091 10.5,19.0909091 Z" id="Shape" fill="#A1A9B2" fill-rule="nonzero"></path>
        </g>
    </g>
</svg>