<?xml version="1.0" encoding="UTF-8"?>
<svg width="42px" height="42px" viewBox="0 0 42 42" version="1.1" xmlns="http://www.w3.org/2000/svg" xmlns:xlink="http://www.w3.org/1999/xlink">
    <!-- Generator: Sketch 45.1 (43504) - http://www.bohemiancoding.com/sketch -->
    <title>thin 0637 fingerprint scan security access copy 2</title>
    <desc>Created with Sketch.</desc>
    <defs></defs>
    <g id="Page-2" stroke="none" stroke-width="1" fill="none" fill-rule="evenodd">
        <g id="003_03_-填写信息_展开" transform="translate(-833.000000, -805.000000)">
            <g id="Group-4" transform="translate(807.000000, 769.000000)">
                <g id="thin-0637-fingerprint-scan-security-access-copy-2" transform="translate(27.000000, 37.000000)">
                    <g id="thin-0098-file-document-legal-text" transform="translate(8.000000, 8.000000)">
                        <g id="Group" transform="translate(2.000000, 0.000000)" stroke="#469BFF" stroke-linecap="round" stroke-linejoin="round">
                            <path d="M14.0704,17.5097 L4.0287,17.5097" id="Shape"></path>
                            <path d="M14.0704,14.5097 L4.0287,14.5097" id="Shape"></path>
                            <path d="M14.0704,11.5097 L4.0287,11.5097" id="Shape"></path>
                            <path d="M9.6074,8.5097 L4.0287,8.5097" id="Shape"></path>
                            <path d="M18.7958,0.5097 L3.0736,0.5101" id="Shape"></path>
                            <path d="M3.0736,0.5097 C4.5022,0.5097 5.6601,1.6265 5.6601,3.0038 C5.6601,4.3813 4.5022,5.4979 3.0736,5.4979 L18.7957,5.4979 C20.2243,5.4979 21.3822,4.3813 21.3822,3.0038 C21.3822,1.6265 20.2243,0.5097 18.7957,0.5097 L3.0736,0.5097 L3.0736,0.5097 Z" id="Shape"></path>
                            <path d="M3.026,0.5097 C1.6483,0.5097 0.5319,1.6265 0.5319,3.0038 L0.5335,3.0038 L0.5335,20.8263 L0.5451,20.8263 L2.9413,23.3863 L5.9358,20.1868 L9.0225,23.4842 L12.1089,20.1868 L15.1956,23.4842 L17.5333,21.0309 L17.5333,5.4979" id="Shape"></path>
                        </g>
                        <rect id="Rectangle-path" x="0" y="0.0001" width="24" height="24"></rect>
                    </g>
                    <circle id="Oval-12" stroke="#469BFF" cx="20" cy="20" r="20"></circle>
                    <rect id="Rectangle-path" x="7.0701207" y="8" width="24.9157604" height="24.9157604"></rect>
                </g>
            </g>
        </g>
    </g>
</svg>