<?xml version="1.0" encoding="UTF-8"?>
<svg width="257px" height="257px" viewBox="0 0 257 257" version="1.1" xmlns="http://www.w3.org/2000/svg" xmlns:xlink="http://www.w3.org/1999/xlink">
    <!-- Generator: Sketch 45.1 (43504) - http://www.bohemiancoding.com/sketch -->
    <title>thin 0637 fingerprint scan security access</title>
    <desc>Created with Sketch.</desc>
    <defs></defs>
    <g id="Page-2" stroke="none" stroke-width="1" fill="none" fill-rule="evenodd" opacity="0.147531703">
        <g id="003_03_-填写信息_展开" transform="translate(-373.000000, -777.000000)">
            <g id="Group-2" transform="translate(373.000000, 769.000000)">
                <g id="Group-5">
                    <g id="thin-0637-fingerprint-scan-security-access" transform="translate(143.649199, 124.649199) rotate(35.000000) translate(-143.649199, -124.649199) translate(54.149199, 35.149199)">
                        <g id="Group" transform="translate(6.624236, 6.000000)" stroke="#B0D5FF" stroke-width="5" stroke-linecap="round" stroke-linejoin="round">
                            <path d="M82.9910345,83.28 C88.9659941,112.941399 80.1464875,142.14943 61.622405,163.253326" id="Shape"></path>
                            <path d="M62.8312076,87.9942813 C62.7911122,87.7854348 62.7680944,87.5773316 62.726514,87.3684852 L62.6611733,87.3796335 C60.3987523,76.1509781 67.6582502,65.2144103 78.8753143,62.9505445 C90.0923783,60.6866787 101.018379,67.9531974 103.280058,79.1811097 L103.25704,79.1900284 C109.578008,110.566792 102.348953,141.52735 85.6120868,166.010694" id="Shape"></path>
                            <path d="M64.1461887,100.99776 C64.3667135,121.657208 55.7239237,141.049455 41.1648325,154.684676" id="Shape"></path>
                            <path d="M125.097904,118.847814 C123.218617,133.480444 118.960336,147.546735 112.634912,160.543525" id="Shape"></path>
                            <path d="M126.1092,105.831701 C126.412143,95.7290323 125.603552,85.4360981 123.521561,75.1008 L123.527501,75.0963406 C119.010826,52.6739613 97.1922371,38.1639639 74.7930069,42.6842632 C52.3930341,47.2053058 37.895571,69.0457394 42.412988,91.4681187 L42.461251,91.4584568 C46.3824342,110.923541 38.8378133,130.033363 24.4895943,141.798627" id="Shape"></path>
                            <path d="M105.218745,25.3782503 C124.339804,32.7607123 139.423848,49.4089703 143.774944,71.0100852 L143.786081,71.0115716 C148.662129,95.2162065 147.615936,119.237265 141.664737,141.584578" id="Shape"></path>
                            <path d="M22.5308589,69.4849858 C27.8026637,46.4182297 46.0312281,27.3990813 70.7099569,22.4179819 C78.1417166,20.9181523 85.5125907,20.88768 92.5879467,22.0017755" id="Shape"></path>
                            <path d="M20.9589701,82.4624516 C20.906252,86.7768774 21.2782484,91.1559639 22.1640601,95.5558606 L22.1959879,95.5491716 C24.514097,107.058766 20.1592893,118.361745 11.8008799,125.450632" id="Shape"></path>
                            <path d="M165.698226,84.9500284 C165.81183,79.0146271 165.286877,72.9766606 164.066194,66.9163974 L164.021644,66.9253161 C154.994978,22.115489 111.392697,-6.88295226 66.6276495,2.15170065 C54.6940655,4.55975226 43.8987459,9.44646194 34.6300221,16.1406968" id="Shape"></path>
                            <path d="M24.6811612,24.5896877 C5.67519129,43.5352568 -3.78361447,71.351969 1.91587474,99.6428594 L1.9604252,99.6339406 C2.20025519,100.823102 2.46384543,101.999628 2.75193842,103.16575" id="Shape"></path>
                        </g>
                        <rect id="Rectangle-path" x="0.523254575" y="0" width="178.201851" height="178.374194"></rect>
                    </g>
                </g>
            </g>
        </g>
    </g>
</svg>