<?xml version="1.0" encoding="UTF-8"?>
<svg width="42px" height="42px" viewBox="0 0 42 42" version="1.1" xmlns="http://www.w3.org/2000/svg" xmlns:xlink="http://www.w3.org/1999/xlink">
    <!-- Generator: Sketch 45.1 (43504) - http://www.bohemiancoding.com/sketch -->
    <title>thin 0637 fingerprint scan security access</title>
    <desc>Created with Sketch.</desc>
    <defs></defs>
    <g id="Page-2" stroke="none" stroke-width="1" fill="none" fill-rule="evenodd">
        <g id="003_03_-填写信息_展开" transform="translate(-399.000000, -805.000000)">
            <g id="Group-2" transform="translate(373.000000, 769.000000)">
                <g id="thin-0637-fingerprint-scan-security-access" transform="translate(27.000000, 37.000000)">
                    <g id="Group" transform="translate(7.084240, 8.000000)" stroke="#469BFF" stroke-linecap="round" stroke-linejoin="round">
                        <path d="M12.4425155,12.4708571 C13.2779201,16.6140366 12.0447976,20.6938886 9.45480435,23.6417345" id="Shape"></path>
                        <path d="M9.62381626,13.1293599 C9.61821021,13.1001877 9.61499193,13.0711193 9.60917825,13.0419471 L9.60004247,13.0435044 C9.28371613,11.4750573 10.2987219,9.9474097 11.8670652,9.63118717 C13.4354085,9.31496465 14.9630561,10.3299704 15.2792786,11.8983137 L15.2760603,11.8995595 C16.1598431,16.2823456 15.1490938,20.6069949 12.8089848,24.0268906" id="Shape"></path>
                        <path d="M9.80767381,14.9457189 C9.83850706,17.831483 8.63009268,20.5402414 6.59447506,22.4448436" id="Shape"></path>
                        <path d="M18.3297982,17.4390598 C18.0670407,19.4829826 17.4716579,21.447798 16.5872522,23.2632226" id="Shape"></path>
                        <path d="M18.4711951,15.620936 C18.5135519,14.2097696 18.4004967,12.7720264 18.1093975,11.3283657 L18.1102281,11.3277428 C17.4787173,8.19572793 14.4280939,6.16893464 11.2962867,6.80034153 C8.16437559,7.43185224 6.13737467,10.4825795 6.7689892,13.6145944 L6.77573722,13.6132448 C7.32398776,16.3321771 6.26911676,19.0014856 4.26298278,20.6448876" id="Shape"></path>
                        <path d="M15.5503413,4.3829937 C18.2238024,5.41419473 20.3328177,7.7396657 20.9411775,10.7569643 L20.9427347,10.7571719 C21.6244922,14.1381368 21.478216,17.4934592 20.6461334,20.6149887" id="Shape"></path>
                        <path d="M3.98911705,10.5439345 C4.72620829,7.32191145 7.27488295,4.6652685 10.7254043,3.96949589 C11.7644953,3.75999587 12.7950735,3.75573943 13.784333,3.91135912" id="Shape"></path>
                        <path d="M3.76933928,12.3566599 C3.76196837,12.9593099 3.81398002,13.5709918 3.93783211,14.1855805 L3.94229618,14.1846462 C4.2664087,15.7923356 3.65752981,17.3711643 2.48887683,18.3613582" id="Shape"></path>
                        <path d="M24.0064389,12.7041309 C24.0223227,11.875059 23.9489251,11.0316605 23.7782521,10.1851476 L23.7720232,10.1863934 C22.5099361,3.92724291 16.4135686,-0.123333014 10.1546258,1.13865025 C8.48610035,1.47501301 6.97672435,2.15760103 5.68079336,3.09266876" id="Shape"></path>
                        <path d="M4.28976723,4.27284527 C1.63239757,6.91921047 0.30988977,10.8047195 1.10677884,14.7564629 L1.11300778,14.7552171 C1.14654024,14.9213222 1.1833948,15.0856624 1.22367528,15.2485492" id="Shape"></path>
                    </g>
                    <circle id="Oval-12" stroke="#469BFF" cx="20" cy="20" r="20"></circle>
                    <rect id="Rectangle-path" x="7.0701207" y="8" width="24.9157604" height="24.9157604"></rect>
                </g>
            </g>
        </g>
    </g>
</svg>