<?xml version="1.0" encoding="UTF-8"?>
<svg width="16px" height="16px" viewBox="0 0 16 16" version="1.1" xmlns="http://www.w3.org/2000/svg" xmlns:xlink="http://www.w3.org/1999/xlink">
    <!-- Generator: Sketch 45.1 (43504) - http://www.bohemiancoding.com/sketch -->
    <title>Shape</title>
    <desc>Created with Sketch.</desc>
    <defs></defs>
    <g id="Page-2" stroke="none" stroke-width="1" fill="none" fill-rule="evenodd">
        <g id="003_03_-填写信息_折叠" transform="translate(-702.000000, -690.000000)" fill-rule="nonzero" fill="#12CE83">
            <g id="square-add" transform="translate(702.000000, 690.000000)">
                <path d="M13.8181818,0 L2.18181818,0 C0.976363636,0 0,0.976363636 0,2.18181818 L0,13.8181818 C0,15.0236364 0.976363636,16 2.18181818,16 L13.8181818,16 C15.0236364,16 16,15.0236364 16,13.8181818 L16,2.18181818 C16,0.976363636 15.0236364,0 13.8181818,0 Z M14.5454545,13.8181818 C14.5454545,14.22 14.22,14.5454545 13.8181818,14.5454545 L2.18181818,14.5454545 C1.78,14.5454545 1.45454545,14.22 1.45454545,13.8181818 L1.45454545,2.18181818 C1.45454545,1.78 1.78,1.45454545 2.18181818,1.45454545 L13.8181818,1.45454545 C14.22,1.45454545 14.5454545,1.78 14.5454545,2.18181818 L14.5454545,13.8181818 Z M10.9090909,7.27272727 L8.72727273,7.27272727 L8.72727273,5.09090909 C8.72727273,4.68927273 8.40163636,4.36363636 8,4.36363636 C7.59836364,4.36363636 7.27272727,4.68927273 7.27272727,5.09090909 L7.27272727,7.27272727 L5.09090909,7.27272727 C4.68927273,7.27272727 4.36363636,7.59836364 4.36363636,8 C4.36363636,8.40163636 4.68927273,8.72727273 5.09090909,8.72727273 L7.27272727,8.72727273 L7.27272727,10.9090909 C7.27272727,11.3107273 7.59836364,11.6363636 8,11.6363636 C8.40163636,11.6363636 8.72727273,11.3107273 8.72727273,10.9090909 L8.72727273,8.72727273 L10.9090909,8.72727273 C11.3107273,8.72727273 11.6363636,8.40163636 11.6363636,8 C11.6363636,7.59836364 11.3107273,7.27272727 10.9090909,7.27272727 Z" id="Shape"></path>
            </g>
        </g>
    </g>
</svg>