<?xml version="1.0" encoding="UTF-8"?>
<svg width="24px" height="21px" viewBox="0 0 24 21" version="1.1" xmlns="http://www.w3.org/2000/svg" xmlns:xlink="http://www.w3.org/1999/xlink">
    <!-- Generator: Sketch 45.1 (43504) - http://www.bohemiancoding.com/sketch -->
    <title>heart</title>
    <desc>Created with Sketch.</desc>
    <defs></defs>
    <g id="Page-2" stroke="none" stroke-width="1" fill="none" fill-rule="evenodd">
        <g id="005_02_购买详情" transform="translate(-1057.000000, -720.000000)" fill-rule="nonzero" fill="#FF470D">
            <g id="heart" transform="translate(1057.000000, 720.000000)">
                <path d="M22.1101277,1.90544681 C19.7170213,-0.487659574 15.8374468,-0.487659574 13.4448511,1.90544681 L12,3.34978723 L10.5554043,1.90595745 C8.16229787,-0.487148936 4.2827234,-0.487148936 1.89012766,1.90595745 C-0.502978723,4.29880851 -0.502978723,8.17838298 1.89012766,10.5714894 L3.33421277,12.0150638 L12,20.6808511 L20.6657872,12.0150638 L22.1098723,10.5714894 C24.503234,8.17838298 24.503234,4.29855319 22.1101277,1.90544681 Z M17.7771064,12.0155745 L12,17.7926809 L6.22289362,12.0155745 L3.3347234,9.12740426 C1.73948936,7.53217021 1.73948936,4.94553191 3.3347234,3.34978723 C4.93046809,1.75455319 7.51659574,1.75455319 9.11182979,3.34978723 L12,6.23846809 L14.8886809,3.34978723 C16.4839149,1.75455319 19.0705532,1.75455319 20.6657872,3.34978723 C22.2610213,4.94553191 22.2610213,7.53165957 20.6657872,9.12740426 L17.7771064,12.0155745 Z" id="Shape"></path>
            </g>
        </g>
    </g>
</svg>