<?xml version="1.0" encoding="UTF-8"?>
<svg width="16px" height="16px" viewBox="0 0 16 16" version="1.1" xmlns="http://www.w3.org/2000/svg" xmlns:xlink="http://www.w3.org/1999/xlink">
    <!-- Generator: Sketch 43.1 (39012) - http://www.bohemiancoding.com/sketch -->
    <title>Group</title>
    <desc>Created with Sketch.</desc>
    <defs></defs>
    <g id="Page-2" stroke="none" stroke-width="1" fill="none" fill-rule="evenodd">
        <g id="003_02_上传文件" transform="translate(-1357.000000, -390.000000)" fill-rule="nonzero">
            <g id="thin-0153-delete-exit-remove-close-copy-2" transform="translate(1356.000000, 390.000000)">
                <g id="Group" transform="translate(1.000000, 0.000000)">
                    <path d="M8.00453333,15.9232 C3.63666667,15.9232 0.083,12.3698 0.083,8.002 C0.083,3.63386667 3.63673333,0.0801333333 8.00453333,0.0801333333 C12.3723333,0.0801333333 15.9257333,3.63386667 15.9257333,8.002 C15.9258,12.3698 12.3724,15.9232 8.00453333,15.9232 Z" id="Shape" fill="#E7ECF3"></path>
                    <path d="M4.92328249,11.4174463 C4.83801582,11.4174463 4.75268249,11.384913 4.68761582,11.3197797 C4.55741582,11.1895797 4.55741582,10.9786463 4.68761582,10.8484463 L10.8484158,4.68764634 C10.9786158,4.55744634 11.1895492,4.55744634 11.3197492,4.68764634 C11.4499492,4.81784634 11.4499492,5.02877967 11.3197492,5.15897967 L5.15894915,11.3197797 C5.09388249,11.384913 5.00854915,11.4174463 4.92328249,11.4174463 Z" id="Shape" fill="#8A949F"></path>
                    <path d="M11.0840825,11.4173797 C10.9988158,11.4173797 10.9134825,11.3848463 10.8484158,11.319713 L4.68761582,5.15897967 C4.55741582,5.02877967 4.55741582,4.81784634 4.68761582,4.68764634 C4.81781582,4.55744634 5.02874915,4.55744634 5.15894915,4.68764634 L11.3197492,10.8484463 C11.4499492,10.9786463 11.4499492,11.1895797 11.3197492,11.3197797 C11.2546825,11.3848463 11.1693492,11.4173797 11.0840825,11.4173797 Z" id="Shape" fill="#8A949F"></path>
                </g>
            </g>
        </g>
    </g>
</svg>