<?xml version="1.0" encoding="UTF-8"?>
<svg width="317px" height="126px" viewBox="0 0 317 126" version="1.1" xmlns="http://www.w3.org/2000/svg" xmlns:xlink="http://www.w3.org/1999/xlink">
    <!-- Generator: Sketch 43.1 (39012) - http://www.bohemiancoding.com/sketch -->
    <title>Group 5</title>
    <desc>Created with Sketch.</desc>
    <defs></defs>
    <g id="Page-2" stroke="none" stroke-width="1" fill="none" fill-rule="evenodd">
        <g id="003_01_首次上传" transform="translate(-609.000000, -291.000000)">
            <g id="Group-5" transform="translate(610.000000, 275.000000)">
                <g id="thin-0630-photo-wall-frame" transform="translate(86.470588, 0.000000)">
                    <g id="Group" transform="translate(0.645816, 15.964633)" fill-rule="nonzero" fill="#12CE83">
                        <path d="M41.3950396,54.0158048 C35.3916124,54.0158048 30.5077803,49.0736865 30.5077803,42.9986113 C30.5077803,36.9235362 35.3916124,31.9814178 41.3950396,31.9814178 C47.3984667,31.9814178 52.2822989,36.9235362 52.2822989,42.9986113 C52.2822989,49.0736865 47.3984667,54.0158048 41.3950396,54.0158048 Z M41.3950396,37.3029623 C38.2907797,37.3029623 35.7665637,39.8573036 35.7665637,42.9986113 C35.7665637,46.139919 38.2907797,48.6942604 41.3950396,48.6942604 C44.4992994,48.6942604 47.0235155,46.139919 47.0235155,42.9986113 C47.0235155,39.8573036 44.4992994,37.3029623 41.3950396,37.3029623 Z" id="Shape"></path>
                        <path d="M38.8324344,85.1601437 C38.2955126,85.1601437 37.7538579,84.9941115 37.286878,84.6508719 C36.1136434,83.7882495 35.8538595,82.1199454 36.7089377,80.9353696 L62.7925035,44.661594 C63.2857773,43.9783077 64.0714396,43.5701452 64.908112,43.5674844 C65.7400516,43.783007 66.5362314,43.9650038 67.0289794,44.6429686 L75.8158806,56.6398584 L87.9873348,37.2662436 C88.4648324,36.5047306 89.2915131,36.0396276 90.1802475,36.0321775 C91.1305097,36.2375891 91.9056544,36.4712049 92.3989282,37.2247356 L109.926453,64.0038116 C110.727366,65.2304276 110.393959,66.8827671 109.187068,67.6937705 C107.985436,68.4941308 106.352058,68.1668558 105.540628,66.9455614 L90.2522929,43.5807883 L78.1991612,62.7622953 C77.7369142,63.5003935 76.9407344,63.9628357 76.0730351,63.9937006 C75.1690502,63.9575141 74.3781292,63.6195961 73.8701307,62.9182165 L64.9396647,50.7212366 L40.9617158,84.0639055 C40.4474068,84.7807176 39.6464941,85.1601437 38.8324344,85.1601437 Z" id="Shape"></path>
                        <path d="M12.1867047,100.699054 C8.35831037,100.699054 4.6887313,98.4022749 2.61414124,94.7069945 C0.372321866,90.705193 0.441737807,85.929639 2.80398332,81.9278376 C3.8825598,80.0935012 3.96722621,77.9473224 3.01959344,76.4556934 C0.492748007,72.4906107 0.364433691,67.2675148 2.69091948,63.1571539 C3.77475474,61.2445908 3.77475474,58.8647961 2.69091948,56.9469115 C0.500636182,53.0701664 0.500636182,48.065786 2.69354887,44.196491 C3.77475474,42.2812671 3.77475474,39.9014725 2.69091948,37.9862486 C0.364433691,33.8753555 0.492748007,28.6554526 3.01959344,24.6850482 C3.96722621,23.1934193 3.8825598,21.0472405 2.80398332,19.2155649 C0.444367199,15.2164242 0.372321866,10.4456596 2.61151185,6.45184049 C5.85460358,0.667853829 13.1290787,-1.28621729 18.3699823,2.56445227 C19.7924832,3.60641067 21.4484741,3.73891713 22.6196051,2.81137193 C26.2660456,-0.072905159 31.4091357,-0.226165639 35.1838905,2.43992813 C36.7015754,3.50264056 38.5863234,3.50530133 40.1113706,2.43992813 C43.7141631,-0.101109345 48.5874777,-0.0909984101 52.1744938,2.43992813 C53.6921787,3.50264056 55.5795561,3.50530133 57.1046033,2.43726736 C60.6995077,-0.0989807268 65.5754516,-0.0883376379 69.1656231,2.43726736 C70.6859374,3.5079621 72.5754183,3.50530133 74.0957325,2.43992813 C77.7006286,-0.106430889 82.5744691,-0.0936591823 86.1588558,2.43992813 C87.6686526,3.49997979 89.5639181,3.51062287 91.0889653,2.43992813 C94.8479437,-0.226165639 100.004181,-0.0803553212 103.645362,2.80871116 C104.831744,3.75168884 106.495623,3.6037499 107.897615,2.56445227 C113.156398,-1.27876713 120.407735,0.65721074 123.648197,6.43374724 C125.892646,10.4376773 125.825859,15.2137634 123.468347,19.2155649 C122.384511,21.0472405 122.302474,23.1960801 123.252736,24.687709 C125.774323,28.6607741 125.902637,33.8806771 123.576152,37.9862486 C122.497575,39.9014725 122.497575,42.2812671 123.576152,44.1991518 C125.769064,48.0705753 125.769064,53.0754879 123.576152,56.952233 C122.497575,58.8647961 122.497575,61.2445908 123.58141,63.1624754 C125.902637,67.268047 125.774323,72.4858213 123.252736,76.4556934 C122.302474,77.9473224 122.38977,80.0988228 123.468347,81.9331591 C125.825333,85.9349606 125.897379,90.705193 123.658189,94.6963514 C121.583599,98.3910997 117.91139,100.693732 114.075108,100.693732 L114.075108,100.693732 C111.917955,100.693732 109.781837,99.9609553 107.897089,98.5736287 C106.495097,97.544442 104.825959,97.3991638 103.650095,98.3293698 C100.019431,101.218968 94.8631942,101.369568 91.0837065,98.7034743 C89.568651,97.6327796 87.6686526,97.6381011 86.1535971,98.7034743 C82.5692103,101.239722 77.6848522,101.234401 74.0952067,98.7034743 C72.5748924,97.6327796 70.6854115,97.6327796 69.1650972,98.7034743 C65.5754516,101.244512 60.6963524,101.239722 57.1019739,98.7034743 C55.5895478,97.6327796 53.6969116,97.6381011 52.1744938,98.7034743 C48.5848483,101.239722 43.7010161,101.234401 40.1113706,98.7034743 C38.5963151,97.6327796 36.7063083,97.6381011 35.1838905,98.7034743 C31.4143945,101.369568 26.2634162,101.218968 22.6222345,98.3293698 C21.4437412,97.3991638 19.784595,97.5396526 18.3726116,98.5789502 C16.4799755,99.9662768 14.3412283,100.699054 12.1867047,100.699054 Z M12.1966964,5.77121496 C10.2504206,5.77121496 8.32938706,7.039339 7.18454991,9.07908699 C6.5655911,10.1859682 5.33293227,13.1250572 7.31812301,16.487209 C9.41322233,20.0414686 9.46212901,24.3886382 7.44117854,27.5640038 C5.99080607,29.8480107 5.91350196,32.9738859 7.25659524,35.3409089 C9.25966585,38.8877182 9.25966585,43.2918284 7.25659524,46.8386378 C5.97292621,49.1045514 5.97292621,52.0356581 7.25659524,54.3063611 C9.25966585,57.8451882 9.25966585,62.2524913 7.25659524,65.8019615 C5.91350196,68.1716452 5.98817668,71.2948596 7.44170442,73.5762057 C9.46265489,76.7568929 9.4137482,81.1014018 7.31864889,84.6508719 C5.33135463,88.0236668 6.56611698,90.9702059 7.18770518,92.0770872 C8.94939763,95.2157341 12.4312381,96.359334 15.2841281,94.2754172 C18.5887476,91.8535823 22.8767596,91.7758878 25.8632228,94.14025 C27.7248321,95.6058033 30.2616692,95.6941409 32.177444,94.3376793 C35.4694424,92.0148251 39.824241,92.0148251 43.1188688,94.3376793 C44.9342008,95.6212358 47.345353,95.6318789 49.1685732,94.3376793 C52.4632011,92.0148251 56.8127408,92.0148251 60.109998,94.3376793 C61.9200713,95.6212358 64.3338529,95.6318789 66.1623319,94.3376793 C69.4595891,92.0201467 73.8091288,92.0201467 77.0958685,94.3376793 C78.9138299,95.6111249 81.3223527,95.6318789 83.1508317,94.3376793 C86.4428301,92.024936 90.7976287,92.0148251 94.0896271,94.3376793 C96.0153936,95.6994625 98.5627483,95.6111249 100.406478,94.14025 C103.39557,91.7806772 107.688841,91.8434714 110.990831,94.2700957 C111.982112,94.9975508 113.024403,95.3716554 114.077211,95.3716554 L114.077211,95.3716554 C116.023487,95.3716554 117.94452,94.1035313 119.089358,92.0664441 C119.710946,90.9595628 120.938346,88.0231346 118.950526,84.6556613 C116.860159,81.1061911 116.809149,76.7563607 118.82747,73.5762057 C120.280998,71.2948596 120.357776,68.1716452 119.017312,65.8019615 C117.009509,62.2524913 117.014242,57.8457203 119.017312,54.3063611 C120.300981,52.035126 120.300981,49.1093408 119.017312,46.8412986 C117.009509,43.2944892 117.009509,38.8877182 119.017312,35.3435696 C120.357776,32.9738859 120.280472,29.8506714 118.82747,27.5666646 C116.809149,24.3886382 116.860685,20.0388078 118.950526,16.487209 C120.93782,13.1223965 119.700428,10.1731965 119.07884,9.06099374 C117.317148,5.92447544 113.835307,4.78672923 110.990305,6.87330681 C107.688315,9.29780247 103.389786,9.36804685 100.405952,7.00049173 C98.5522307,5.52961684 95.9996173,5.45192229 94.09436,6.8057232 C90.7923699,9.12591658 86.4370455,9.12112719 83.1555646,6.8057232 C81.3376032,5.52482745 78.9343392,5.51418436 77.0958685,6.80838397 C73.8091288,9.12112719 69.4543303,9.12378796 66.1675907,6.8057232 C64.3443704,5.52748822 61.9411064,5.51684513 60.109998,6.8057232 C56.8153702,9.12591658 52.4632011,9.12112719 49.1712026,6.8057232 C47.3506118,5.52748822 44.9499772,5.51684513 43.1162394,6.8057232 C39.8216116,9.12591658 35.4694424,9.12112719 32.1800734,6.8057232 C30.2637727,5.45671168 27.7190474,5.52961684 25.8626969,6.99995957 C22.8841219,9.36485393 18.582963,9.29460954 15.2809729,6.87277466 C14.2870628,6.14265876 13.2495048,5.77121496 12.1966964,5.77121496 Z" id="Shape"></path>
                        <path d="M107.733015,85.1601437 L18.3336966,85.1601437 C16.8801689,85.1601437 15.7043049,83.9702464 15.7043049,82.4993715 L15.7043049,18.6434988 C15.7043049,17.1726239 16.8801689,15.9827266 18.3336966,15.9827266 L107.733015,15.9827266 C109.186543,15.9827266 110.362407,17.1726239 110.362407,18.6434988 L110.362407,82.4993715 C110.362407,83.9702464 109.186543,85.1601437 107.733015,85.1601437 Z M20.9630884,79.8385993 L105.103623,79.8385993 L105.103623,21.3042711 L20.9630884,21.3042711 L20.9630884,79.8385993 Z" id="Shape"></path>
                    </g>
                    <rect id="Rectangle-path" x="0.573770175" y="0.00106430889" width="126.210802" height="127.717067"></rect>
                </g>
                <g id="Group-2" transform="translate(161.823529, 70.382609)">
                    <ellipse id="Oval-9" fill="#FAFBFF" cx="35.8235294" cy="35.8086957" rx="35.8235294" ry="35.8086957"></ellipse>
                    <g id="thin-0637-fingerprint-scan-security-access" transform="translate(4.449866, 5.191700)">
                        <g id="Group" transform="translate(1.160615, 0.743676)" fill-rule="nonzero">
                            <path d="M23.3777198,60.5526473 C23.0673059,60.5526473 22.7555677,60.4446594 22.5034226,60.2260496 C21.9538417,59.7451082 21.8995457,58.9117574 22.383177,58.3662867 C29.0189365,50.8582278 31.6855298,40.9401943 29.7017412,31.1556971 C29.5568637,30.4432402 30.0211603,29.7486934 30.7389263,29.6046216 C31.4527193,29.4681881 32.1537992,29.9222642 32.2986767,30.6360381 C34.4480017,41.2307082 31.5589275,51.9718205 24.3722627,60.1048924 C24.1111124,60.400674 23.7450783,60.5526473 23.3777198,60.5526473 Z" id="Shape" fill="#D2DBE6"></path>
                            <path d="M31.9339669,61.5300698 C31.6752003,61.5300698 31.41405,61.4555318 31.1865368,61.2985542 C30.5826599,60.889517 30.4287772,60.069072 30.8411616,59.4698707 C36.8794008,50.6962459 39.0417039,40.1273876 36.9310482,29.7065517 C36.9233673,29.6628298 36.9154215,29.6177909 36.9103892,29.572752 C36.5689869,28.0488052 35.6610527,26.7382004 34.3497393,25.8713997 C33.0021403,24.9787872 31.3857102,24.6624615 29.7923227,24.982738 C26.586478,25.6256613 24.4795303,28.6877777 25.0060686,31.8734218 C25.0320247,31.9376878 25.0526837,32.0072215 25.0680454,32.0764918 L25.0447379,32.0867639 C25.0447379,32.0867639 25.0460622,32.0867639 25.0460622,32.0893977 L25.0293761,32.0920316 L23.8189737,32.5600671 L24.0581408,33.6299378 C23.7114413,33.701842 23.3326939,33.6428437 23.0376418,33.4497823 C22.8008585,33.2980725 22.6133388,33.0768289 22.5113684,32.8171311 L22.5087198,32.8197649 C22.5087198,32.8171311 22.5073955,32.8121267 22.5060712,32.8042252 C22.4814394,32.742593 22.463429,32.6756932 22.4491267,32.6087934 C21.4998746,27.9250142 24.5584581,23.3452721 29.268433,22.3999826 C31.5536304,21.9445896 33.8761727,22.3960318 35.8136111,23.6771375 C37.7534332,24.9579798 39.075076,26.9128248 39.5356646,29.1826785 C39.5459941,29.2316682 39.553675,29.2817114 39.5563235,29.3317546 C41.7625931,40.4073661 39.4450831,51.6320536 33.0254479,60.9558901 C32.7693299,61.3293703 32.3556212,61.5300698 31.9339669,61.5300698 Z" id="Shape" fill="#12CE83"></path>
                            <path d="M16.0800794,57.5173961 C15.7270233,57.5173961 15.3739672,57.3785921 15.1128169,57.1007207 C14.6135591,56.5684192 14.6408395,55.734805 15.1747938,55.2385873 C20.1912098,50.5700844 23.0273123,43.9907219 22.9536817,37.1874819 C22.9460008,36.462119 23.5331916,35.8652881 24.2636708,35.8576499 L24.2779732,35.8576499 C25.00342,35.8576499 25.5945837,36.4389411 25.6022646,37.1616701 C25.683841,44.700545 22.5423568,51.9899941 16.985365,57.1626162 C16.7292471,57.3991362 16.4045308,57.5173961 16.0800794,57.5173961 Z" id="Shape" fill="#D2DBE6"></path>
                            <path d="M41.5737491,59.593135 C41.3772243,59.593135 41.1806994,59.549413 40.9942392,59.4593353 C40.3373906,59.1430096 40.0629975,58.3533808 40.3837408,57.6999221 C42.605637,53.1575807 44.0618279,48.3220916 44.7056984,43.3319954 C44.7989285,42.6066326 45.4714037,42.0972456 46.1878454,42.192591 C46.9146165,42.2853026 47.4268525,42.9461361 47.3336223,43.6664947 C46.6508177,48.9444709 45.1143747,54.0528271 42.7632277,58.8522324 C42.5359793,59.3205313 42.0626775,59.593135 41.5737491,59.593135 Z" id="Shape" fill="#12CE83"></path>
                            <path d="M10.1334811,52.949243 C9.74943659,52.949243 9.36910008,52.7846273 9.10794981,52.4656678 C8.64365323,51.9049207 8.72761331,51.0742037 9.2928209,50.6138064 C14.167008,46.6424842 16.450881,40.3920897 15.2844451,34.2575848 C15.2598133,34.1933188 15.2404786,34.1264189 15.2261763,34.0568852 C13.4741387,25.4136362 19.1203877,16.9616048 27.8135665,15.2177313 C36.5093938,13.4841298 45.0033991,19.0926545 46.7570258,27.736167 C47.4994236,31.3974848 47.8175184,35.1631031 47.7036294,38.9260876 C47.6803218,39.6540844 47.1061091,40.1916536 46.3406686,40.2045594 C45.6086003,40.1813816 45.0343875,39.5742786 45.0550465,38.8491792 C45.1636384,35.2816265 44.8611702,31.7193415 44.1574417,28.2584598 C43.448681,24.7591239 41.413245,21.7446802 38.4256435,19.7692911 C35.4356583,17.7925851 31.8508014,17.0969847 28.3356021,17.8002233 C21.1425807,19.2433108 16.445319,26.1853548 17.7825885,33.3344196 C17.8072203,33.3986856 17.826555,33.4655854 17.8408573,33.5351191 C19.2920159,40.6907685 16.6587948,48.016038 10.970963,52.651091 C10.7259691,52.8515271 10.4285332,52.949243 10.1334811,52.949243 Z" id="Shape" fill="#D2DBE6"></path>
                            <path d="M51.9302379,52.874705 C51.8189975,52.874705 51.7027247,52.8617991 51.5888356,52.8309831 C50.8827234,52.6431894 50.461069,51.9204604 50.649913,51.2182754 C52.799238,43.1984591 53.0476751,34.9829476 51.3870136,26.8087876 C49.9747892,19.8538378 45.1405957,14.1707751 38.4518645,11.6038228 C37.7690598,11.342808 37.4303061,10.5800445 37.6914563,9.90103741 C37.9552552,9.22203033 38.7233442,8.88120987 39.4037652,9.14749232 C46.9434861,12.0397253 52.3905616,18.4470973 53.9813005,26.2880751 C55.7245978,34.8623172 55.4634475,43.4789644 53.2105629,51.8972825 C53.0527074,52.4864752 52.5174288,52.874705 51.9302379,52.874705 Z" id="Shape" fill="#D2DBE6"></path>
                            <path d="M9.43399036,27.3231789 C9.33572794,27.3231789 9.23614122,27.3129069 9.13655451,27.289729 C8.42408571,27.1277471 7.97912378,26.4216114 8.14201163,25.7131052 C10.1983714,16.7801323 17.3474263,9.84177573 26.3573756,8.03627011 C29.0538978,7.49343319 31.8357044,7.44339 34.6288999,7.8779756 C35.3506388,7.99123124 35.8445995,8.66628754 35.7307104,9.38401224 C35.6144376,10.1027905 34.9210386,10.5774106 34.2149264,10.4810116 C31.7371771,10.0914649 29.2694925,10.1375573 26.8810004,10.6184987 C18.889961,12.2196174 12.5479293,18.3746664 10.7230557,26.2994006 C10.5837402,26.9104543 10.0378673,27.3231789 9.43399036,27.3231789 Z" id="Shape" fill="#12CE83"></path>
                            <path d="M5.60705295,47.1568755 C5.23068932,47.1568755 4.85697428,46.9998979 4.595824,46.6912104 C4.12252224,46.135731 4.19112054,45.3047507 4.74970667,44.8340813 C7.42424567,42.5808208 8.67861452,39.0777975 8.04613293,35.6619547 C8.02944686,35.6105946 8.01514451,35.5589711 8.00349075,35.5049771 C7.68009878,33.9078092 7.5275404,32.2537501 7.54819935,30.5883654 C7.55720453,29.8669533 8.14836823,29.2880326 8.87249079,29.2880326 L8.88917686,29.2880326 C9.61992088,29.2969877 10.2057874,29.8938186 10.1967822,30.6215519 C10.1787719,32.045149 10.3027256,33.4574205 10.5678487,34.820439 C10.5858591,34.8717991 10.6001614,34.9257931 10.6118152,34.9824209 C11.5041227,39.3885921 9.91470816,43.9333039 6.46175065,46.8450274 C6.21384329,47.0541552 5.90846168,47.1568755 5.60705295,47.1568755 Z" id="Shape" fill="#D2DBE6"></path>
                            <path d="M60.5018467,32.8044886 L60.4758906,32.8044886 C59.7438223,32.7889488 59.1645772,32.1897475 59.1775553,31.4617508 C59.2162246,29.4953168 59.0430073,27.5070218 58.6602871,25.5498063 C58.6369795,25.4881742 58.6189692,25.4249617 58.6059911,25.3593788 C55.5357538,10.21868 40.6557503,0.37386756 25.4237501,3.43598402 C21.4612053,4.23088059 17.7934477,5.82436111 14.524037,8.1700698 C13.9318138,8.59965108 13.1041317,8.46453447 12.6761207,7.87297128 C12.2481097,7.28404195 12.3813334,6.46096317 12.9748808,6.03506928 C16.5520569,3.46680009 20.5636005,1.72424354 24.8998604,0.853492029 C41.4934971,-2.48122812 57.7110349,8.18666307 61.1613439,24.6392836 C61.1846514,24.7022327 61.2053104,24.7691326 61.2182884,24.8373493 C61.6656341,27.0455709 61.8701047,29.2909299 61.8261382,31.5133743 C61.8107764,32.2308356 61.220937,32.8044886 60.5018467,32.8044886 Z" id="Shape" fill="#D2DBE6"></path>
                            <path d="M2.3765764,39.2605869 C1.78170468,39.2605869 1.23980463,38.8594512 1.09095427,38.2573526 C1.00169702,37.8946712 0.917736947,37.5269854 0.840133468,37.1590363 C0.815501647,37.0921364 0.794842701,37.0252366 0.780540353,36.9533324 C-1.26919794,26.8435545 1.90300978,16.4548516 9.26554049,9.16276866 C9.78307359,8.64837734 10.6210852,8.65232812 11.1396777,9.16671944 C11.6556217,9.68242768 11.6529731,10.5170954 11.1357049,11.0301698 C4.45227081,17.64825 1.54492137,27.055843 3.33748227,36.2329739 C3.36211409,36.2972398 3.38012446,36.3641397 3.3944268,36.4310395 C3.47600316,36.8348091 3.56631983,37.2335743 3.66484712,37.6297056 C3.83806444,38.3371583 3.40369684,39.0496153 2.69361177,39.2218692 C2.5874036,39.247681 2.48146028,39.2605869 2.3765764,39.2605869 Z" id="Shape" fill="#12CE83"></path>
                        </g>
                        <rect id="Rectangle-path" x="0.380610289" y="0" width="63.5659893" height="63.2124506"></rect>
                    </g>
                </g>
                <g id="Group-4" transform="translate(0.000000, 43.217391)">
                    <g id="thin-0364-network-connection-computers" transform="translate(7.411765, 0.000000)">
                        <g id="Group" transform="translate(0.737745, 5.402174)" fill-rule="nonzero" fill="#D2DBE6">
                            <g transform="translate(37.083529, 31.612721)" id="Shape">
                                <path d="M2.42643388,1.98350069 L1.45055153,1.98350069 C0.911083765,1.98350069 0.474669176,1.54171291 0.474669176,0.995603145 C0.474669176,0.449493383 0.911083765,0.00770560085 1.45055153,0.00770560085 L2.42643388,0.00770560085 C2.96590165,0.00770560085 3.40231624,0.449493383 3.40231624,0.995603145 C3.40231624,1.54171291 2.96570647,1.98350069 2.42643388,1.98350069 Z"></path>
                                <path d="M6.86357576,1.98350069 L5.88769341,1.98350069 C5.34822565,1.98350069 4.91181106,1.54171291 4.91181106,0.995603145 C4.91181106,0.449493383 5.34822565,0.00770560085 5.88769341,0.00770560085 L6.86357576,0.00770560085 C7.40304353,0.00770560085 7.83945812,0.449493383 7.83945812,0.995603145 C7.83945812,1.54171291 7.40304353,1.98350069 6.86357576,1.98350069 Z"></path>
                            </g>
                            <g transform="translate(1.355392, 31.612721)" id="Shape">
                                <path d="M2.48626631,1.98350069 L1.51038396,1.98350069 C0.970916196,1.98350069 0.534501608,1.54171291 0.534501608,0.995603145 C0.534501608,0.449493383 0.970916196,0.00770560085 1.51038396,0.00770560085 L2.48626631,0.00770560085 C3.02573408,0.00770560085 3.46214867,0.449493383 3.46214867,0.995603145 C3.46214867,1.54171291 3.0255389,1.98350069 2.48626631,1.98350069 Z"></path>
                                <path d="M6.92438408,1.98350069 L5.94850173,1.98350069 C5.40903396,1.98350069 4.97261937,1.54171291 4.97261937,0.995603145 C4.97261937,0.449493383 5.40903396,0.00770560085 5.94850173,0.00770560085 L6.92438408,0.00770560085 C7.46385184,0.00770560085 7.90026643,0.449493383 7.90026643,0.995603145 C7.90026643,1.54171291 7.46385184,1.98350069 6.92438408,1.98350069 Z"></path>
                            </g>
                            <g transform="translate(11.710588, 31.612721)" id="Shape">
                                <path d="M2.42448212,1.98350069 L1.44859976,1.98350069 C0.909132,1.98350069 0.472717412,1.54171291 0.472717412,0.995603145 C0.472717412,0.449493383 0.909132,0.00770560085 1.44859976,0.00770560085 L2.42448212,0.00770560085 C2.96394988,0.00770560085 3.40036447,0.449493383 3.40036447,0.995603145 C3.40036447,1.54171291 2.96394988,1.98350069 2.42448212,1.98350069 Z"></path>
                                <path d="M15.9113714,1.98350069 L14.2244612,1.98350069 C13.6849934,1.98350069 13.2485788,1.54171291 13.2485788,0.995603145 C13.2485788,0.449493383 13.6849934,0.00770560085 14.2244612,0.00770560085 L15.9113714,0.00770560085 C16.4508392,0.00770560085 16.8872538,0.449493383 16.8872538,0.995603145 C16.8872538,1.54171291 16.4508392,1.98350069 15.9113714,1.98350069 Z M9.16802435,1.98350069 L7.48209,1.98350069 C6.94262224,1.98350069 6.50620765,1.54171291 6.50620765,0.995603145 C6.50620765,0.449493383 6.94262224,0.00770560085 7.48209,0.00770560085 L9.16802435,0.00770560085 C9.70749212,0.00770560085 10.1439067,0.449493383 10.1439067,0.995603145 C10.1439067,1.54171291 9.70729694,1.98350069 9.16802435,1.98350069 Z"></path>
                                <path d="M21.9440809,1.98350069 L20.9681986,1.98350069 C20.4287308,1.98350069 19.9923162,1.54171291 19.9923162,0.995603145 C19.9923162,0.449493383 20.4287308,0.00770560085 20.9681986,0.00770560085 L21.9440809,0.00770560085 C22.4835487,0.00770560085 22.9199633,0.449493383 22.9199633,0.995603145 C22.9199633,1.54171291 22.4833535,1.98350069 21.9440809,1.98350069 Z"></path>
                            </g>
                            <g transform="translate(34.535392, 22.733746)" id="Shape">
                                <path d="M1.5589829,8.39470807 C1.01951514,8.39470807 0.583100549,7.95292028 0.583100549,7.40681052 L0.583100549,6.41891298 C0.583100549,5.87280322 1.01951514,5.43101543 1.5589829,5.43101543 C2.09845067,5.43101543 2.53486525,5.87280322 2.53486525,6.41891298 L2.53486525,7.40681052 C2.53486525,7.95272271 2.09825549,8.39470807 1.5589829,8.39470807 Z"></path>
                                <path d="M1.5589829,3.05571458 C1.01951514,3.05571458 0.583100549,2.6139268 0.583100549,2.06781703 L0.583100549,1.07991949 C0.583100549,0.533809727 1.01951514,0.0920219455 1.5589829,0.0920219455 C2.09845067,0.0920219455 2.53486525,0.533809727 2.53486525,1.07991949 L2.53486525,2.06781703 C2.53486525,2.6139268 2.09825549,3.05571458 1.5589829,3.05571458 Z"></path>
                            </g>
                            <g transform="translate(9.162451, 22.733746)" id="Shape">
                                <path d="M1.55703114,3.05571458 C1.01756337,3.05571458 0.581148784,2.6139268 0.581148784,2.06781703 L0.581148784,1.07991949 C0.581148784,0.533809727 1.01756337,0.0920219455 1.55703114,0.0920219455 C2.0964989,0.0920219455 2.53291349,0.533809727 2.53291349,1.07991949 L2.53291349,2.06781703 C2.53291349,2.6139268 2.0964989,3.05571458 1.55703114,3.05571458 Z"></path>
                                <path d="M1.55703114,8.39470807 C1.01756337,8.39470807 0.581148784,7.95292028 0.581148784,7.40681052 L0.581148784,6.41891298 C0.581148784,5.87280322 1.01756337,5.43101543 1.55703114,5.43101543 C2.0964989,5.43101543 2.53291349,5.87280322 2.53291349,6.41891298 L2.53291349,7.40681052 C2.53291349,7.95272271 2.0964989,8.39470807 1.55703114,8.39470807 Z"></path>
                            </g>
                            <path d="M10.7194821,36.0679418 C8.83641953,36.0679418 7.30389388,34.5165475 7.30389388,32.6103004 C7.30389388,30.7040533 8.83641953,29.152659 10.7194821,29.152659 C12.6025447,29.152659 14.1350704,30.7040533 14.1350704,32.6103004 C14.1350704,34.5165475 12.6025447,36.0679418 10.7194821,36.0679418 Z M10.7194821,31.128454 C9.91223224,31.128454 9.25565859,31.7940994 9.25565859,32.6103004 C9.25565859,33.4265013 9.91223224,34.0921467 10.7194821,34.0921467 C11.526732,34.0921467 12.1833056,33.4265013 12.1833056,32.6103004 C12.1833056,31.7940994 11.526732,31.128454 10.7194821,31.128454 Z" id="Shape"></path>
                            <path d="M36.0943751,36.0679418 C34.2113125,36.0679418 32.6787868,34.5165475 32.6787868,32.6103004 C32.6787868,30.7040533 34.2113125,29.152659 36.0943751,29.152659 C37.9774376,29.152659 39.5099633,30.7040533 39.5099633,32.6103004 C39.5099633,34.5165475 37.9774376,36.0679418 36.0943751,36.0679418 Z M36.0943751,31.128454 C35.2881011,31.128454 34.6305515,31.7940994 34.6305515,32.6103004 C34.6305515,33.4265013 35.2881011,34.0921467 36.0943751,34.0921467 C36.9006491,34.0921467 37.5581986,33.4265013 37.5581986,32.6103004 C37.5581986,31.7940994 36.9004539,31.128454 36.0943751,31.128454 Z" id="Shape"></path>
                            <path d="M18.6951734,17.7821558 L2.91905929,17.7821558 C1.31236659,17.7821558 0.00566011765,16.5607193 0.00566011765,15.0597077 L0.00566011765,2.93563634 C0.00566011765,1.37179453 1.36760153,0 2.91905929,0 L18.6951734,0 C20.2019358,0 21.4750719,1.34492372 21.4750719,2.93563634 L21.4750719,15.0595102 C21.4750719,16.5858119 20.2542431,17.7821558 18.6951734,17.7821558 Z M2.91905929,1.97579509 C2.46058976,1.97579509 1.95742482,2.47843736 1.95742482,2.93563634 L1.95742482,15.0595102 C1.95742482,15.4995197 2.46449329,15.8063607 2.91905929,15.8063607 L18.6951734,15.8063607 C19.0945045,15.8063607 19.5233072,15.5728217 19.5233072,15.0597077 L19.5233072,2.93563634 C19.5233072,2.44267547 19.1212436,1.97579509 18.6951734,1.97579509 L2.91905929,1.97579509 Z" id="Shape"></path>
                            <path d="M20.4991895,13.8305656 L0.981542471,13.8305656 C0.442074706,13.8305656 0.00566011765,13.3887778 0.00566011765,12.8426681 C0.00566011765,12.2965583 0.442269882,11.8547705 0.981542471,11.8547705 L20.4991895,11.8547705 C21.0386573,11.8547705 21.4750719,12.2965583 21.4750719,12.8426681 C21.4750719,13.3887778 21.0386573,13.8305656 20.4991895,13.8305656 Z" id="Shape"></path>
                            <path d="M12.7065738,21.733746 L8.91644188,21.733746 C8.37697412,21.733746 7.94055953,21.2919582 7.94055953,20.7458484 C7.94055953,20.1997387 8.37697412,19.7579509 8.91644188,19.7579509 L12.7065738,19.7579509 C13.2460415,19.7579509 13.6824561,20.1997387 13.6824561,20.7458484 C13.6824561,21.2919582 13.2458464,21.733746 12.7065738,21.733746 Z" id="Shape"></path>
                            <path d="M10.740366,21.733746 C10.2008982,21.733746 9.76448365,21.2919582 9.76448365,20.7458484 L9.76448365,16.7942583 C9.76448365,16.2481485 10.2008982,15.8063607 10.740366,15.8063607 C11.2798338,15.8063607 11.7162484,16.2481485 11.7162484,16.7942583 L11.7162484,20.7458484 C11.7162484,21.2919582 11.2798338,21.733746 10.740366,21.733746 Z" id="Shape"></path>
                            <path d="M44.0690905,17.7821558 L28.2929764,17.7821558 C26.6862836,17.7821558 25.3805531,16.5607193 25.3805531,15.0597077 L25.3805531,2.93563634 C25.3805531,1.37179453 26.7415186,0 28.2929764,0 L44.0690905,0 C45.5768287,0 46.8499648,1.34492372 46.8499648,2.93563634 L46.8499648,15.0595102 C46.8499648,16.5858119 45.6281601,17.7821558 44.0690905,17.7821558 Z M28.2929764,1.97579509 C27.8354827,1.97579509 27.3323178,2.47843736 27.3323178,2.93563634 L27.3323178,15.0595102 C27.3323178,15.4995197 27.8393862,15.8061631 28.2929764,15.8061631 L44.0690905,15.8061631 C44.4693974,15.8061631 44.8982001,15.5726241 44.8982001,15.0595102 L44.8982001,2.93563634 C44.8982001,2.44267547 44.4961366,1.97579509 44.0690905,1.97579509 L28.2929764,1.97579509 Z" id="Shape"></path>
                            <path d="M45.8740825,13.8305656 L26.3564354,13.8305656 C25.8169676,13.8305656 25.3805531,13.3887778 25.3805531,12.8426681 C25.3805531,12.2965583 25.8169676,11.8547705 26.3564354,11.8547705 L45.8740825,11.8547705 C46.4135502,11.8547705 46.8499648,12.2965583 46.8499648,12.8426681 C46.8499648,13.3887778 46.4135502,13.8305656 45.8740825,13.8305656 Z" id="Shape"></path>
                            <path d="M38.0802956,21.733746 L34.2911396,21.733746 C33.7516719,21.733746 33.3152573,21.2919582 33.3152573,20.7458484 C33.3152573,20.1997387 33.7516719,19.7579509 34.2911396,19.7579509 L38.0802956,19.7579509 C38.6197634,19.7579509 39.056178,20.1997387 39.056178,20.7458484 C39.056178,21.2919582 38.6197634,21.733746 38.0802956,21.733746 Z" id="Shape"></path>
                            <path d="M36.1152589,21.733746 C35.5757912,21.733746 35.1393766,21.2919582 35.1393766,20.7458484 L35.1393766,16.7942583 C35.1393766,16.2481485 35.5757912,15.8063607 36.1152589,15.8063607 C36.6547267,15.8063607 37.0911413,16.2481485 37.0911413,16.7942583 L37.0911413,20.7458484 C37.0911413,21.2919582 36.6547267,21.733746 36.1152589,21.733746 Z" id="Shape"></path>
                        </g>
                        <rect id="Rectangle-path" x="4.94117647" y="0" width="42.6917647" height="43.2173913"></rect>
                    </g>
                    <path d="M54.9705882,37.9695652 L83.3823529,37.9695652" id="Line" stroke="#D2DBE6" stroke-width="1.5" stroke-linecap="round"></path>
                    <path d="M0.617647059,37.9695652 L9.26470588,37.9695652" id="Line-Copy" stroke="#D2DBE6" stroke-width="1.5" stroke-linecap="round"></path>
                </g>
                <g id="Group-4-Copy" transform="translate(273.000000, 65.217391) scale(-1, 1) translate(-273.000000, -65.217391) translate(231.000000, 43.217391)">
                    <g id="thin-0364-network-connection-computers" transform="translate(7.411765, 0.000000)">
                        <g id="Group" transform="translate(0.737745, 5.402174)" fill-rule="nonzero" fill="#D2DBE6">
                            <g transform="translate(37.083529, 31.612721)" id="Shape">
                                <path d="M2.42643388,1.98350069 L1.45055153,1.98350069 C0.911083765,1.98350069 0.474669176,1.54171291 0.474669176,0.995603145 C0.474669176,0.449493383 0.911083765,0.00770560085 1.45055153,0.00770560085 L2.42643388,0.00770560085 C2.96590165,0.00770560085 3.40231624,0.449493383 3.40231624,0.995603145 C3.40231624,1.54171291 2.96570647,1.98350069 2.42643388,1.98350069 Z"></path>
                                <path d="M6.86357576,1.98350069 L5.88769341,1.98350069 C5.34822565,1.98350069 4.91181106,1.54171291 4.91181106,0.995603145 C4.91181106,0.449493383 5.34822565,0.00770560085 5.88769341,0.00770560085 L6.86357576,0.00770560085 C7.40304353,0.00770560085 7.83945812,0.449493383 7.83945812,0.995603145 C7.83945812,1.54171291 7.40304353,1.98350069 6.86357576,1.98350069 Z"></path>
                            </g>
                            <g transform="translate(1.355392, 31.612721)" id="Shape">
                                <path d="M2.48626631,1.98350069 L1.51038396,1.98350069 C0.970916196,1.98350069 0.534501608,1.54171291 0.534501608,0.995603145 C0.534501608,0.449493383 0.970916196,0.00770560085 1.51038396,0.00770560085 L2.48626631,0.00770560085 C3.02573408,0.00770560085 3.46214867,0.449493383 3.46214867,0.995603145 C3.46214867,1.54171291 3.0255389,1.98350069 2.48626631,1.98350069 Z"></path>
                                <path d="M6.92438408,1.98350069 L5.94850173,1.98350069 C5.40903396,1.98350069 4.97261937,1.54171291 4.97261937,0.995603145 C4.97261937,0.449493383 5.40903396,0.00770560085 5.94850173,0.00770560085 L6.92438408,0.00770560085 C7.46385184,0.00770560085 7.90026643,0.449493383 7.90026643,0.995603145 C7.90026643,1.54171291 7.46385184,1.98350069 6.92438408,1.98350069 Z"></path>
                            </g>
                            <g transform="translate(11.710588, 31.612721)" id="Shape">
                                <path d="M2.42448212,1.98350069 L1.44859976,1.98350069 C0.909132,1.98350069 0.472717412,1.54171291 0.472717412,0.995603145 C0.472717412,0.449493383 0.909132,0.00770560085 1.44859976,0.00770560085 L2.42448212,0.00770560085 C2.96394988,0.00770560085 3.40036447,0.449493383 3.40036447,0.995603145 C3.40036447,1.54171291 2.96394988,1.98350069 2.42448212,1.98350069 Z"></path>
                                <path d="M15.9113714,1.98350069 L14.2244612,1.98350069 C13.6849934,1.98350069 13.2485788,1.54171291 13.2485788,0.995603145 C13.2485788,0.449493383 13.6849934,0.00770560085 14.2244612,0.00770560085 L15.9113714,0.00770560085 C16.4508392,0.00770560085 16.8872538,0.449493383 16.8872538,0.995603145 C16.8872538,1.54171291 16.4508392,1.98350069 15.9113714,1.98350069 Z M9.16802435,1.98350069 L7.48209,1.98350069 C6.94262224,1.98350069 6.50620765,1.54171291 6.50620765,0.995603145 C6.50620765,0.449493383 6.94262224,0.00770560085 7.48209,0.00770560085 L9.16802435,0.00770560085 C9.70749212,0.00770560085 10.1439067,0.449493383 10.1439067,0.995603145 C10.1439067,1.54171291 9.70729694,1.98350069 9.16802435,1.98350069 Z"></path>
                                <path d="M21.9440809,1.98350069 L20.9681986,1.98350069 C20.4287308,1.98350069 19.9923162,1.54171291 19.9923162,0.995603145 C19.9923162,0.449493383 20.4287308,0.00770560085 20.9681986,0.00770560085 L21.9440809,0.00770560085 C22.4835487,0.00770560085 22.9199633,0.449493383 22.9199633,0.995603145 C22.9199633,1.54171291 22.4833535,1.98350069 21.9440809,1.98350069 Z"></path>
                            </g>
                            <g transform="translate(34.535392, 22.733746)" id="Shape">
                                <path d="M1.5589829,8.39470807 C1.01951514,8.39470807 0.583100549,7.95292028 0.583100549,7.40681052 L0.583100549,6.41891298 C0.583100549,5.87280322 1.01951514,5.43101543 1.5589829,5.43101543 C2.09845067,5.43101543 2.53486525,5.87280322 2.53486525,6.41891298 L2.53486525,7.40681052 C2.53486525,7.95272271 2.09825549,8.39470807 1.5589829,8.39470807 Z"></path>
                                <path d="M1.5589829,3.05571458 C1.01951514,3.05571458 0.583100549,2.6139268 0.583100549,2.06781703 L0.583100549,1.07991949 C0.583100549,0.533809727 1.01951514,0.0920219455 1.5589829,0.0920219455 C2.09845067,0.0920219455 2.53486525,0.533809727 2.53486525,1.07991949 L2.53486525,2.06781703 C2.53486525,2.6139268 2.09825549,3.05571458 1.5589829,3.05571458 Z"></path>
                            </g>
                            <g transform="translate(9.162451, 22.733746)" id="Shape">
                                <path d="M1.55703114,3.05571458 C1.01756337,3.05571458 0.581148784,2.6139268 0.581148784,2.06781703 L0.581148784,1.07991949 C0.581148784,0.533809727 1.01756337,0.0920219455 1.55703114,0.0920219455 C2.0964989,0.0920219455 2.53291349,0.533809727 2.53291349,1.07991949 L2.53291349,2.06781703 C2.53291349,2.6139268 2.0964989,3.05571458 1.55703114,3.05571458 Z"></path>
                                <path d="M1.55703114,8.39470807 C1.01756337,8.39470807 0.581148784,7.95292028 0.581148784,7.40681052 L0.581148784,6.41891298 C0.581148784,5.87280322 1.01756337,5.43101543 1.55703114,5.43101543 C2.0964989,5.43101543 2.53291349,5.87280322 2.53291349,6.41891298 L2.53291349,7.40681052 C2.53291349,7.95272271 2.0964989,8.39470807 1.55703114,8.39470807 Z"></path>
                            </g>
                            <path d="M10.7194821,36.0679418 C8.83641953,36.0679418 7.30389388,34.5165475 7.30389388,32.6103004 C7.30389388,30.7040533 8.83641953,29.152659 10.7194821,29.152659 C12.6025447,29.152659 14.1350704,30.7040533 14.1350704,32.6103004 C14.1350704,34.5165475 12.6025447,36.0679418 10.7194821,36.0679418 Z M10.7194821,31.128454 C9.91223224,31.128454 9.25565859,31.7940994 9.25565859,32.6103004 C9.25565859,33.4265013 9.91223224,34.0921467 10.7194821,34.0921467 C11.526732,34.0921467 12.1833056,33.4265013 12.1833056,32.6103004 C12.1833056,31.7940994 11.526732,31.128454 10.7194821,31.128454 Z" id="Shape"></path>
                            <path d="M36.0943751,36.0679418 C34.2113125,36.0679418 32.6787868,34.5165475 32.6787868,32.6103004 C32.6787868,30.7040533 34.2113125,29.152659 36.0943751,29.152659 C37.9774376,29.152659 39.5099633,30.7040533 39.5099633,32.6103004 C39.5099633,34.5165475 37.9774376,36.0679418 36.0943751,36.0679418 Z M36.0943751,31.128454 C35.2881011,31.128454 34.6305515,31.7940994 34.6305515,32.6103004 C34.6305515,33.4265013 35.2881011,34.0921467 36.0943751,34.0921467 C36.9006491,34.0921467 37.5581986,33.4265013 37.5581986,32.6103004 C37.5581986,31.7940994 36.9004539,31.128454 36.0943751,31.128454 Z" id="Shape"></path>
                            <path d="M18.6951734,17.7821558 L2.91905929,17.7821558 C1.31236659,17.7821558 0.00566011765,16.5607193 0.00566011765,15.0597077 L0.00566011765,2.93563634 C0.00566011765,1.37179453 1.36760153,0 2.91905929,0 L18.6951734,0 C20.2019358,0 21.4750719,1.34492372 21.4750719,2.93563634 L21.4750719,15.0595102 C21.4750719,16.5858119 20.2542431,17.7821558 18.6951734,17.7821558 Z M2.91905929,1.97579509 C2.46058976,1.97579509 1.95742482,2.47843736 1.95742482,2.93563634 L1.95742482,15.0595102 C1.95742482,15.4995197 2.46449329,15.8063607 2.91905929,15.8063607 L18.6951734,15.8063607 C19.0945045,15.8063607 19.5233072,15.5728217 19.5233072,15.0597077 L19.5233072,2.93563634 C19.5233072,2.44267547 19.1212436,1.97579509 18.6951734,1.97579509 L2.91905929,1.97579509 Z" id="Shape"></path>
                            <path d="M20.4991895,13.8305656 L0.981542471,13.8305656 C0.442074706,13.8305656 0.00566011765,13.3887778 0.00566011765,12.8426681 C0.00566011765,12.2965583 0.442269882,11.8547705 0.981542471,11.8547705 L20.4991895,11.8547705 C21.0386573,11.8547705 21.4750719,12.2965583 21.4750719,12.8426681 C21.4750719,13.3887778 21.0386573,13.8305656 20.4991895,13.8305656 Z" id="Shape"></path>
                            <path d="M12.7065738,21.733746 L8.91644188,21.733746 C8.37697412,21.733746 7.94055953,21.2919582 7.94055953,20.7458484 C7.94055953,20.1997387 8.37697412,19.7579509 8.91644188,19.7579509 L12.7065738,19.7579509 C13.2460415,19.7579509 13.6824561,20.1997387 13.6824561,20.7458484 C13.6824561,21.2919582 13.2458464,21.733746 12.7065738,21.733746 Z" id="Shape"></path>
                            <path d="M10.740366,21.733746 C10.2008982,21.733746 9.76448365,21.2919582 9.76448365,20.7458484 L9.76448365,16.7942583 C9.76448365,16.2481485 10.2008982,15.8063607 10.740366,15.8063607 C11.2798338,15.8063607 11.7162484,16.2481485 11.7162484,16.7942583 L11.7162484,20.7458484 C11.7162484,21.2919582 11.2798338,21.733746 10.740366,21.733746 Z" id="Shape"></path>
                            <path d="M44.0690905,17.7821558 L28.2929764,17.7821558 C26.6862836,17.7821558 25.3805531,16.5607193 25.3805531,15.0597077 L25.3805531,2.93563634 C25.3805531,1.37179453 26.7415186,0 28.2929764,0 L44.0690905,0 C45.5768287,0 46.8499648,1.34492372 46.8499648,2.93563634 L46.8499648,15.0595102 C46.8499648,16.5858119 45.6281601,17.7821558 44.0690905,17.7821558 Z M28.2929764,1.97579509 C27.8354827,1.97579509 27.3323178,2.47843736 27.3323178,2.93563634 L27.3323178,15.0595102 C27.3323178,15.4995197 27.8393862,15.8061631 28.2929764,15.8061631 L44.0690905,15.8061631 C44.4693974,15.8061631 44.8982001,15.5726241 44.8982001,15.0595102 L44.8982001,2.93563634 C44.8982001,2.44267547 44.4961366,1.97579509 44.0690905,1.97579509 L28.2929764,1.97579509 Z" id="Shape"></path>
                            <path d="M45.8740825,13.8305656 L26.3564354,13.8305656 C25.8169676,13.8305656 25.3805531,13.3887778 25.3805531,12.8426681 C25.3805531,12.2965583 25.8169676,11.8547705 26.3564354,11.8547705 L45.8740825,11.8547705 C46.4135502,11.8547705 46.8499648,12.2965583 46.8499648,12.8426681 C46.8499648,13.3887778 46.4135502,13.8305656 45.8740825,13.8305656 Z" id="Shape"></path>
                            <path d="M38.0802956,21.733746 L34.2911396,21.733746 C33.7516719,21.733746 33.3152573,21.2919582 33.3152573,20.7458484 C33.3152573,20.1997387 33.7516719,19.7579509 34.2911396,19.7579509 L38.0802956,19.7579509 C38.6197634,19.7579509 39.056178,20.1997387 39.056178,20.7458484 C39.056178,21.2919582 38.6197634,21.733746 38.0802956,21.733746 Z" id="Shape"></path>
                            <path d="M36.1152589,21.733746 C35.5757912,21.733746 35.1393766,21.2919582 35.1393766,20.7458484 L35.1393766,16.7942583 C35.1393766,16.2481485 35.5757912,15.8063607 36.1152589,15.8063607 C36.6547267,15.8063607 37.0911413,16.2481485 37.0911413,16.7942583 L37.0911413,20.7458484 C37.0911413,21.2919582 36.6547267,21.733746 36.1152589,21.733746 Z" id="Shape"></path>
                        </g>
                        <rect id="Rectangle-path" x="4.94117647" y="0" width="42.6917647" height="43.2173913"></rect>
                    </g>
                    <path d="M54.9705882,37.9695652 L83.3823529,37.9695652" id="Line" stroke="#D2DBE6" stroke-width="1.5" stroke-linecap="round"></path>
                    <path d="M0.617647059,37.9695652 L9.26470588,37.9695652" id="Line-Copy" stroke="#D2DBE6" stroke-width="1.5" stroke-linecap="round"></path>
                </g>
            </g>
        </g>
    </g>
</svg>