<?xml version="1.0" encoding="UTF-8"?>
<svg width="16px" height="18px" viewBox="0 0 16 18" version="1.1" xmlns="http://www.w3.org/2000/svg" xmlns:xlink="http://www.w3.org/1999/xlink">
    <!-- Generator: Sketch 45.2 (43514) - http://www.bohemiancoding.com/sketch -->
    <title>security</title>
    <desc>Created with Sketch.</desc>
    <defs></defs>
    <g id="Page-3" stroke="none" stroke-width="1" fill="none" fill-rule="evenodd">
        <g id="006_01_购物车" transform="translate(-699.000000, -28.000000)">
            <g id="Group">
                <g id="security" transform="translate(699.000000, 28.000000)">
                    <circle id="Oval" fill="#93FCD3" cx="7.5" cy="9.5" r="4.5"></circle>
                    <path d="M8.04764981,17.6438356 L7.90068175,17.6438356 C3.52838178,17.6438356 0.00114819376,14.1150685 0.00114819376,9.74086757 L0.00114819376,2.05844749 C0.00114819376,1.83789955 0.148116254,1.69086759 0.368568353,1.69086759 L2.20566918,1.69086759 C3.71209187,1.69086759 5.21851453,1.32328769 6.57796915,0.661643853 L7.82719771,0.0367580024 C7.93742376,1.72303083e-08 8.04764981,1.72303083e-08 8.15787586,0.0367580024 L9.40710441,0.661643853 C10.766559,1.32328769 12.2729817,1.69086759 13.7794044,1.69086759 L15.6165052,1.69086759 C15.8369573,1.69086759 15.9839254,1.83789955 15.9839254,2.05844749 C15.9839254,2.27899544 15.8369573,2.4260274 15.6165052,2.4260274 L13.7794044,2.4260274 C12.1627557,2.4260274 10.5461069,2.05844749 9.07642626,1.32328767 L7.97416577,0.771917808 L6.90864729,1.32328767 C5.43896663,2.05844749 3.8223179,2.4260274 2.20566917,2.4260274 L0.735988512,2.4260274 L0.735988512,9.74086757 C0.735988512,13.7107306 3.93254395,16.9086758 7.90068173,16.9086758 L8.04764979,16.9086758 C11.9790456,16.9086758 15.212343,13.7107306 15.212343,9.74086757 L15.212343,4.59474885 L8.23135988,11.3214612 C8.08439182,11.4684931 7.86393972,11.4684931 7.71697164,11.3214612 L4.2632221,7.86621004 C4.11625404,7.71917808 4.11625404,7.49863014 4.2632221,7.35159816 C4.41019016,7.20456619 4.63064226,7.2045662 4.77761033,7.35159816 L7.97416577,10.5495434 L15.3225691,3.49200914 C15.4327951,3.38173517 15.5797632,3.34497718 15.7267313,3.41849315 C15.8736993,3.49200914 15.9471834,3.60228311 15.9471834,3.74931507 L15.9471834,9.74086757 C15.9471833,14.1150685 12.4199498,17.6438356 8.04764981,17.6438356 Z" id="Shape" fill="#000000" fill-rule="nonzero"></path>
                </g>
            </g>
        </g>
    </g>
</svg>