<?xml version="1.0" encoding="UTF-8"?>
<svg width="16px" height="16px" viewBox="0 0 16 16" version="1.1" xmlns="http://www.w3.org/2000/svg" xmlns:xlink="http://www.w3.org/1999/xlink">
    <!-- Generator: Sketch 45.2 (43514) - http://www.bohemiancoding.com/sketch -->
    <title>store</title>
    <desc>Created with Sketch.</desc>
    <defs></defs>
    <g id="Page-3" stroke="none" stroke-width="1" fill="none" fill-rule="evenodd">
        <g id="006_01_购物车" transform="translate(-842.000000, -29.000000)">
            <g id="Group">
                <g id="store" transform="translate(842.000000, 29.000000)">
                    <rect id="Rectangle-5" fill="#C6E0FF" x="1" y="0" width="15" height="4"></rect>
                    <path d="M15.9976217,1.90263843 C15.9595689,0.837160919 15.0843553,-1.42108547e-14 14.0188778,-1.42108547e-14 L13.980825,-1.42108547e-14 L13.9427722,-1.42108547e-14 L0.395986622,-1.39573724e-14 C0.319881079,-1.39573724e-14 0.205722774,0.0380527625 0.129617249,0.114158305 C0.0915644682,0.190263848 0.0154589431,0.266369373 0.0154589431,0.380527679 L0.0154589431,13.965366 L0.0154589431,13.965366 C0.0535117057,15.0688963 0.928725387,15.9821628 2.03225566,15.9821628 L2.07030842,15.9821628 L2.10836119,15.9821628 L8.57733184,15.9821628 C9.03396506,15.9821628 9.1100706,15.7918989 9.1100706,15.6016351 L9.1100706,8.75213676 L12.1923448,8.75213676 L12.1923448,15.5635823 C12.1923448,15.6777406 12.2684504,15.7918989 12.3445559,15.8680045 C12.4206615,15.94411 12.496767,15.9821628 12.6109253,15.9821628 L15.617094,15.9821628 C15.8073578,15.9821628 15.9976217,15.8299517 15.9976217,15.6016351 L15.9976217,15.6016351 L15.9976217,15.5635823 L15.9976217,1.94069119 C15.9976217,1.94069119 15.9976217,1.94069119 15.9976217,1.90263843 Z M15.2365663,1.97874396 C15.2365663,2.01679674 15.2746191,2.01679674 15.2365663,1.97874396 L15.2365663,4.37606837 C15.2365663,5.17517651 14.5135637,5.70791527 13.7144556,5.70791527 C12.9153475,5.70791527 12.2303976,5.17517651 12.2303976,4.41412115 C12.2303976,4.41412115 12.2303976,4.41412115 12.2303976,4.37606839 L12.2303976,4.37606839 L12.2303976,0.761055376 L11.4693423,0.761055376 L11.4693423,4.37606839 L11.4693423,4.37606839 C11.4693423,4.37606839 11.4693423,4.37606839 11.4693423,4.41412115 C11.4312895,5.21322929 10.7082869,5.70791527 9.90917874,5.70791527 C9.1100706,5.70791527 8.42512077,5.17517651 8.42512077,4.41412115 C8.42512077,4.41412115 8.42512077,4.41412115 8.42512077,4.37606839 L8.42512077,4.37606839 L8.42512077,0.761055376 L7.66406539,0.761055376 L7.66406539,4.37606839 L7.66406539,4.37606839 C7.66406539,4.37606839 7.66406539,4.37606839 7.66406539,4.41412115 C7.62601263,5.21322929 6.90301002,5.70791527 6.10390188,5.70791527 C5.30479374,5.70791527 4.65789667,5.21322929 4.61984391,4.41412115 L4.61984392,0.761055376 L3.85878855,0.761055376 L3.85878855,4.41412115 C3.82073579,5.21322929 3.09773317,5.70791527 2.29862503,5.70791527 C1.46146413,5.70791527 0.814567064,5.17517651 0.814567064,4.37606837 L0.814567081,0.761055376 L13.9427722,0.761055376 L13.980825,0.761055376 L14.0569305,0.761055376 C14.6657748,0.761055376 15.2365663,1.3318469 15.2365663,1.97874396 Z M0.776514301,13.965366 L0.776514301,5.93623188 C1.19509476,6.2787068 1.72783353,6.46897065 2.29862505,6.46897065 C3.09773319,6.46897065 3.78268302,6.12649573 4.20126348,5.55570421 C4.61984394,6.12649573 5.30479377,6.46897065 6.10390191,6.46897065 C6.90301005,6.46897065 7.58795988,6.12649573 8.00654034,5.55570421 C8.4251208,6.12649573 9.11007064,6.46897065 9.90917877,6.46897065 C10.7082869,6.46897065 11.3932367,6.12649573 11.8118172,5.55570421 C12.2303977,6.12649573 12.9153475,6.46897065 13.7144556,6.46897065 C14.3232999,6.46897065 14.8560387,6.2787068 15.2746191,5.93623188 L15.2746191,15.2211074 L12.991453,15.2211074 L12.991453,8.37160906 C12.991453,8.14329245 12.8392419,7.99108138 12.6109253,7.99108138 L8.80564846,7.99108138 C8.57733185,7.99108138 8.42512078,8.14329245 8.42512078,8.37160906 L8.42512078,8.37160906 L8.42512078,8.37160906 L8.42512077,15.2211074 L2.1083612,15.2211074 L2.07030844,15.2211074 L2.03225568,15.2211074 C1.38535861,15.2211074 0.776514301,14.6503159 0.776514301,13.965366 Z" id="Shape" fill="#000000" fill-rule="nonzero"></path>
                </g>
            </g>
        </g>
    </g>
</svg>