<?xml version="1.0" encoding="UTF-8"?>
<svg width="15px" height="10px" viewBox="0 0 15 10" version="1.1" xmlns="http://www.w3.org/2000/svg" xmlns:xlink="http://www.w3.org/1999/xlink">
    <!-- Generator: Sketch 45.2 (43514) - http://www.bohemiancoding.com/sketch -->
    <title>thin 0407 credit card</title>
    <desc>Created with Sketch.</desc>
    <defs></defs>
    <g id="Page-2" stroke="none" stroke-width="1" fill="none" fill-rule="evenodd">
        <g id="003_01_首次上传" transform="translate(-1360.000000, -312.000000)">
            <g id="Group-8-Copy-3" transform="translate(1339.000000, 295.000000)">
                <g id="thin-0407-credit-card" transform="translate(21.000000, 15.000000)">
                    <g id="Group" transform="translate(0.560000, 2.240000)" stroke="#000000" stroke-linecap="round" stroke-linejoin="round">
                        <path d="M7.535584,7.001064 L10.925488,7.001064" id="Shape"></path>
                        <path d="M13.179264,8.485288 C13.179264,8.893696 12.848416,9.224544 12.440064,9.224544 L0.98336,9.224544 C0.575064,9.224544 0.244216,8.893696 0.244216,8.485288 L0.244216,1.020096 C0.244216,0.611856 0.575064,0.28084 0.98336,0.28084 L12.44012,0.28084 C12.848416,0.28084 13.17932,0.611912 13.17932,1.020096 L13.17932,8.485288 L13.179264,8.485288 Z" id="Shape"></path>
                        <rect id="Rectangle-path" x="0.24416" y="1.971984" width="12.935104" height="2.219112"></rect>
                    </g>
                    <rect id="Rectangle-path" x="0.552384" y="0.001736" width="13.44" height="13.44"></rect>
                    <rect id="Rectangle-path" x="0.552384" y="0" width="13.44" height="13.44"></rect>
                </g>
            </g>
        </g>
    </g>
</svg>