<?xml version="1.0" encoding="UTF-8"?>
<svg width="14px" height="12px" viewBox="0 0 14 12" version="1.1" xmlns="http://www.w3.org/2000/svg" xmlns:xlink="http://www.w3.org/1999/xlink">
    <!-- Generator: Sketch 45.2 (43514) - http://www.bohemiancoding.com/sketch -->
    <title>heart</title>
    <desc>Created with Sketch.</desc>
    <defs></defs>
    <g id="Page-2" stroke="none" stroke-width="1" fill="none" fill-rule="evenodd">
        <g id="003_01_首次上传" transform="translate(-1361.000000, -271.000000)" fill-rule="nonzero" fill="#000000">
            <g id="Group-8-Copy-2" transform="translate(1339.000000, 255.000000)">
                <g id="heart" transform="translate(22.000000, 16.000000)">
                    <path d="M12.8293333,1.10562963 C11.4407407,-0.282962963 9.18962963,-0.282962963 7.80133333,1.10562963 L6.96296296,1.9437037 L6.12474074,1.10592593 C4.73614815,-0.282666667 2.48503704,-0.282666667 1.09674074,1.10592593 C-0.291851852,2.49437037 -0.291851852,4.74548148 1.09674074,6.13407407 L1.93466667,6.9717037 L6.96296296,12 L11.9912593,6.9717037 L12.8291852,6.13407407 C14.2179259,4.74548148 14.2179259,2.49422222 12.8293333,1.10562963 Z M10.3151111,6.972 L6.96296296,10.3241481 L3.61081481,6.972 L1.93496296,5.29614815 C1.00933333,4.37051852 1.00933333,2.86962963 1.93496296,1.9437037 C2.86088889,1.01807407 4.36148148,1.01807407 5.28711111,1.9437037 L6.96296296,3.61985185 L8.63911111,1.9437037 C9.56474074,1.01807407 11.0656296,1.01807407 11.9912593,1.9437037 C12.9168889,2.86962963 12.9168889,4.37022222 11.9912593,5.29614815 L10.3151111,6.972 Z" id="Shape"></path>
                </g>
            </g>
        </g>
    </g>
</svg>