<?xml version="1.0" encoding="UTF-8"?>
<svg width="12px" height="14px" viewBox="0 0 12 14" version="1.1" xmlns="http://www.w3.org/2000/svg" xmlns:xlink="http://www.w3.org/1999/xlink">
    <!-- Generator: Sketch 45.2 (43514) - http://www.bohemiancoding.com/sketch -->
    <title>power</title>
    <desc>Created with Sketch.</desc>
    <defs></defs>
    <g id="Page-2" stroke="none" stroke-width="1" fill="none" fill-rule="evenodd">
        <g id="003_01_首次上传" transform="translate(-1362.000000, -370.000000)" fill-rule="nonzero" fill="#000000">
            <g id="power" transform="translate(1362.000000, 370.000000)">
                <path d="M6,13.2 C5.1903,13.2 4.40445,13.04115 3.66435,12.72825 C3.3087,12.5778 2.9658,12.39165 2.64495,12.1749 C2.3274,11.9604 2.02875,11.7141 1.7574,11.4426 C1.4859,11.17125 1.2396,10.8726 1.0251,10.55505 C0.80835,10.2342 0.62205,9.8913 0.4719,9.53565 C0.15885,8.79555 0,8.0097 0,7.2 C0,6.3903 0.15885,5.60445 0.4719,4.86435 C0.6222,4.5087 0.80835,4.1658 1.0251,3.84495 C1.2396,3.5274 1.4859,3.22875 1.7574,2.9574 C1.9917,2.7231 2.37165,2.7231 2.60595,2.9574 C2.84025,3.1917 2.84025,3.57165 2.60595,3.80595 C2.16495,4.2468 1.81875,4.76025 1.57695,5.33175 C1.3269,5.9232 1.2,6.5517 1.2,7.2 C1.2,7.84815 1.3269,8.4768 1.57695,9.06825 C1.81875,9.63975 2.16495,10.15305 2.60595,10.59405 C3.0468,11.03505 3.56025,11.38125 4.13175,11.62305 C4.7232,11.8731 5.35185,12 6,12 C6.64815,12 7.2768,11.8731 7.86825,11.62305 C8.43975,11.38125 8.95305,11.03505 9.39405,10.59405 C9.83505,10.1532 10.18125,9.63975 10.42305,9.06825 C10.6731,8.4768 10.8,7.84815 10.8,7.2 C10.8,6.5517 10.6731,5.9232 10.42305,5.33175 C10.18125,4.76025 9.83505,4.24695 9.39405,3.8058 C9.15975,3.5715 9.15975,3.19155 9.39405,2.9574 C9.62835,2.7231 10.0083,2.7231 10.2426,2.9574 C10.5141,3.22875 10.7604,3.5274 10.9749,3.84495 C11.19165,4.1658 11.3778,4.5087 11.5281,4.86435 C11.84115,5.60445 12,6.3903 12,7.2 C12,8.0097 11.84115,8.79555 11.5281,9.53565 C11.37765,9.8913 11.19165,10.2342 10.9749,10.55505 C10.7604,10.8726 10.5141,11.17125 10.2426,11.4426 C9.97125,11.7141 9.6726,11.9604 9.35505,12.1749 C9.0342,12.39165 8.6913,12.57795 8.33565,12.72825 C7.59555,13.04115 6.8097,13.2 6,13.2 Z M6.6,6.6 L6.6,0.6 C6.6,0.26865 6.33135,0 6,0 C5.66865,0 5.4,0.26865 5.4,0.6 L5.4,6.6 C5.4,6.93135 5.66865,7.2 6,7.2 C6.33135,7.2 6.6,6.93135 6.6,6.6 Z" id="Shape"></path>
            </g>
        </g>
    </g>
</svg>