<?xml version="1.0" encoding="UTF-8"?>
<svg width="16px" height="16px" viewBox="0 0 16 16" version="1.1" xmlns="http://www.w3.org/2000/svg" xmlns:xlink="http://www.w3.org/1999/xlink">
    <!-- Generator: Sketch 45.2 (43514) - http://www.bohemiancoding.com/sketch -->
    <title>save</title>
    <desc>Created with Sketch.</desc>
    <defs></defs>
    <g id="Page-3" stroke="none" stroke-width="1" fill="none" fill-rule="evenodd">
        <g id="006_01_购物车" transform="translate(-575.000000, -29.000000)" fill-rule="nonzero" fill="#000000">
            <g id="Group">
                <g id="save" transform="translate(575.000000, 29.000000)">
                    <path d="M10.4,5.2 L10.4,2 C10.4,1.77908609 10.2209139,1.6 10,1.6 C9.77908609,1.6 9.6,1.77908609 9.6,2 L9.6,5.2 C9.6,5.42091391 9.77908609,5.6 10,5.6 C10.2209139,5.6 10.4,5.42091391 10.4,5.2 L10.4,5.2 Z M10,0.8 L12.8,0.8 L12.4,0.4 L12.4,6.00208664 C12.4,6.66260467 11.8609835,7.2 11.1988734,7.2 L4.40112659,7.2 C3.73807367,7.2 3.2,6.66270997 3.2,6.00208664 L3.2,0.4 C3.2,0.179086094 3.02091391,0 2.8,0 C2.57908609,0 2.4,0.179086094 2.4,0.4 L2.4,6.00208664 C2.4,7.10479897 3.29650664,8 4.40112659,8 L11.1988734,8 C12.3022728,8 13.2,7.10497277 13.2,6.00208664 L13.2,0.4 L13.2,0 L12.8,0 L10,0 C9.77908609,0 9.6,0.179086094 9.6,0.4 C9.6,0.620913906 9.77908609,0.8 10,0.8 L10,0.8 Z" id="Shape"></path>
                    <path d="M13.2,15.2 L2.00126769,15.2 C1.33662745,15.2 0.8,14.665247 0.8,14.0025602 L0.8,1.57361037 L0.8,0.4 L0.4,0.8 L1.6,0.8 L14.0036463,0.8 C14.6653152,0.8 15.2,1.33459508 15.2,1.99793752 L15.2,15.6 C15.2,15.8209139 15.3790861,16 15.6,16 C15.8209139,16 16,15.8209139 16,15.6 L16,1.99793752 C16,0.892737219 15.107113,0 14.0036463,0 L1.6,0 L0.4,0 L0,0 L0,0.4 L0,1.57361037 L0,14.0025602 C0,15.1077026 0.895425062,16 2.00126769,16 L13.2,16 C13.4209139,16 13.6,15.8209139 13.6,15.6 C13.6,15.3790861 13.4209139,15.2 13.2,15.2 L13.2,15.2 Z" id="Shape"></path>
                </g>
            </g>
        </g>
    </g>
</svg>