<?xml version="1.0" encoding="UTF-8"?>
<svg width="17px" height="16px" viewBox="0 0 17 16" version="1.1" xmlns="http://www.w3.org/2000/svg" xmlns:xlink="http://www.w3.org/1999/xlink">
    <!-- Generator: Sketch 45.2 (43514) - http://www.bohemiancoding.com/sketch -->
    <title>cart</title>
    <desc>Created with Sketch.</desc>
    <defs></defs>
    <g id="Page-3" stroke="none" stroke-width="1" fill="none" fill-rule="evenodd">
        <g id="006_01_购物车" transform="translate(-1309.000000, -28.000000)" fill-rule="nonzero" fill="#000000">
            <g id="Group">
                <g id="cart" transform="translate(1309.000000, 28.000000)">
                    <path d="M3.51487783,10.9196743 C3.71946754,11.5290758 4.36879597,11.9978923 5.00801994,11.9978923 L13.9474421,11.9978923 L14.2599921,11.9978923 L14.3468992,11.6941801 L16.4022138,4.51151587 C16.6070343,3.79573399 16.1374687,3.16344702 15.402581,3.16344702 L6.66995077,3.16344702 C6.4402795,3.16344702 6.25409413,3.35179539 6.25409413,3.58413489 C6.25409413,3.8164744 6.4402795,4.00482277 6.66995077,4.00482277 L15.402581,4.00482277 C15.5836122,4.00482277 15.6541613,4.09981962 15.6032997,4.27756454 L13.5479851,11.4602287 L13.9474421,11.1565165 L5.00801994,11.1565165 C4.72445166,11.1565165 4.39223541,10.9166557 4.30241185,10.6491026 L0.825868044,0.293690048 C0.75200981,0.0736920543 0.51584037,-0.044082023 0.298368854,0.0306342821 C0.0808973537,0.105350571 -0.0355241968,0.344263707 0.0383340537,0.564261701 L3.51487783,10.9196743 Z" id="Shape"></path>
                    <path d="M6.25409413,14.3116756 C6.25409413,13.3823176 5.50935268,12.6289241 4.59066754,12.6289241 C3.67198239,12.6289241 2.92724094,13.3823176 2.92724094,14.3116756 C2.92724094,15.2410335 3.67198239,15.994427 4.59066754,15.994427 C5.50935268,15.994427 6.25409413,15.2410335 6.25409413,14.3116756 Z M3.75895425,14.3116756 C3.75895425,13.8469966 4.13132498,13.4702998 4.59066754,13.4702998 C5.05001009,13.4702998 5.42238084,13.8469966 5.42238084,14.3116756 C5.42238084,14.7763545 5.05001009,15.1530513 4.59066754,15.1530513 C4.13132498,15.1530513 3.75895425,14.7763545 3.75895425,14.3116756 Z" id="Shape"></path>
                    <path d="M14.9870838,14.3116756 C14.9870838,13.3823176 14.2423423,12.6289241 13.3236571,12.6289241 C12.404972,12.6289241 11.6602306,13.3823176 11.6602306,14.3116756 C11.6602306,15.2410335 12.404972,15.994427 13.3236571,15.994427 C14.2423423,15.994427 14.9870838,15.2410335 14.9870838,14.3116756 Z M12.4919439,14.3116756 C12.4919439,13.8469966 12.8643146,13.4702998 13.3236571,13.4702998 C13.7829997,13.4702998 14.1553705,13.8469966 14.1553705,14.3116756 C14.1553705,14.7763545 13.7829997,15.1530513 13.3236571,15.1530513 C12.8643146,15.1530513 12.4919439,14.7763545 12.4919439,14.3116756 Z" id="Shape"></path>
                </g>
            </g>
        </g>
    </g>
</svg>