<?xml version="1.0" encoding="UTF-8"?>
<svg width="13px" height="12px" viewBox="0 0 13 12" version="1.1" xmlns="http://www.w3.org/2000/svg" xmlns:xlink="http://www.w3.org/1999/xlink">
    <!-- Generator: Sketch 45.2 (43514) - http://www.bohemiancoding.com/sketch -->
    <title>head</title>
    <desc>Created with Sketch.</desc>
    <defs></defs>
    <g id="Page-2" stroke="none" stroke-width="1" fill="none" fill-rule="evenodd">
        <g id="003_01_首次上传" transform="translate(-1361.000000, -190.000000)" fill-rule="nonzero" fill="#000000">
            <g id="Group-8" transform="translate(1339.000000, 175.000000)">
                <g id="head" transform="translate(22.000000, 15.000000)">
                    <path d="M8.43534783,6.94643478 C9.02452174,6.37734783 9.39130435,5.57934783 9.39130435,4.69565217 L9.39130435,3.13043478 C9.39130435,1.40152174 7.98978261,0 6.26086957,0 C4.53195652,0 3.13043478,1.40152174 3.13043478,3.13043478 L3.13043478,4.69565217 C3.13043478,5.57908696 3.49721739,6.37682609 4.086,6.94604348 C1.70047826,7.31765217 0,8.28104348 0,9.40356522 L0,10.4347826 C0,11.2995652 0.700434783,12 1.56521739,12 L10.9565217,12 C11.8213043,12 12.5217391,11.2995652 12.5217391,10.4347826 L12.5217391,9.4076087 C12.5217391,8.28521739 10.8211304,7.31882609 8.43534783,6.94643478 Z M4.17391304,4.69565217 L4.17391304,3.13043478 C4.17391304,1.97791304 5.10834783,1.04347826 6.26086957,1.04347826 C7.41352174,1.04347826 8.34782609,1.97791304 8.34782609,3.13043478 L8.34782609,4.69565217 C8.34782609,5.84817391 7.41352174,6.7826087 6.26086957,6.7826087 C5.10834783,6.7826087 4.17391304,5.84817391 4.17391304,4.69565217 Z M11.4782609,10.4347826 C11.4782609,10.7225217 11.2442609,10.9565217 10.9565217,10.9565217 L1.56521739,10.9565217 C1.27747826,10.9565217 1.04347826,10.7225217 1.04347826,10.4347826 L1.04347826,9.40356522 C1.04347826,9.282 1.34413043,8.88952174 2.23721739,8.51504348 C3.28121739,8.07717391 4.74782609,7.82608696 6.26086957,7.82608696 C7.77313043,7.82608696 9.23934783,8.07782609 10.2837391,8.5166087 C11.1773478,8.89226087 11.4782609,9.28552174 11.4782609,9.4076087 L11.4782609,10.4347826 Z" id="Shape"></path>
                </g>
            </g>
        </g>
    </g>
</svg>