<?xml version="1.0" encoding="UTF-8"?>
<svg width="17px" height="17px" viewBox="0 0 17 17" version="1.1" xmlns="http://www.w3.org/2000/svg" xmlns:xlink="http://www.w3.org/1999/xlink">
    <!-- Generator: Sketch 45.2 (43514) - http://www.bohemiancoding.com/sketch -->
    <title>remind</title>
    <desc>Created with Sketch.</desc>
    <defs></defs>
    <g id="Page-3" stroke="none" stroke-width="1" fill="none" fill-rule="evenodd">
        <g id="006_01_购物车" transform="translate(-1430.000000, -28.000000)">
            <g id="Group">
                <g id="remind" transform="translate(1430.000000, 28.000000)">
                    <path d="M8.42591529,16.4009751 C8.39186054,16.4009751 8.35745884,16.3999288 8.32201422,16.3982015 C7.06443684,16.3349521 6.55709703,15.2703191 6.46466413,14.7164477 C6.43338966,14.5270936 6.56126716,14.3481318 6.75030376,14.316525 C6.93794987,14.2831623 7.11725646,14.4117253 7.14992003,14.6000544 C7.15791266,14.6431429 7.34868669,15.6532272 8.35745884,15.7039558 C9.34781372,15.766854 9.58966927,14.6393157 9.59905166,14.591712 C9.63588606,14.4033899 9.81970969,14.2793423 10.0073558,14.3186035 C10.1956972,14.3557863 10.3180147,14.5388978 10.2804851,14.7268758 C10.1637274,15.3165325 9.62685127,16.4009751 8.42591529,16.4009751 L8.42591529,16.4009751 L8.42591529,16.4009751 Z M0.709242244,13.1800298 C0.71028513,13.1800298 0.712022573,13.2071214 0.730787046,13.2269312 C0.764146196,13.2616843 0.862834277,13.2992111 1.03970818,13.2992111 L15.035686,13.2992111 C15.2097803,13.2992111 15.2831015,13.2627235 15.2956111,13.250217 L15.2803218,13.2005277 L15.2806688,12.5000322 L15.3004758,12.4590366 C15.3032561,12.3836246 15.2709394,11.9211549 14.2364521,10.9600647 C12.7547418,9.58375007 11.8373604,6.09240342 11.8373604,3.64658227 C11.8373604,1.67922778 8.62652452,1.39013671 8.59386023,1.38770707 L7.37033693,1.38874631 C7.36616683,1.39013671 4.15498397,1.67922778 4.15498397,3.64658227 C4.15498397,5.79010344 3.43671545,9.47637296 1.83894212,10.9600647 C0.778740906,11.9447847 0.708547719,12.4235882 0.704377571,12.5000322 L0.712369908,12.5229669 L0.708547719,13.1817643 C0.708894974,13.180725 0.708894974,13.1800298 0.709242244,13.1800298 L0.709242244,13.1800298 Z M1.03970818,13.9941377 C0.665458132,13.9941377 0.383641699,13.8878142 0.202597675,13.6786431 C0.0441409699,13.4951804 0.00383172745,13.2668948 0.0173835351,13.1133044 L0.0173835351,12.6164327 C-0.0250103567,12.3565331 0.0493532665,11.6741058 1.36600434,10.4510233 C2.65937358,9.24948491 3.45999732,5.98364307 3.45999732,3.64658227 C3.45999732,1.04024018 7.18373302,0.707709477 7.34218971,0.694858912 L7.48734753,0.694740267 L7.48734753,0.289021933 C7.48734753,0.1372251 7.61028366,0.0141694547 7.76212596,0.0141694547 L8.11714185,0.0141694547 C8.2688978,0.0141694547 8.39192027,0.137281801 8.39192027,0.288968165 L8.39192027,0.694000877 L8.62235437,0.69381253 C8.80930596,0.707709477 12.5323464,1.04024018 12.5323464,3.64658227 C12.5323464,5.95619319 13.4073342,9.24149363 14.7093902,10.4510233 C16.0138796,11.6626385 16.0479337,12.3554867 15.9756554,12.6355473 L15.9756554,13.0910721 C16.0072768,13.2512562 15.9916399,13.476761 15.8533371,13.664395 C15.6914063,13.8829549 15.4161912,13.9941377 15.035686,13.9941377 L1.03970818,13.9941377 Z" id="Shape" fill="#000000" fill-rule="nonzero"></path>
                    <circle id="Oval-3" stroke="#12CE83" fill="#30E79E" cx="12.5" cy="4.5" r="3.5"></circle>
                </g>
            </g>
        </g>
    </g>
</svg>