<?xml version="1.0" encoding="UTF-8"?>
<svg width="12px" height="15px" viewBox="0 0 12 15" version="1.1" xmlns="http://www.w3.org/2000/svg" xmlns:xlink="http://www.w3.org/1999/xlink">
    <!-- Generator: Sketch 45.2 (43514) - http://www.bohemiancoding.com/sketch -->
    <title>Shape</title>
    <desc>Created with Sketch.</desc>
    <defs></defs>
    <g id="Page-2" stroke="none" stroke-width="1" fill="none" fill-rule="evenodd">
        <g id="003_01_首次上传" transform="translate(-1361.000000, -229.000000)" fill-rule="nonzero" fill="#000000">
            <g id="Group-8-Copy" transform="translate(1339.000000, 215.000000)">
                <g id="paper" transform="translate(22.000000, 14.000000)">
                    <path d="M10.2,0 L1.8,0 C0.8055,0 0,0.8055 0,1.8 L0,12.6 C0,13.5945 0.8055,14.4 1.8,14.4 L10.2,14.4 C11.1945,14.4 12,13.5945 12,12.6 L12,1.8 C12,0.8055 11.1945,0 10.2,0 Z M10.8,12.6 C10.8,12.9315 10.5315,13.2 10.2,13.2 L1.8,13.2 C1.4685,13.2 1.2,12.9315 1.2,12.6 L1.2,1.8 C1.2,1.4685 1.4685,1.2 1.8,1.2 L10.2,1.2 C10.5315,1.2 10.8,1.4685 10.8,1.8 L10.8,12.6 Z M8.4,10.2 L3.6,10.2 C3.26865,10.2 3,10.46865 3,10.8 C3,11.13135 3.26865,11.4 3.6,11.4 L8.4,11.4 C8.73135,11.4 9,11.13135 9,10.8 C9,10.46865 8.73135,10.2 8.4,10.2 Z M8.4,7.8 L3.6,7.8 C3.26865,7.8 3,8.06865 3,8.4 C3,8.73135 3.26865,9 3.6,9 L8.4,9 C8.73135,9 9,8.73135 9,8.4 C9,8.06865 8.73135,7.8 8.4,7.8 Z M8.4,5.4 L3.6,5.4 C3.26865,5.4 3,5.66865 3,6 C3,6.33135 3.26865,6.6 3.6,6.6 L8.4,6.6 C8.73135,6.6 9,6.33135 9,6 C9,5.66865 8.73135,5.4 8.4,5.4 Z M3.6,4.2 L6,4.2 C6.33135,4.2 6.6,3.93135 6.6,3.6 C6.6,3.26865 6.33135,3 6,3 L3.6,3 C3.26865,3 3,3.26865 3,3.6 C3,3.93135 3.26865,4.2 3.6,4.2 Z" id="Shape"></path>
                </g>
            </g>
        </g>
    </g>
</svg>