<?xml version="1.0" encoding="UTF-8"?>
<svg width="24px" height="24px" viewBox="0 0 24 24" version="1.1" xmlns="http://www.w3.org/2000/svg" xmlns:xlink="http://www.w3.org/1999/xlink">
    <!-- Generator: Sketch 43.1 (39012) - http://www.bohemiancoding.com/sketch -->
    <title>thin 0033 search find zoom</title>
    <desc>Created with Sketch.</desc>
    <defs></defs>
    <g id="Page-2" stroke="none" stroke-width="1" fill="none" fill-rule="evenodd">
        <g id="001_03_查询区块地址" transform="translate(-310.000000, -34.000000)">
            <g id="thin-0033-search-find-zoom" transform="translate(310.000000, 34.000000)">
                <g id="Group" fill-rule="nonzero" fill="#D2DBE6">
                    <path d="M22.0625,23.6963 C21.6104,23.6963 21.1846,23.5205 20.8643,23.2002 L14.4483,16.7842 L15.1553,16.0772 L21.5713,22.4932 C21.7031,22.6241 21.877,22.6963 22.0625,22.6963 L22.0635,22.6963 C22.249,22.6963 22.4229,22.624 22.5537,22.4932 C22.8252,22.2217 22.8252,21.7813 22.5537,21.5098 L16.1377,15.0938 L16.8447,14.3868 L23.2607,20.8028 C23.9218,21.4639 23.9218,22.5391 23.2607,23.2003 C22.9414,23.5206 22.5166,23.6964 22.0634,23.6964 C22.0635,23.6963 22.0635,23.6963 22.0625,23.6963 Z" id="Shape"></path>
                    <path d="M9.5347,18.6992 C4.4478,18.6992 0.3091,14.5605 0.3091,9.4736 C0.3091,4.3867 4.4478,0.248 9.5347,0.248 C14.6211,0.248 18.7598,4.3867 18.7598,9.4736 C18.7598,14.5605 14.6211,18.6992 9.5347,18.6992 Z M9.5347,1.248 C4.9991,1.248 1.3091,4.9379 1.3091,9.4736 C1.3091,14.0088 4.999,17.6992 9.5347,17.6992 C14.0704,17.6992 17.7598,14.0088 17.7598,9.4736 C17.7598,4.938 14.0703,1.248 9.5347,1.248 Z" id="Shape"></path>
                    <path d="M3.6021,10.4683 C3.334,10.4683 3.1119,10.2554 3.1031,9.9849 C3.0396,8.0796 3.7437,6.2915 5.085,4.9502 C6.4258,3.6099 8.2144,2.8975 10.1192,2.9683 C10.3951,2.9771 10.6114,3.208 10.6021,3.4844 C10.5933,3.7608 10.3633,4.0064 10.086,3.9673 C8.4624,3.9082 6.9351,4.5137 5.792,5.6572 C4.6484,6.8008 4.0483,8.3257 4.1021,9.9517 C4.1114,10.2276 3.8951,10.459 3.6192,10.4678 C3.6133,10.4683 3.6079,10.4683 3.6021,10.4683 Z" id="Shape"></path>
                </g>
                <rect id="Rectangle-path" x="0" y="0" width="24" height="24"></rect>
            </g>
        </g>
    </g>
</svg>