<?xml version="1.0" encoding="UTF-8"?>
<svg width="28px" height="30px" viewBox="0 0 28 30" version="1.1" xmlns="http://www.w3.org/2000/svg" xmlns:xlink="http://www.w3.org/1999/xlink">
    <!-- Generator: Sketch 45.2 (43514) - http://www.bohemiancoding.com/sketch -->
    <title>user-4</title>
    <desc>Created with Sketch.</desc>
    <defs></defs>
    <g id="Page-2" stroke="none" stroke-width="1" fill="none" fill-rule="evenodd">
        <g id="001_01_home" transform="translate(-604.000000, -627.000000)" fill-rule="nonzero">
            <g id="user-4" transform="translate(604.000000, 627.000000)">
                <path d="M26.2477039,20.4084709 L21.0029451,20.4084709 L21.0029451,15.1556325 C18.1064078,15.1556325 15.7581862,17.5074715 15.7581862,20.4084709 C15.7581862,23.3094703 18.1064078,25.6613092 21.0029451,25.6613092 C23.8994823,25.6613092 26.2477039,23.3094703 26.2477039,20.4084709 L26.2477039,20.4084709 Z" id="Shape" fill="#50E3C2"></path>
                <path d="M15.2635101,10.7742878 C15.8177857,10.296757 16.1455831,9.6043374 16.1455832,8.86416474 L16.1455832,4.48878913 C16.1455832,2.01756745 14.1370789,0 11.6636983,0 L10.7220257,0 C8.25460508,0 6.24014089,2.01159834 6.24014089,4.48878913 L6.24014089,8.86416474 C6.24014089,9.6043374 6.56197836,10.3027261 7.12221397,10.7742878 L7.12221397,14.5169351 C6.24014089,14.9586511 3.51644226,16.4031816 0.989422085,18.4864096 C0.375546898,18.993786 0.0239096667,19.7399278 0.0239096667,20.545761 L0.0239096667,23.5482356 C0.0239096667,23.8466923 0.268267744,24.0914269 0.566265398,24.0914269 C0.864263053,24.0914269 1.10862113,23.8466923 1.10862116,23.5482356 L1.10862116,20.545761 C1.10862116,20.0682302 1.31721951,19.6265143 1.68077666,19.3220884 C4.35083572,17.1254469 7.24737297,15.663009 7.79568869,15.3943979 C8.04600673,15.2690461 8.20692546,15.0123733 8.20692546,14.731824 L8.20692546,10.5116459 C8.20692546,10.3325718 8.11752615,10.1594669 7.96852731,10.0639608 C7.56921043,9.79534973 7.33081232,9.35363378 7.33081232,8.87013388 L7.33081232,4.48878913 C7.33081232,2.61448089 8.85656035,1.08638245 10.7279857,1.08638248 L11.6696583,1.08638248 C13.5410836,1.08638248 15.0668316,2.61448091 15.0668316,4.48878913 L15.0668316,8.86416474 C15.0668316,9.3416955 14.8284335,9.78938059 14.4291166,10.0579916 C14.2801178,10.1594669 14.1907185,10.3266027 14.1907185,10.5056767 L14.1907185,14.7258548 C14.1907185,15.0243115 14.4350766,15.269046 14.7330743,15.2690461 C15.0310719,15.2690461 15.27543,15.0243116 15.27543,14.7258548 L15.27543,10.7742878 L15.2635101,10.7742878 L15.2635101,10.7742878 Z" id="Shape" fill="#FFFFFF"></path>
                <path d="M12.6411307,15.4063362 C12.343133,15.4063362 12.0987749,15.6510707 12.0987749,15.9495274 C12.0987749,16.2121693 11.9855358,16.4509347 11.8007772,16.6180705 C11.7650175,16.641947 11.7292578,16.6658235 11.6994581,16.7016383 C11.5564192,16.8031136 11.3776206,16.8568358 11.192862,16.8568358 C10.6922259,16.8568358 10.2869491,16.4509347 10.2869491,15.9495274 C10.2869491,15.6510707 10.0425911,15.4063362 9.74459338,15.4063362 C9.4465957,15.4063362 9.20223765,15.6510707 9.20223765,15.9495274 C9.20223765,16.4270582 9.36911634,16.8687741 9.6551941,17.2090148 L9.2201175,27.3684817 C9.21415754,27.5296483 9.27971703,27.6848458 9.39891611,27.7922903 L10.7875852,29.0458085 C10.8889044,29.1413147 11.0200234,29.1830986 11.1511424,29.1830986 C11.2822613,29.1830986 11.4133803,29.1353455 11.5146995,29.0458085 L12.9272084,27.7684137 C13.0464075,27.6609693 13.111967,27.5057718 13.106007,27.3446052 L12.6530506,17.2985518 C12.986808,16.9404037 13.1894464,16.462873 13.1894464,15.9375891 C13.1834864,15.6451016 12.9391283,15.4063362 12.6411307,15.4063362 L12.6411307,15.4063362 Z M11.1451824,27.9176421 L10.304829,27.159562 L10.7041459,17.8715887 C10.8591046,17.9133726 11.0200234,17.9312801 11.1869021,17.9312801 C11.323981,17.9312801 11.4550999,17.9193418 11.580259,17.8894961 L11.9974557,27.1356855 L11.1451824,27.9176421 L11.1451824,27.9176421 Z M26.2477039,19.8652796 L21.5453008,19.8652796 L21.5453008,15.1556325 C21.5453008,14.8571758 21.3009427,14.6124413 21.0029451,14.6124413 C17.8143701,14.6124413 15.2217904,17.2090148 15.2217904,20.4025017 C15.2217904,23.5959887 17.8143701,26.1925622 21.0029451,26.1925622 C24.19152,26.1925622 26.7840997,23.5959887 26.7840997,20.4025017 C26.7840997,20.1100142 26.5457016,19.8652796 26.2477039,19.8652796 L26.2477039,19.8652796 Z M21.0029451,25.118118 C18.4103654,25.118118 16.3005419,23.0050444 16.3005419,20.4084709 C16.3005419,17.9969405 18.1242876,15.9972805 20.4605893,15.7286694 L20.4605893,20.4084709 C20.4605893,20.7069276 20.7049474,20.9516621 21.0029451,20.9516621 L25.6755484,20.9516621 C25.4073505,23.2915628 23.4107662,25.118118 21.0029451,25.118118 L21.0029451,25.118118 Z" id="Shape" fill="#FFFFFF"></path>
                <path d="M23.3213669,13.490244 C23.0233692,13.490244 22.7790111,13.7349785 22.7790111,14.0334352 L22.7790111,18.152138 C22.7790111,18.4505947 23.0233692,18.6953293 23.3213669,18.6953293 L27.4337346,18.6953293 C27.7317323,18.6953293 27.9760903,18.4505947 27.9760903,18.152138 C27.9760903,17.0120333 27.5648536,15.9196817 26.8079395,15.0660955 C25.9318264,14.0632809 24.6563964,13.490244 23.3213669,13.490244 L23.3213669,13.490244 Z M23.8637226,17.6149159 L23.8637226,14.6184104 C24.6861962,14.7437622 25.4431102,15.1556325 26.0033458,15.7883608 C26.4622622,16.3076755 26.7542999,16.9404037 26.8556191,17.6149159 L23.8637226,17.6149159 Z" id="Shape" fill="#FFFFFF"></path>
            </g>
        </g>
    </g>
</svg>