<?xml version="1.0" encoding="UTF-8"?>
<svg width="28px" height="28px" viewBox="0 0 28 28" version="1.1" xmlns="http://www.w3.org/2000/svg" xmlns:xlink="http://www.w3.org/1999/xlink">
    <!-- Generator: Sketch 45.2 (43514) - http://www.bohemiancoding.com/sketch -->
    <title>connection-1</title>
    <desc>Created with Sketch.</desc>
    <defs></defs>
    <g id="Page-2" stroke="none" stroke-width="1" fill="none" fill-rule="evenodd">
        <g id="001_01_home" transform="translate(-254.000000, -628.000000)" fill-rule="nonzero">
            <g id="connection-1" transform="translate(254.000000, 628.000000)">
                <path d="M0.514285707,21.612061 C0.51428568,22.913468 1.2004418,24.1160177 2.31428569,24.7667212 C3.42812958,25.4174247 4.80044185,25.4174247 5.91428573,24.7667212 C7.02812962,24.1160177 7.71428574,22.913468 7.71428571,21.612061 C7.71428573,20.310654 7.02812961,19.1081043 5.91428573,18.4574008 C4.80044184,17.8066973 3.42812958,17.8066973 2.31428569,18.4574008 C1.20044181,19.1081043 0.514285688,20.310654 0.514285707,21.612061 L0.514285707,21.612061 Z" id="Shape" fill="#469BFF"></path>
                <path d="M20.2857143,21.612061 C20.2857142,22.913468 20.9718704,24.1160177 22.0857143,24.7667212 C23.1995581,25.4174247 24.5718704,25.4174247 25.6857143,24.7667212 C26.7995582,24.1160177 27.4857143,22.913468 27.4857143,21.612061 C27.4857143,20.310654 26.7995582,19.1081043 25.6857143,18.4574008 C24.5718704,17.8066973 23.1995581,17.8066973 22.0857143,18.4574008 C20.9718704,19.1081043 20.2857142,20.310654 20.2857143,21.612061 L20.2857143,21.612061 Z" id="Shape" fill="#469BFF"></path>
                <path d="M10.2171429,4.17919819 C10.2171429,6.19099908 11.8289178,7.82188594 13.8171429,7.82188594 C15.805368,7.82188594 17.4171429,6.19099908 17.4171429,4.17919819 C17.4171429,2.16739729 15.805368,0.536510435 13.8171429,0.536510435 C11.8289178,0.536510435 10.2171429,2.16739729 10.2171429,4.17919819 L10.2171429,4.17919819 Z" id="Shape" fill="#469BFF"></path>
                <path d="M19.3885714,26.0873631 C19.2628571,25.8271711 18.9542857,25.7173123 18.6971428,25.8445172 C17.2171429,26.5672727 15.6228571,26.9373236 13.9657143,26.9373236 C11.4571428,26.9373236 9.03999999,26.0642349 7.10285715,24.4741728 C7.8,23.7282891 8.22857145,22.7222135 8.22857142,21.617843 C8.22857142,19.3223715 6.38285714,17.4547713 4.11428571,17.4547713 C1.84571428,17.4547713 0,19.3223715 0,21.617843 C0,23.9133145 1.84571428,25.7809147 4.11428571,25.7809147 C4.90857142,25.7809147 5.65714286,25.549633 6.28571429,25.1506719 C8.43428573,26.9835799 11.1428571,27.9838735 13.9657143,27.9838735 C15.7828571,27.9838735 17.5257143,27.5791305 19.1485714,26.7869904 C19.4057143,26.6597854 19.5142857,26.347555 19.3885714,26.0873631 L19.3885714,26.0873631 Z M1.03428571,21.612061 C1.03428571,19.8947939 2.41714285,18.4955393 4.11428571,18.4955393 C5.81142857,18.4955393 7.19428571,19.8947939 7.19428571,21.612061 C7.19428571,23.3293281 5.81142857,24.7285827 4.11428571,24.7285827 C2.41714285,24.7285827 1.03428571,23.3293281 1.03428571,21.612061 L1.03428571,21.612061 Z M2.06285715,15.3558893 C2.05142859,15.6449915 2.27428573,15.8878374 2.56571429,15.8994015 L2.58285716,15.8994015 C2.86285716,15.8994015 3.09142859,15.6739018 3.10285713,15.3905816 C3.22857142,11.638035 5.19999998,8.24397515 8.37142857,6.3069904 C8.86857141,6.0063241 9.38857142,5.74035008 9.91999999,5.52063242 C10.4742857,7.15695087 12.0114286,8.34226992 13.8114286,8.34226989 C16.08,8.34226989 17.9257143,6.47466967 17.9257143,4.17919819 C17.9257143,1.8837267 16.08,0.0161264783 13.8114286,0.0161264783 C11.5428571,0.0161264783 9.69714285,1.8837267 9.69714285,4.17919819 C9.69714285,4.28327499 9.70285714,4.38156974 9.70857144,4.47986448 C9.06285715,4.73427442 8.42857143,5.0465048 7.8342857,5.41077357 C4.35999998,7.5270017 2.19999998,11.244856 2.06285715,15.3558893 L2.06285715,15.3558893 Z M13.8171429,1.06267645 C15.5142857,1.06267645 16.8971429,2.4619311 16.8971429,4.17919819 C16.8971429,5.89646527 15.5142857,7.28993787 13.8171429,7.2899379 C12.12,7.28993792 10.7371429,5.89068325 10.7371429,4.17341616 C10.7371429,2.45614907 12.1142857,1.06267647 13.8171429,1.06267645 L13.8171429,1.06267645 Z M23.8857143,17.4489893 C21.6171429,17.4489893 19.7714286,19.3165895 19.7714286,21.612061 C19.7714286,23.9075325 21.6171429,25.7751327 23.8857143,25.7751327 C26.1542857,25.7751327 28,23.9075325 28,21.612061 C28,19.9988707 27.0857143,18.593834 25.7542857,17.9057707 C25.8685714,17.2234895 25.9314286,16.5296443 25.9314286,15.835799 C25.9314286,11.7305477 23.8971429,7.94330885 20.4914286,5.69987578 C20.2514286,5.54376059 19.9314286,5.61314511 19.7771428,5.85599097 C19.6228571,6.09883682 19.6914286,6.42263128 19.9314286,6.57874647 C23.0457143,8.62559008 24.9028571,12.0832524 24.9028571,15.835799 C24.9028571,16.4082213 24.8571428,16.9806437 24.7714286,17.547284 C24.4857143,17.4836815 24.1885714,17.4489893 23.8857143,17.4489893 L23.8857143,17.4489893 Z M26.9657143,21.612061 C26.9657143,23.3293281 25.5828572,24.7285827 23.8857143,24.7285827 C22.1885714,24.7285827 20.8057143,23.3293281 20.8057143,21.612061 C20.8057143,19.8947939 22.1885714,18.4955393 23.8857143,18.4955393 C25.5828572,18.4955393 26.9657143,19.8947939 26.9657143,21.612061 Z" id="Shape" fill="#FFFFFF"></path>
            </g>
        </g>
    </g>
</svg>