<?xml version="1.0" encoding="UTF-8"?>
<svg width="39px" height="32px" viewBox="0 0 39 32" version="1.1" xmlns="http://www.w3.org/2000/svg" xmlns:xlink="http://www.w3.org/1999/xlink">
    <!-- Generator: Sketch 45.2 (43514) - http://www.bohemiancoding.com/sketch -->
    <title>链路图示</title>
    <desc>Created with Sketch.</desc>
    <defs></defs>
    <g id="Page-2" stroke="none" stroke-width="1" fill="none" fill-rule="evenodd">
        <g id="001_01_home" transform="translate(-445.000000, -665.000000)" fill-rule="nonzero" fill="#FFFFFF">
            <g id="链路图示" transform="translate(445.000000, 665.000000)">
                <path d="M34.7866869,12.6351172 C34.0691919,12.6351172 33.3939798,12.8153025 32.8039899,13.1325559 L27.2788586,8.13946594 C27.6872862,7.36758583 27.918835,6.48841417 27.918835,5.55535695 C27.918835,2.48985286 25.4237542,0.0047520436 22.346037,0.0047520436 C19.2682761,0.0047520436 16.7732391,2.48985286 16.7732391,5.55535695 C16.7732391,7.50984196 17.7875455,9.22811989 19.3203199,10.2170245 L15.760202,20.8735041 C15.6331785,20.8647847 15.5058923,20.8603815 15.3786061,20.8602943 C14.2063737,20.8602943 13.1177441,21.2229755 12.2192121,21.8411335 L8.10486532,18.283248 C8.29189899,17.8107466 8.39458586,17.2959128 8.39458586,16.7572316 C8.39458586,14.4581144 6.5232862,12.5943106 4.2150202,12.5943106 C1.90671044,12.5943106 0.0354107744,14.458158 0.0354107744,16.7572316 C0.0354107744,19.0563924 1.90671044,20.9201962 4.2150202,20.9201962 C4.96516835,20.9201962 5.66900673,20.7232262 6.2776431,20.378594 L10.3915084,23.9360436 C10.0170471,24.6815913 9.80580808,25.5221362 9.80580808,26.4109428 C9.80580808,29.471564 12.3057037,31.9615477 15.3786061,31.9615477 C18.4515084,31.9615477 20.9514478,29.4715204 20.9514478,26.4108992 C20.9514478,24.4602071 19.9357845,22.7415368 18.4036229,21.7513678 L21.9644411,11.0927084 C22.0905455,11.1012098 22.2177003,11.1059183 22.3459933,11.1059183 C23.4762929,11.1059183 24.5277172,10.7704414 25.4060707,10.194485 L30.9313771,15.1877493 C30.722633,15.683139 30.6070774,16.227139 30.6070774,16.7980817 C30.6070774,19.0971989 32.4783771,20.9610027 34.7866431,20.9610027 C37.0949091,20.9610027 38.9662088,19.0971553 38.9662088,16.7980817 C38.9662088,14.4990082 37.0949966,12.6351172 34.7866869,12.6351172 L34.7866869,12.6351172 Z M15.3787374,29.1861798 C13.8422862,29.1861798 12.5923603,27.941188 12.5923603,26.4108992 C12.5923603,24.8806104 13.84233,23.6356185 15.3787374,23.6356185 C16.9151448,23.6356185 18.1651145,24.8806104 18.1651145,26.4108992 C18.1651145,27.941188 16.915101,29.1861798 15.3787374,29.1861798 Z" id="Shape"></path>
            </g>
        </g>
    </g>
</svg>