<?xml version="1.0" encoding="UTF-8"?>
<svg width="28px" height="32px" viewBox="0 0 28 32" version="1.1" xmlns="http://www.w3.org/2000/svg" xmlns:xlink="http://www.w3.org/1999/xlink">
    <!-- Generator: Sketch 45.2 (43514) - http://www.bohemiancoding.com/sketch -->
    <title>user-9</title>
    <desc>Created with Sketch.</desc>
    <defs></defs>
    <g id="Page-2" stroke="none" stroke-width="1" fill="none" fill-rule="evenodd">
        <g id="001_01_home" transform="translate(-455.000000, -626.000000)" fill-rule="nonzero">
            <g id="user-9" transform="translate(455.000000, 626.000000)">
                <path d="M11.5923012,2.99369076 C11.5923012,4.32342217 12.6716924,5.40138246 14.003189,5.40138246 C15.3346856,5.40138246 16.4140768,4.32342217 16.4140768,2.99369076 C16.4140768,1.66395934 15.3346856,0.585999049 14.003189,0.585999049 C12.6716924,0.585999049 11.5923012,1.66395934 11.5923012,2.99369076 L11.5923012,2.99369076 Z" id="Shape" fill="#F8E71C"></path>
                <path d="M22.5879906,21.8666816 C22.5879906,23.196413 23.6673818,24.2743733 24.9988784,24.2743733 C26.330375,24.2743733 27.4097663,23.196413 27.4097663,21.8666816 C27.4097663,20.5369502 26.330375,19.4589899 24.9988784,19.4589899 C23.6673818,19.4589899 22.5879906,20.5369502 22.5879906,21.8666816 Z" id="Shape" fill="#F8E71C"></path>
                <path d="M0.596611769,21.8666816 C0.596611769,23.196413 1.67600301,24.2743733 3.00749958,24.2743733 C4.33899615,24.2743733 5.41838739,23.196413 5.41838739,21.8666816 C5.41838739,20.5369502 4.33899615,19.4589899 3.00749958,19.4589899 C1.67600301,19.4589899 0.596611769,20.5369502 0.596611769,21.8666816 L0.596611769,21.8666816 Z" id="Shape" fill="#F8E71C"></path>
                <path d="M27.9901652,9.33139779 C27.9901652,7.68168309 26.650783,6.3440766 24.9988784,6.34407657 C24.099579,6.34407657 23.2959497,6.73898896 22.7474409,7.36957491 L16.8350255,3.94912396 C16.9370737,3.64975488 16.9944757,3.3249076 16.9944757,2.98732119 C16.9944757,1.33760649 15.6550936,0 14.003189,0 C12.3512844,0 11.0119023,1.33760652 11.0119023,2.98732119 C11.0119023,3.3249076 11.0693044,3.64338535 11.1713525,3.94275442 L5.25893715,7.36320534 C4.71042829,6.73898899 3.90679901,6.33770703 3.00749958,6.33770703 C1.35559496,6.33770703 0.016212854,7.67531355 0.016212854,9.32502822 C0.016212854,10.7518085 1.02393844,11.9492848 2.36332057,12.2422843 L2.36969859,18.943056 C1.02393847,19.2360555 0.00983486275,20.4335318 0.00983483224,21.8603121 C0.00983483224,23.5100268 1.34921697,24.8476332 3.00112159,24.8476333 C3.88128698,24.8476333 4.67216025,24.46546 5.22066908,23.8603523 L11.1522185,27.2808032 C11.0565483,27.5738027 11.0055243,27.8795413 11.0055243,28.2043887 C11.0055243,29.8541034 12.3449064,31.1917098 13.996811,31.1917098 C15.6487156,31.1917098 16.9880977,29.8541033 16.9880977,28.2043887 C16.9880977,27.8795414 16.9370737,27.5738027 16.8414035,27.2808032 L22.7729529,23.8603523 C23.3214618,24.46546 24.112335,24.8476333 24.9925004,24.8476333 C26.644405,24.8476333 27.9837871,23.5100268 27.9837871,21.8603121 C27.9837871,20.4144231 26.9441715,19.1978381 25.5728993,18.9303168 L25.5728993,12.2550234 C26.9505495,11.9938717 27.9901652,10.7836563 27.9901652,9.33139779 Z M24.9988784,7.49696599 C26.012982,7.49696599 26.8357453,8.31863858 26.8357453,9.33139779 C26.8357453,10.344157 26.012982,11.1658296 24.9988784,11.1658295 C23.9847748,11.1658295 23.1620115,10.344157 23.1620115,9.33139779 C23.1620116,8.31863861 23.9911528,7.49696599 24.9988784,7.49696599 Z M14.003189,1.15925896 C15.0172926,1.15925896 15.8400559,1.98093155 15.8400559,2.99369076 C15.8400559,3.30579893 15.7635198,3.59879847 15.6232036,3.85995021 C15.6104476,3.87268931 15.6040696,3.88542842 15.5913135,3.90453709 L15.5721795,3.94275442 C15.253279,4.47142747 14.6665021,4.82812255 14.003189,4.82812255 C12.9890854,4.82812255 12.1663221,4.00644997 12.1663221,2.99369076 C12.1663221,1.98093155 12.9890854,1.15925896 14.003189,1.15925896 L14.003189,1.15925896 Z M1.17063269,9.33139779 C1.17063269,8.31863858 1.99339601,7.49696599 3.00749958,7.49696599 C4.02160315,7.49696599 4.8443665,8.31863858 4.8443665,9.33139779 C4.8443665,10.344157 4.02160319,11.1658296 3.00749958,11.1658295 C1.99339598,11.1658295 1.17063266,10.344157 1.17063269,9.33139779 L1.17063269,9.33139779 Z M3.00749958,23.7011134 C1.99339598,23.7011134 1.17063266,22.8794408 1.17063269,21.8666816 C1.17063272,20.8539224 1.99339601,20.0322498 3.00749958,20.0322498 C4.02160315,20.0322498 4.8443665,20.8539224 4.8443665,21.8666816 C4.83798848,22.8794408 4.01522519,23.7011134 3.00749958,23.7011134 Z M14.003189,30.0388204 C12.9890854,30.0388204 12.1663221,29.2171478 12.1663221,28.2043887 C12.1663221,27.1916295 12.9890854,26.3699569 14.003189,26.3699569 C15.0172926,26.3699569 15.8400559,27.1916294 15.8400559,28.2043887 C15.8400559,29.2171479 15.0172926,30.0388204 14.003189,30.0388204 L14.003189,30.0388204 Z M16.2801386,26.2744135 C15.7316297,25.6310885 14.9152444,25.2170675 14.003189,25.2170674 C13.0911336,25.2170674 12.2747483,25.6247189 11.7262394,26.2744135 L5.82020203,22.8730713 C5.93500621,22.5609631 5.99878631,22.2170071 5.99878634,21.8666816 C5.99878634,20.3953145 4.93365865,19.1723599 3.53049642,18.9239473 L3.5241184,12.2677625 C4.92728063,12.0257195 5.99878631,10.7963954 5.99878634,9.32502822 C5.99878634,8.98744181 5.94138424,8.66259453 5.83933607,8.36322545 L11.7517514,4.94277453 C12.3002603,5.57336045 13.1102676,5.96827284 14.009567,5.96827284 C14.9088664,5.96827284 15.7124957,5.57336045 16.2610046,4.94277453 L22.1734199,8.36322545 C22.0713718,8.66259453 22.0139697,8.98744181 22.0139697,9.32502822 C22.0139697,10.7709172 23.0535854,11.9875021 24.4248575,12.2550234 L24.4248575,18.9303168 C23.0535853,19.1978381 22.0139697,20.4080536 22.0139697,21.8603121 C22.0139697,22.2170071 22.0777498,22.5545935 22.192554,22.8667017 L16.2801386,26.2744135 L16.2801386,26.2744135 Z M26.8357453,21.8666816 C26.8357453,22.8794408 26.012982,23.7011134 24.9988784,23.7011134 C23.9847748,23.7011134 23.1620115,22.8794408 23.1620115,21.8666816 C23.1620116,20.8539224 23.9847748,20.0322498 24.9988784,20.0322498 C26.012982,20.0322498 26.8357453,20.8539224 26.8357453,21.8666816 Z" id="Shape" fill="#FFFFFF"></path>
                <path d="M16.7903794,17.9048185 L16.7903794,15.8219741 C17.14117,15.4843877 17.3388883,15.0194102 17.3388883,14.522585 L17.3388883,11.7900459 C17.3388883,10.114853 15.9739941,8.7517683 14.2965775,8.7517683 L13.7098005,8.7517683 C12.0323839,8.7517683 10.6674897,10.114853 10.6674897,11.7900459 L10.6674897,14.522585 C10.6674897,15.0194102 10.871586,15.4843877 11.2159986,15.8219741 L11.2159986,17.9048185 C10.5526855,18.2487745 8.95818302,19.1214035 7.46572864,20.344358 C7.21698624,20.5481838 7.1850962,20.9112484 7.38919253,21.159661 C7.59328886,21.4080737 7.95683543,21.4399214 8.20557782,21.2360957 C9.85748244,19.8793805 11.6433253,18.9812733 11.9877378,18.8156649 C12.2301022,18.6946433 12.3767964,18.4589698 12.3767964,18.1850789 L12.3767964,15.5480833 C12.3767964,15.3569966 12.2811263,15.1722795 12.121676,15.0703667 C11.9367137,14.9493451 11.8282876,14.7455194 11.8282875,14.522585 L11.8282875,11.7900459 C11.8282875,10.7518085 12.6765629,9.9046577 13.7161785,9.9046577 L14.3029555,9.9046577 C15.3425711,9.9046577 16.1908465,10.7518085 16.1908465,11.7900459 L16.1908465,14.522585 C16.1908465,14.7391498 16.0824203,14.9429756 15.897458,15.0703667 C15.7380078,15.1786491 15.6423376,15.3569966 15.6423376,15.5480833 L15.6423376,18.1850789 C15.6423376,18.4526002 15.7954098,18.6946433 16.0377742,18.8156649 C16.3821868,18.9812733 18.1680296,19.8857501 19.8199342,21.2360957 C19.9283604,21.3252695 20.0559206,21.3698564 20.1834808,21.3698564 C20.3493091,21.3698564 20.5151373,21.2997912 20.6299415,21.159661 C20.8340378,20.9112484 20.7957698,20.5481838 20.5534054,20.344358 C19.048195,19.1214035 17.4536925,18.2424049 16.7903794,17.9048185 L16.7903794,17.9048185 Z" id="Shape" fill="#FFFFFF"></path>
            </g>
        </g>
    </g>
</svg>