<?xml version="1.0" encoding="UTF-8"?>
<svg width="16px" height="16px" viewBox="0 0 16 16" version="1.1" xmlns="http://www.w3.org/2000/svg" xmlns:xlink="http://www.w3.org/1999/xlink">
    <!-- Generator: Sketch 43.1 (39012) - http://www.bohemiancoding.com/sketch -->
    <title>thin 0024 calendar month day planner events</title>
    <desc>Created with Sketch.</desc>
    <defs></defs>
    <g id="Page-2" stroke="none" stroke-width="1" fill="none" fill-rule="evenodd">
        <g id="002_04_-企业认证" transform="translate(-736.000000, -1390.000000)">
            <g id="thin-0024-calendar-month-day-planner-events" transform="translate(736.000000, 1390.000000)">
                <g id="Group" fill-rule="nonzero" fill="#A1A9B2">
                    <path d="M14.0716,16 L1.82486667,16 C0.7676,16 0,15.2135333 0,14.1302 L0,1.84306667 C0,0.775066667 0.7676,0 1.82486667,0 L14.0716,0 C15.1712,0 16,0.792333333 16,1.84306667 L16,14.1295333 C16,15.1784 15.153,16 14.0716,16 Z M1.82486667,0.666666667 C1.13213333,0.666666667 0.666666667,1.13933333 0.666666667,1.84306667 L0.666666667,14.1302 C0.666666667,14.8385333 1.14293333,15.3333333 1.82486667,15.3333333 L14.0716,15.3333333 C14.791,15.3333333 15.3333333,14.8157333 15.3333333,14.1295333 L15.3333333,1.84306667 C15.3333333,1.17253333 14.791,0.666666667 14.0716,0.666666667 L1.82486667,0.666666667 Z" id="Shape"></path>
                    <rect id="Rectangle-path" x="0.333333333" y="4.66666667" width="15.3333333" height="1"></rect>
                    <rect id="Rectangle-path" x="2.66666667" y="4.96806667" width="1" height="10.6986"></rect>
                    <rect id="Rectangle-path" x="6" y="4.96806667" width="1" height="10.6986"></rect>
                    <rect id="Rectangle-path" x="9.33333333" y="4.96806667" width="1" height="10.6986"></rect>
                    <rect id="Rectangle-path" x="12.6666667" y="4.96806667" width="1" height="10.6986"></rect>
                    <rect id="Rectangle-path" x="0.333333333" y="12.6666667" width="15.3333333" height="1"></rect>
                    <rect id="Rectangle-path" x="0.333333333" y="10" width="15.3333333" height="1"></rect>
                    <rect id="Rectangle-path" x="0.333333333" y="7.33333333" width="15.3333333" height="1"></rect>
                    <path d="M5.0944,3.26433333 C4.6048,3.26433333 4.2064,2.86586667 4.2064,2.37633333 C4.2064,1.8864 4.60486667,1.488 5.0944,1.488 C5.58433333,1.488 5.98273333,1.88646667 5.98273333,2.37633333 C5.98273333,2.86586667 5.58433333,3.26433333 5.0944,3.26433333 Z M5.0944,2.1546 C4.97233333,2.1546 4.87306667,2.25386667 4.87306667,2.37626667 C4.87306667,2.49833333 4.97233333,2.5976 5.0944,2.5976 C5.2168,2.5976 5.31606667,2.49833333 5.31606667,2.37626667 C5.31606667,2.25393333 5.2168,2.1546 5.0944,2.1546 Z" id="Shape"></path>
                    <path d="M10.9056,3.26433333 C10.416,3.26433333 10.0176,2.86586667 10.0176,2.37633333 C10.0176,1.8864 10.4160667,1.488 10.9056,1.488 C11.3951333,1.488 11.7936,1.88646667 11.7936,2.37633333 C11.7936,2.86586667 11.3952,3.26433333 10.9056,3.26433333 Z M10.9056,2.1546 C10.7838667,2.1546 10.6842667,2.25386667 10.6842667,2.37626667 C10.6842667,2.49833333 10.7838667,2.5976 10.9056,2.5976 C11.0273333,2.5976 11.1269333,2.49833333 11.1269333,2.37626667 C11.1269333,2.25393333 11.0273333,2.1546 10.9056,2.1546 Z" id="Shape"></path>
                </g>
                <rect id="Rectangle-path" x="0" y="0" width="16" height="16"></rect>
            </g>
        </g>
    </g>
</svg>