<?xml version="1.0" encoding="UTF-8"?>
<svg width="24px" height="24px" viewBox="0 0 24 24" version="1.1" xmlns="http://www.w3.org/2000/svg" xmlns:xlink="http://www.w3.org/1999/xlink">
    <!-- Generator: Sketch 43.1 (39012) - http://www.bohemiancoding.com/sketch -->
    <title>网络接口</title>
    <desc>Created with Sketch.</desc>
    <defs></defs>
    <g id="Page-2" stroke="none" stroke-width="1" fill="none" fill-rule="evenodd">
        <g id="001_02_最新公示" transform="translate(-202.000000, -491.000000)" fill-rule="nonzero" fill="#768DA7">
            <g id="网络接口" transform="translate(202.000000, 491.000000)">
                <path d="M23,4.9095 L18.817125,4.9095 L18.817125,3.017125 C18.817125,2.46484375 18.3694063,2.017125 17.817125,2.017125 L17.1339688,2.017125 L17.1339688,1.02746875 C17.1339688,0.4751875 16.68625,0.02746875 16.1339688,0.02746875 L7.92853125,0.02746875 C7.37625,0.02746875 6.92853125,0.4751875 6.92853125,1.02746875 L6.92853125,2.017125 L6.245375,2.017125 C5.69309375,2.017125 5.245375,2.46484375 5.245375,3.017125 L5.245375,4.9095 L1,4.9095 C0.44771875,4.9095 0,5.35721875 0,5.9095 L0,22.1197188 C0,22.672 0.44771875,23.1197188 1,23.1197188 L23,23.1197188 C23.5522813,23.1197188 24,22.672 24,22.1197188 L24,5.9095 C24,5.35721875 23.5522813,4.9095 23,4.9095 L23,4.9095 Z M22,21.1197188 L2,21.1197188 L2,6.9095 L6.245375,6.9095 C6.79765625,6.9095 7.245375,6.46178125 7.245375,5.9095 L7.245375,4.017125 L7.92853125,4.017125 C8.4808125,4.017125 8.92853125,3.56940625 8.92853125,3.017125 L8.92853125,2.02746875 L15.1339688,2.02746875 L15.1339688,3.017125 C15.1339688,3.56940625 15.5816875,4.017125 16.1339688,4.017125 L16.817125,4.017125 L16.817125,5.9095 C16.817125,6.46178125 17.2648438,6.9095 17.817125,6.9095 L22,6.9095 L22,21.1197188 L22,21.1197188 Z" id="Shape"></path>
                <path d="M4.01725,9.91075 L4.01725,17.9051875 C4.01725,18.4574688 4.46496875,18.9051875 5.01725,18.9051875 L19.0163125,18.9051875 C19.5685937,18.9051875 20.0163125,18.4574688 20.0163125,17.9051875 L20.0163125,9.91075 C20.0163125,9.35846875 19.5685937,8.91075 19.0163125,8.91075 L5.01725,8.91075 C4.46496875,8.91075 4.01725,9.3584375 4.01725,9.91075 Z M6.01725,10.91075 L18.0163125,10.91075 L18.0163125,16.9051875 L16.7215625,16.9051875 L16.7215625,15.17 C16.7215625,14.6177188 16.2738437,14.17 15.7215625,14.17 C15.1692812,14.17 14.7215625,14.6177188 14.7215625,15.17 L14.7215625,16.9051563 L13.0571562,16.9051563 L13.0571562,15.17 C13.0571562,14.6177188 12.6094375,14.17 12.0571562,14.17 C11.504875,14.17 11.0571562,14.6177188 11.0571562,15.17 L11.0571562,16.9051563 L9.4804375,16.9051563 L9.4804375,15.17 C9.4804375,14.6177188 9.03271875,14.17 8.4804375,14.17 C7.92815625,14.17 7.4804375,14.6177188 7.4804375,15.17 L7.4804375,16.9051563 L6.01725,16.9051563 L6.01725,10.91075 L6.01725,10.91075 Z" id="Shape"></path>
            </g>
        </g>
    </g>
</svg>