<?xml version="1.0" encoding="UTF-8"?>
<svg width="17px" height="7px" viewBox="0 0 17 7" version="1.1" xmlns="http://www.w3.org/2000/svg" xmlns:xlink="http://www.w3.org/1999/xlink">
    <!-- Generator: Sketch 43.1 (39012) - http://www.bohemiancoding.com/sketch -->
    <title>key</title>
    <desc>Created with Sketch.</desc>
    <defs></defs>
    <g id="Page-2" stroke="none" stroke-width="1" fill="none" fill-rule="evenodd">
        <g id="002_01_登陆" transform="translate(-638.000000, -493.000000)" fill-rule="nonzero" fill="#96979B">
            <g id="key" transform="translate(638.000000, 493.000000)">
                <path d="M3.15581818,6.18207692 C4.50242424,6.18207692 5.6259697,5.12669231 5.87324242,3.73423077 L13.3336667,3.73423077 L13.3336667,5.19992308 C13.3336667,5.49769231 13.5644545,5.73838462 13.8488182,5.73838462 C14.1331818,5.73838462 14.3639697,5.49769231 14.3639697,5.19992308 L14.3639697,3.73423077 L15.8409091,3.73423077 L15.8409091,6.05715385 C15.8409091,6.35492308 16.071697,6.59561538 16.3560606,6.59561538 C16.6404242,6.59561538 16.8712121,6.35492308 16.8712121,6.05715385 L16.8712121,3.19576923 C16.8712121,2.898 16.6404242,2.65730769 16.3560606,2.65730769 L5.88406061,2.65730769 C5.66460606,1.22769231 4.52663636,0.134076923 3.15581818,0.134076923 C1.62890909,0.134076923 0.386363636,1.49046154 0.386363636,3.15753846 C0.386363636,4.82461538 1.62890909,6.18207692 3.15581818,6.18207692 Z M3.15581818,1.21153846 C4.11451515,1.21153846 4.8949697,2.08492308 4.8949697,3.15807692 C4.8949697,4.23176923 4.11451515,5.10515385 3.15581818,5.10515385 C2.19712121,5.10515385 1.41666667,4.23176923 1.41666667,3.15807692 C1.41666667,2.08492308 2.19712121,1.21153846 3.15581818,1.21153846 Z" id="Shape"></path>
            </g>
        </g>
    </g>
</svg>