<?xml version="1.0" encoding="UTF-8"?>
<svg width="146px" height="32px" viewBox="0 0 146 32" version="1.1" xmlns="http://www.w3.org/2000/svg" xmlns:xlink="http://www.w3.org/1999/xlink">
    <!-- Generator: Sketch 43.1 (39012) - http://www.bohemiancoding.com/sketch -->
    <title>Page 1 Copy</title>
    <desc>Created with Sketch.</desc>
    <defs>
        <polygon id="path-1" points="0.364231652 0.242947434 5.00890498 0.242947434 5.00890498 4.95963614 0.364231652 4.95963614 0.364231652 0.242947434"></polygon>
        <polygon id="path-3" points="0 30.7416725 145.473137 30.7416725 145.473137 0.242947434 0 0.242947434"></polygon>
    </defs>
    <g id="Page-1" stroke="none" stroke-width="1" fill="none" fill-rule="evenodd">
        <g id="001_02_最新公示-copy" transform="translate(-224.000000, -1576.000000)">
            <g id="Page-1-Copy" transform="translate(224.000000, 1576.000000)">
                <polygon id="Fill-1" fill="#FFFFFF" points="75.0573675 23.9839607 79.4068481 23.9839607 79.4068481 7.7949752 75.0573675 7.7949752"></polygon>
                <g id="Group-24" transform="translate(0.000000, 0.367502)">
                    <path d="M98.6916978,23.6170829 L94.3406797,23.6170829 L94.3406797,14.1615416 C94.3406797,12.9940367 94.1361972,12.1168472 93.7272323,11.5330947 C93.3182673,10.9493422 92.6679208,10.657466 91.7731178,10.657466 C90.5569852,10.657466 89.6775568,11.0695266 89.1348327,11.8952085 C88.593646,12.7208905 88.3215152,14.0897432 88.3215152,16.0002058 L88.3215152,23.6170829 L83.9720346,23.6170829 L83.9720346,7.42809743 L87.8802635,7.42809743 L87.8802635,9.4993261 L88.1216451,9.4993261 C88.6074831,8.71734753 89.2747417,8.12579088 90.1264958,7.72465617 C90.9767124,7.32352145 91.9453136,7.12373451 93.0292245,7.12373451 C94.8834039,7.12373451 96.2901818,7.63412771 97.2510957,8.65179244 C98.2120096,9.66945716 98.6916978,11.1397642 98.6916978,13.0611526 L98.6916978,23.6170829 Z" id="Fill-2" fill="#FFFFFF"></path>
                    <path d="M26.4892439,11.1567773 C27.0104435,10.5652206 27.7330508,10.2655402 28.6570656,10.2655402 C29.5780054,10.2655402 30.3098374,10.5652206 30.8540991,11.1567773 C31.3952858,11.7483339 31.6751039,12.5911851 31.6935534,13.6837699 L25.5913659,13.6837699 C25.6667016,12.5911851 25.9649692,11.7483339 26.4892439,11.1567773 L26.4892439,11.1567773 Z M29.4150344,19.9099426 L29.4150344,19.9224293 C27.3071737,19.9224293 25.5175677,18.5410899 24.8749085,16.6212623 L35.7739781,16.6212623 L35.7739781,14.479796 C35.7739781,12.183807 35.1451561,10.3810421 33.8921244,9.07774444 C32.6375552,7.77444682 30.8802359,7.12357843 28.6278538,7.12357843 C26.2693868,7.12357843 24.4213572,7.86341444 23.08684,9.34776897 C21.7507853,10.827441 21.0835267,12.9267647 21.0835267,15.6379359 C21.0835267,15.9766372 21.0958264,16.3028518 21.1188884,16.6212623 L21.1450252,16.6212623 C21.8722448,20.5904669 25.2946357,23.5950751 29.4150344,23.5950751 L29.4150344,23.6169268 L35.8016524,23.6169268 L35.8016524,19.9099426 L29.4150344,19.9099426 Z" id="Fill-4" fill="#FFFFFF"></path>
                    <path d="M42.8493792,13.6836138 C42.9231774,12.591029 43.2260574,11.7497387 43.7472571,11.1566212 C44.2715317,10.5650646 44.994139,10.2653841 45.9135414,10.2653841 C46.8344812,10.2653841 47.5663132,10.5650646 48.1105749,11.1566212 C48.6517616,11.7497387 48.9300422,12.591029 48.9500292,13.6836138 L42.8493792,13.6836138 Z M46.6715102,19.9097865 L46.6715102,19.9222732 C44.5621121,19.9222732 42.7740436,18.5409338 42.1298469,16.6211062 L53.0304539,16.6211062 L53.0319914,16.6211062 L53.0319914,14.4796399 C53.0319914,12.1836509 52.4062443,10.380886 51.1486002,9.07758835 C49.8955685,7.77429074 48.1413241,7.12342235 45.8858671,7.12342235 L45.8858671,7.12342235 L45.8843296,7.12342235 C43.5243251,7.12342235 41.677833,7.86325836 40.3417783,9.34761289 C39.0072611,10.8272849 38.3384651,12.9266086 38.3384651,15.6377798 C38.3384651,15.9764811 38.3523022,16.3026957 38.3753642,16.6211062 L38.3769016,16.6211062 L38.3999636,16.6211062 C39.1271832,20.5903108 42.5511115,23.594919 46.6715102,23.594919 L46.6715102,23.6167707 L53.0581283,23.6167707 L53.0581283,19.9097865 L46.6715102,19.9097865 Z" id="Fill-6" fill="#FFFFFF"></path>
                    <path d="M68.2144307,16.6217305 C68.2144307,18.2512427 66.901438,19.5857571 65.29479,19.5857571 C63.6896794,19.5857571 62.3751492,18.2512427 62.3751492,16.6217305 L62.3751492,14.3819316 C62.3751492,12.7508585 63.6896794,11.4179051 65.29479,11.4179051 C66.901438,11.4179051 68.2144307,12.7508585 68.2144307,14.3819316 L68.2144307,16.6217305 Z M66.2756908,7.4284096 L65.8175271,7.4284096 C63.7542528,7.4284096 61.9431223,8.55689364 60.940697,10.2332309 L60.940697,7.481478 L56.5712294,7.481478 L56.5712294,30.7410482 L60.940697,30.7410482 L60.940697,21.237121 C61.9431223,22.9134583 63.7542528,24.0419423 65.8175271,24.0419423 L66.2756908,24.0419423 C69.4151887,24.0419423 71.984288,21.4337863 71.984288,18.2465602 L71.984288,13.2237917 C71.984288,10.0365657 69.4151887,7.4284096 66.2756908,7.4284096 L66.2756908,7.4284096 Z" id="Fill-8" fill="#FFFFFF"></path>
                    <g id="Group-12" transform="translate(74.728497, 0.000000)">
                        <mask id="mask-2" fill="white">
                            <use xlink:href="#path-1"></use>
                        </mask>
                        <g id="Clip-11"></g>
                        <path d="M5.00890498,2.60121374 C5.00890498,1.29947696 3.96958053,0.24279135 2.68579958,0.24279135 C1.4035561,0.24279135 0.364231652,1.29947696 0.364231652,2.60121374 C0.364231652,3.90295052 1.4035561,4.95963614 2.68579958,4.95963614 C3.96958053,4.95963614 5.00890498,3.90295052 5.00890498,2.60121374" id="Fill-10" fill="#FFFFFF" mask="url(#mask-2)"></path>
                    </g>
                    <path d="M19.2318073,21.4011648 C19.2318073,22.7200708 18.1694209,23.8001689 16.8718028,23.8001689 L7.97297151,23.8001689 C6.84447425,23.8001689 5.90508484,22.9963386 5.66831566,21.9240447 C5.66831566,21.9178013 5.66524074,21.911558 5.66524074,21.9037538 C5.63295403,21.7429878 5.61296702,21.5759784 5.61296702,21.4042865 C5.61296702,21.039051 5.69445252,20.6909847 5.84358636,20.3819392 C5.84666128,20.3772567 5.84666128,20.3710134 5.8497362,20.3678917 C5.94044648,20.1774698 6.05421868,19.9995345 6.18644043,19.8418902 L6.1833655,19.8418902 L6.92288483,19.0052824 L16.8718028,19.0052824 C17.5206118,19.0052824 18.1109973,19.2753069 18.5384118,19.7092191 C18.9658263,20.1446922 19.2318073,20.7424922 19.2318073,21.4011648" id="Fill-13" fill="#FFFFFF"></path>
                    <path d="M18.9430719,4.55225808 C18.9430719,4.56942727 18.9399969,4.58191395 18.9399969,4.59752231 C18.9399969,4.64434737 18.936922,4.69117244 18.9338471,4.73643666 C18.9307722,4.76921421 18.9261598,4.80199175 18.9230848,4.8347693 C18.916935,4.88159436 18.9107851,4.92685859 18.9015604,4.97368366 C18.896948,5.0064612 18.8907981,5.03611707 18.8846483,5.06577295 C18.8754235,5.11415885 18.8615864,5.16722725 18.8462117,5.22029566 C18.8400619,5.24058652 18.8354495,5.26243822 18.8292996,5.28272908 C18.8108501,5.3451625 18.7877882,5.40447424 18.7616513,5.46378599 C18.7585764,5.47315101 18.7555015,5.48407685 18.7524265,5.49344187 C18.7232148,5.55899696 18.690928,5.62767372 18.6586413,5.69010714 L18.654029,5.69322881 C18.5833057,5.82902149 18.4987453,5.95701 18.4018852,6.0756335 L18.3988102,6.0756335 C18.3788232,6.1021677 18.3603737,6.1287019 18.3373117,6.15523611 L6.93856694,19.0055945 L6.19904762,19.8422023 L6.20366,19.8422023 C6.06990079,19.9998467 5.95612859,20.177782 5.86541832,20.3682039 C5.86234339,20.3713256 5.86234339,20.3775689 5.85926847,20.3806906 C5.71013464,20.6912968 5.62864914,21.0393631 5.62864914,21.4045986 C5.62864914,21.5762905 5.64863615,21.7432999 5.68092285,21.904066 C5.68092285,21.9118702 5.68399778,21.9181135 5.68399778,21.9243568 C5.92076696,22.9966508 6.86169383,23.8004811 7.98865363,23.8004811 L3.02726309,23.8004811 C3.00112623,23.8036027 2.97498937,23.8036027 2.94885251,23.8036027 C2.89042895,23.8036027 2.83508031,23.8036027 2.77665675,23.8004811 C2.60599844,23.7895552 2.43995252,23.763021 2.27851899,23.7271218 C2.27236914,23.7271218 2.26468183,23.7240001 2.25853198,23.7208785 C2.12631023,23.6881009 1.99562594,23.6443975 1.86955404,23.5960116 L1.86647912,23.59289 L1.86032927,23.59289 C1.86032927,23.5897683 1.85725435,23.5897683 1.85417942,23.5897683 C1.8511045,23.5866466 1.84802957,23.5866466 1.84341719,23.5819641 C1.79883078,23.5632341 1.74963199,23.5460649 1.70504559,23.5226524 C1.70197066,23.5226524 1.70197066,23.5195307 1.69889574,23.5195307 C1.68198365,23.5132874 1.66199665,23.5039223 1.64662202,23.4929965 C1.59127338,23.4680231 1.53899967,23.4383672 1.48826342,23.4087114 C1.48826342,23.4087114 1.48365103,23.4087114 1.48365103,23.4055897 C1.31914257,23.3088179 1.16078397,23.1948769 1.01779998,23.0622059 C0.965526266,23.0200633 0.917864938,22.9701166 0.868666147,22.9217307 C0.865591222,22.918609 0.862516298,22.918609 0.862516298,22.9139265 C0.816392432,22.8686623 0.777955877,22.8218372 0.736444397,22.776573 C0.707232615,22.7437955 0.681095758,22.7110179 0.651883976,22.6751187 C0.644196665,22.6641929 0.634971891,22.6548278 0.625747118,22.6454628 C0.596535336,22.6048811 0.567323554,22.5627386 0.538111772,22.5237177 C0.531961924,22.5159135 0.528886999,22.5127918 0.524274613,22.5065485 C0.521199688,22.5003051 0.518124764,22.4971835 0.511974915,22.4909401 C0.47353836,22.4378717 0.438176729,22.3816816 0.408964947,22.3254916 C0.401277636,22.3161265 0.398202712,22.302079 0.392052863,22.292714 C0.385903014,22.2802273 0.375140778,22.2630581 0.36899093,22.2505715 C0.353616308,22.2177939 0.333629299,22.188138 0.318254677,22.1553605 C0.310567366,22.141313 0.304417517,22.1257046 0.298267668,22.1085354 C0.278280659,22.0695145 0.259831113,22.0289328 0.242919029,21.9867903 L0.239844104,21.9836686 C0.210632322,21.9212352 0.187570389,21.8588018 0.164508456,21.7963683 C0.129146825,21.6933532 0.103009968,21.5918989 0.0784105726,21.4842012 C0.0784105726,21.4732754 0.0737981859,21.4670321 0.0707232615,21.457667 C0.0645734127,21.4342545 0.0584235639,21.410842 0.0553486394,21.3874294 C0.052273715,21.3718211 0.0491987906,21.3515302 0.044586404,21.3328002 C0.044586404,21.324996 0.0415114796,21.315631 0.0415114796,21.306266 C0.0384365552,21.2953402 0.0384365552,21.2859751 0.0353616308,21.2766101 C0.0292117819,21.2297851 0.0230619331,21.1813992 0.0169120843,21.1314524 L0.0169120843,21.0893099 C0.0122996977,21.069019 0.0122996977,21.0518498 0.00922477324,21.0331198 L0.00922477324,21.0128289 C0.00307492441,20.9472738 0,20.8817188 0,20.813042 C0,20.347913 0.103009968,19.9108791 0.289042895,19.5191094 C0.289042895,19.5159877 0.292117819,19.5159877 0.292117819,19.512866 C0.392052863,19.3021533 0.511974915,19.1008055 0.658033825,18.9244311 C0.664183673,18.9166269 0.667258598,18.9103836 0.670333522,18.9072619 L0.862516298,18.6903058 L0.865591222,18.6871841 L11.2757478,6.95126219 L2.38152896,6.95126219 C1.08237339,6.95126219 0.0199870087,5.87116405 0.0199870087,4.55225808 C0.0199870087,3.23335211 1.08237339,2.15325396 2.38152896,2.15325396 L16.5799924,2.15325396 C16.5999794,2.15325396 16.6230414,2.15637563 16.6445659,2.15637563 C16.67839,2.16105814 16.7106767,2.16105814 16.7460384,2.16417981 C16.7844749,2.16730148 16.8259864,2.17042315 16.8659604,2.17354482 C16.9105468,2.17978817 16.9535958,2.18603151 16.9951072,2.19695736 C17.024319,2.20007903 17.0535308,2.20632237 17.0827426,2.21256571 C17.1411661,2.22349156 17.1995897,2.23909991 17.2610882,2.25939078 C17.267238,2.26251245 17.2780003,2.26251245 17.2872251,2.26563412 C17.6039423,2.36396675 17.9022099,2.53253698 18.1620411,2.76822314 C18.4895205,3.06790355 18.7124525,3.43938239 18.8323746,3.83895627 C18.8323746,3.84207794 18.8354495,3.84519961 18.8354495,3.84832128 C18.8554365,3.91387637 18.8723486,3.97943146 18.8877232,4.04810822 C18.8907981,4.06839908 18.8938731,4.08556827 18.896948,4.1042983 C18.9077102,4.16048838 18.916935,4.21355678 18.9230848,4.26974686 C18.9261598,4.29628106 18.9307722,4.32593694 18.9307722,4.35559281 C18.936922,4.40085704 18.936922,4.45080377 18.9399969,4.49918967 C18.9399969,4.51948053 18.9430719,4.53508889 18.9430719,4.55225808" id="Fill-15" fill="#FFFFFF"></path>
                    <mask id="mask-4" fill="white">
                        <use xlink:href="#path-3"></use>
                    </mask>
                    <g id="Clip-18"></g>
                    <path d="M108.188141,17.0843621 L120.141909,17.0843621 L120.141909,15.3814906 L108.188141,15.3814906 L108.188141,17.0843621 Z M106.490782,13.840946 L106.490782,15.3814906 L106.490782,23.5727552 L108.188141,23.5727552 L108.188141,22.8032633 L118.913477,22.8032633 L118.913477,21.0801009 L108.188141,21.0801009 L108.188141,18.8075245 L120.141909,18.8075245 L120.141909,23.5727552 L121.839268,23.5727552 L121.839268,15.3814906 L121.839268,13.840946 L121.839268,13.6583283 L106.490782,13.6583283 L106.490782,13.840946 Z" id="Fill-17" fill="#FFFFFF" mask="url(#mask-4)"></path>
                    <path d="M117.189982,9.80306468 L122.189809,9.80306468 L122.189809,4.43379067 L117.189982,4.43379067 L117.189982,9.80306468 Z M122.189809,2.71062831 L117.189982,2.71062831 L115.655595,2.71062831 L115.492624,2.71062831 L115.492624,11.5309095 L117.189982,11.5309095 L117.189982,11.526227 L122.189809,11.526227 L123.851806,11.526227 L123.887167,11.526227 L123.887167,2.71062831 L123.218371,2.71062831 L122.189809,2.71062831 Z" id="Fill-19" fill="#FFFFFF" mask="url(#mask-4)"></path>
                    <path d="M127.171186,21.8449103 L132.171014,21.8449103 L132.171014,15.434559 L127.171186,15.434559 L127.171186,21.8449103 Z M132.171014,13.7113967 L127.171186,13.7113967 L125.636799,13.7113967 L125.473828,13.7113967 L125.473828,23.5727552 L127.171186,23.5727552 L132.171014,23.5727552 L133.868372,23.5727552 L133.868372,13.7113967 L133.199576,13.7113967 L132.171014,13.7113967 Z" id="Fill-20" fill="#FFFFFF" mask="url(#mask-4)"></path>
                    <path d="M138.774414,21.8449103 L143.774241,21.8449103 L143.774241,15.434559 L138.774414,15.434559 L138.774414,21.8449103 Z M144.80434,13.7113967 L143.774241,13.7113967 L138.774414,13.7113967 L137.241564,13.7113967 L137.077055,13.7113967 L137.077055,23.5727552 L138.774414,23.5727552 L143.774241,23.5727552 L145.473137,23.5727552 L145.473137,21.8449103 L145.473137,13.7113967 L144.80434,13.7113967 Z" id="Fill-21" fill="#FFFFFF" mask="url(#mask-4)"></path>
                    <path d="M129.474305,9.80306468 L141.305077,9.80306468 L141.305077,4.43379067 L129.474305,4.43379067 L129.474305,9.80306468 Z M129.474305,11.526227 L141.305077,11.526227 L141.305077,11.5309095 L143.002435,11.5309095 L143.002435,2.71062831 L142.333639,2.71062831 L141.305077,2.71062831 L129.474305,2.71062831 L127.941455,2.71062831 L127.776947,2.71062831 L127.776947,9.80306468 L127.776947,11.526227 L127.776947,11.5309095 L129.474305,11.5309095 L129.474305,11.526227 Z" id="Fill-22" fill="#FFFFFF" mask="url(#mask-4)"></path>
                    <polygon id="Fill-23" fill="#FFFFFF" mask="url(#mask-4)" points="110.980326 8.49477239 109.793405 9.69973737 111.563024 11.5134282 114.004514 11.5540099 111.008 8.49477239 113.859992 8.49477239 113.859992 6.77161003 110.048624 6.77161003 110.048624 4.63950878 113.859992 4.63950878 113.859992 2.91634642 107.579459 2.91634642 108.391239 2.09378613 106.005098 2.07973861 102.927099 5.20297039 105.327077 5.20453122 105.882101 4.63950878 108.351265 4.63950878 108.351265 6.77161003 103.09007 6.77161003 103.09007 8.49477239 107.022898 8.49477239 102.973223 12.606013 105.359364 12.6216214 109.424414 8.49477239"></polygon>
                </g>
            </g>
        </g>
    </g>
</svg>