<?xml version="1.0" encoding="UTF-8"?>
<svg width="166px" height="36px" viewBox="0 0 166 36" version="1.1" xmlns="http://www.w3.org/2000/svg" xmlns:xlink="http://www.w3.org/1999/xlink">
    <!-- Generator: Sketch 45.2 (43514) - http://www.bohemiancoding.com/sketch -->
    <title>logo</title>
    <desc>Created with Sketch.</desc>
    <defs>
        <polygon id="path-1" points="0.293919449 0.193544248 4.04197325 0.193544248 4.04197325 3.95109769 0.293919449 3.95109769 0.293919449 0.193544248"></polygon>
        <polygon id="path-3" points="0 24.4903755 117.390633 24.4903755 117.390633 0.193544248 0 0.193544248"></polygon>
        <polygon id="path-5" points="1.84091585e-16 35.8070131 1.84091585e-16 0.445483989 33.8147444 0.445483989 33.8147444 35.8070131 0 35.8070131"></polygon>
        <polygon id="path-7" points="0 35.8109408 33.8151734 35.8109408 33.8151734 0.449201104 0 0.449201104"></polygon>
    </defs>
    <g id="Page-3" stroke="none" stroke-width="1" fill="none" fill-rule="evenodd">
        <g id="006_01_购物车" transform="translate(-29.000000, -18.000000)">
            <g id="Group">
                <g id="logo" transform="translate(29.000000, 18.000000)">
                    <g id="Page-1-Copy" transform="translate(48.038350, 7.091360)">
                        <polygon id="Fill-1" fill="#000000" points="60.5681028 19.1068395 64.0779486 19.1068395 64.0779486 6.20987259 60.5681028 6.20987259"></polygon>
                        <g id="Group-24" transform="translate(0.000000, 0.292771)">
                            <path d="M79.640002,18.8145661 L76.1289155,18.8145661 L76.1289155,11.2818023 C76.1289155,10.3517087 75.9639068,9.652895 75.6338895,9.18784818 C75.3038722,8.72280136 74.7790702,8.49027795 74.0570023,8.49027795 C73.075635,8.49027795 72.3659737,8.81854629 71.9280184,9.47632642 C71.4913037,10.1341065 71.2717057,11.224604 71.2717057,12.7465755 L71.2717057,18.8145661 L67.7618599,18.8145661 L67.7618599,5.91759915 L70.9156344,5.91759915 L70.9156344,7.56764495 L71.1104191,7.56764495 C71.5024697,6.94468116 72.040919,6.47341714 72.7282483,6.15385288 C73.414337,5.83428862 74.1959569,5.67512821 75.0706269,5.67512821 C76.5668708,5.67512821 77.7020807,6.08173332 78.4774974,6.89245665 C79.252914,7.70317999 79.640002,8.87450112 79.640002,10.4051766 L79.640002,18.8145661 Z" id="Fill-2" fill="#000000"></path>
                            <path d="M21.375693,8.88805463 C21.796279,8.4167906 22.3793923,8.17804999 23.1250329,8.17804999 C23.8681922,8.17804999 24.4587495,8.4167906 24.8979455,8.88805463 C25.3346601,9.35931865 25.5604614,10.0307766 25.5753494,10.9011851 L20.6511437,10.9011851 C20.7119364,10.0307766 20.9526257,9.35931865 21.375693,8.88805463 L21.375693,8.88805463 Z M23.7366815,15.8612701 L23.7366815,15.8712176 C22.0357276,15.8712176 20.5915917,14.7707726 20.0729931,13.2413405 L28.8680786,13.2413405 L28.8680786,11.5353399 C28.8680786,9.70623861 28.360646,8.2700646 27.3495027,7.23179162 C26.3371187,6.19351864 24.9190368,5.67500387 23.1014602,5.67500387 C21.1982777,5.67500387 19.7069964,6.26439476 18.6300978,7.44690686 C17.5519585,8.62568864 17.0135092,10.2981164 17.0135092,12.4579729 C17.0135092,12.7277995 17.0234346,12.9876786 17.0420446,13.2413405 L17.0631359,13.2413405 C17.6499712,16.4034102 20.411695,18.7970335 23.7366815,18.7970335 L23.7366815,18.8144417 L28.8904106,18.8144417 L28.8904106,15.8612701 L23.7366815,15.8612701 Z" id="Fill-4" fill="#000000"></path>
                            <path d="M34.5776263,10.9010608 C34.6371783,10.0306523 34.8815896,9.36043775 35.3021756,8.88793028 C35.7252429,8.41666626 36.3083562,8.17792565 37.0502748,8.17792565 C37.7934341,8.17792565 38.3839914,8.41666626 38.8231874,8.88793028 C39.259902,9.36043775 39.4844627,10.0306523 39.5005914,10.9010608 L34.5776263,10.9010608 Z M37.6619235,15.8611457 L37.6619235,15.8710932 C35.9597289,15.8710932 34.5168336,14.7706482 33.9969943,13.2412162 L42.7933205,13.2412162 L42.7945612,13.2412162 L42.7945612,11.5352155 C42.7945612,9.70611426 42.2896099,8.26994026 41.2747446,7.23166728 C40.2636013,6.1933943 38.8480007,5.67487952 37.0279428,5.67487952 L37.0279428,5.67487952 L37.0267022,5.67487952 C35.1222789,5.67487952 33.6322383,6.26427041 32.5540991,7.44678252 C31.4772005,8.6255643 30.9375105,10.297992 30.9375105,12.4578485 C30.9375105,12.7276752 30.9486765,12.9875543 30.9672865,13.2412162 L30.9685272,13.2412162 L30.9871372,13.2412162 C31.5739725,16.4032859 34.336937,18.7969092 37.6619235,18.7969092 L37.6619235,18.8143174 L42.8156525,18.8143174 L42.8156525,15.8611457 L37.6619235,15.8611457 Z" id="Fill-6" fill="#000000"></path>
                            <path d="M55.0461439,13.2417135 C55.0461439,14.5398656 53.9866146,15.6030074 52.690118,15.6030074 C51.3948621,15.6030074 50.3340921,14.5398656 50.3340921,13.2417135 L50.3340921,11.4573761 C50.3340921,10.1579806 51.3948621,9.09608226 52.690118,9.09608226 C53.9866146,9.09608226 55.0461439,10.1579806 55.0461439,11.4573761 L55.0461439,13.2417135 Z M53.4816633,5.91784784 L53.1119446,5.91784784 C51.4469701,5.91784784 49.9854648,6.81685546 49.1765502,8.15231077 L49.1765502,5.96012482 L45.6505757,5.96012482 L45.6505757,24.4898781 L49.1765502,24.4898781 L49.1765502,16.9185677 C49.9854648,18.254023 51.4469701,19.1530306 53.1119446,19.1530306 L53.4816633,19.1530306 C56.0151045,19.1530306 58.0882584,17.0752412 58.0882584,14.5361353 L58.0882584,10.5347431 C58.0882584,7.99563724 56.0151045,5.91784784 53.4816633,5.91784784 L53.4816633,5.91784784 Z" id="Fill-8" fill="#000000"></path>
                            <g id="Group-12" transform="translate(60.302719, 0.000000)">
                                <mask id="mask-2" fill="white">
                                    <use xlink:href="#path-1"></use>
                                </mask>
                                <g id="Clip-11"></g>
                                <path d="M4.04197325,2.0722588 C4.04197325,1.03522925 3.20328263,0.193419903 2.16732602,0.193419903 C1.13261007,0.193419903 0.293919449,1.03522925 0.293919449,2.0722588 C0.293919449,3.10928834 1.13261007,3.95109769 2.16732602,3.95109769 C3.20328263,3.95109769 4.04197325,3.10928834 4.04197325,2.0722588" id="Fill-10" fill="#000000" mask="url(#mask-2)"></path>
                            </g>
                            <path d="M15.5192504,17.0492533 C15.5192504,18.0999607 14.6619498,18.9604216 13.6148271,18.9604216 L6.43384886,18.9604216 C5.52319957,18.9604216 4.76515228,18.3200497 4.57408962,17.4658059 C4.57408962,17.4608322 4.57160829,17.4558584 4.57160829,17.4496412 C4.54555429,17.3215668 4.52942563,17.1885187 4.52942563,17.0517402 C4.52942563,16.7607751 4.59518096,16.4834878 4.71552562,16.2372865 C4.71800695,16.2335562 4.71800695,16.2285824 4.72048828,16.2260956 C4.79368761,16.0743958 4.88549694,15.9326435 4.99219427,15.807056 L4.98971293,15.807056 L5.58647357,15.1405718 L13.6148271,15.1405718 C14.1383884,15.1405718 14.6148044,15.3556871 14.9597097,15.7013636 C15.3046151,16.0482835 15.5192504,16.5245213 15.5192504,17.0492533" id="Fill-13" fill="#12CE83"></path>
                            <path d="M15.2862532,3.62655967 C15.2862532,3.64023751 15.2837719,3.65018504 15.2837719,3.66261945 C15.2837719,3.69992267 15.2812905,3.73722589 15.2788092,3.77328567 C15.2763279,3.79939792 15.2726059,3.82551018 15.2701245,3.85162243 C15.2651619,3.88892565 15.2601992,3.92498543 15.2527552,3.96228865 C15.2490332,3.98840091 15.2440705,4.01202628 15.2391079,4.03565165 C15.2316639,4.07419832 15.2204979,4.1164753 15.2080912,4.15875228 C15.2031285,4.17491701 15.1994065,4.19232518 15.1944439,4.20848991 C15.1795559,4.25822754 15.1609459,4.30547829 15.1398545,4.35272903 C15.1373732,4.36018968 15.1348919,4.36889376 15.1324105,4.37635441 C15.1088379,4.42857891 15.0827839,4.48329031 15.0567299,4.53302793 L15.0530079,4.53551481 C14.9959372,4.64369416 14.9277005,4.74565629 14.8495385,4.84015779 L14.8470572,4.84015779 C14.8309285,4.86129628 14.8160405,4.88243477 14.7974305,4.90357326 L5.59912837,15.1408205 L5.00236773,15.8073047 L5.00608973,15.8073047 C4.89815174,15.9328922 4.80634241,16.0746445 4.73314308,16.2263442 C4.73066175,16.2288311 4.73066175,16.2338049 4.72818042,16.2362918 C4.60783575,16.4837365 4.54208042,16.7610237 4.54208042,17.0519889 C4.54208042,17.1887673 4.55820909,17.3218155 4.58426309,17.4498899 C4.58426309,17.4561071 4.58674442,17.4610809 4.58674442,17.4660546 C4.77780708,18.3202984 5.53709504,18.9606703 6.44650366,18.9606703 L2.44287254,18.9606703 C2.4217812,18.9631572 2.40068987,18.9631572 2.37959854,18.9631572 C2.33245321,18.9631572 2.28778921,18.9631572 2.24064388,18.9606703 C2.10292989,18.9519662 1.9689379,18.9308278 1.8386679,18.9022286 C1.83370524,18.9022286 1.8275019,18.8997417 1.82253924,18.8972549 C1.71584191,18.8711426 1.61038525,18.8363263 1.50865059,18.7977796 L1.50616925,18.7952927 L1.50120659,18.7952927 C1.50120659,18.7928058 1.49872525,18.7928058 1.49624392,18.7928058 C1.49376259,18.790319 1.49128125,18.790319 1.48755925,18.7865886 C1.45157992,18.7716673 1.41187859,18.7579895 1.37589926,18.7393379 C1.37341793,18.7393379 1.37341793,18.736851 1.37093659,18.736851 C1.35728926,18.7318772 1.3411606,18.7244166 1.32875393,18.7157125 C1.28408993,18.6958175 1.24190727,18.6721921 1.20096527,18.6485667 C1.20096527,18.6485667 1.19724327,18.6485667 1.19724327,18.6460798 C1.06449194,18.5689865 0.936703283,18.4782153 0.82132129,18.3725229 C0.779138625,18.33895 0.740677961,18.2991599 0.700976629,18.2606132 C0.698495296,18.2581263 0.696013963,18.2581263 0.696013963,18.254396 C0.658793965,18.2183362 0.6277773,18.181033 0.594279302,18.1449732 C0.570706636,18.118861 0.549615304,18.0927487 0.526042639,18.0641496 C0.519839306,18.0554455 0.512395306,18.0479849 0.504951306,18.0405242 C0.481378641,18.0081948 0.457805976,17.9746219 0.43423331,17.9435358 C0.429270644,17.9373186 0.426789311,17.9348318 0.423067311,17.929858 C0.420585978,17.9248842 0.418104644,17.9223974 0.413141978,17.9174236 C0.382125313,17.8751466 0.353589981,17.8303827 0.330017316,17.7856189 C0.323813983,17.7781582 0.32133265,17.7669673 0.316369983,17.7595066 C0.311407317,17.7495591 0.302722651,17.7358812 0.297759984,17.7259337 C0.285353318,17.6998215 0.269224652,17.6761961 0.256817986,17.6500838 C0.250614653,17.6388929 0.245651987,17.6264585 0.240689321,17.6127806 C0.224560655,17.5816946 0.209672656,17.5493651 0.196025323,17.5157922 L0.19354399,17.5133054 C0.169971324,17.4635677 0.151361325,17.4138301 0.132751326,17.3640925 C0.104215994,17.2820254 0.0831246622,17.2012017 0.0632739966,17.1154043 C0.0632739966,17.1067003 0.0595519968,17.1017265 0.0570706636,17.0942658 C0.0521079972,17.0756142 0.0471453308,17.0569626 0.0446639976,17.038311 C0.0421826644,17.0258766 0.0397013312,17.0097119 0.0359793314,16.9947906 C0.0359793314,16.9885734 0.0334979982,16.9811127 0.0334979982,16.9736521 C0.031016665,16.964948 0.031016665,16.9574874 0.0285353318,16.9500267 C0.0235726654,16.9127235 0.018609999,16.8741768 0.0136473326,16.8343867 L0.0136473326,16.8008138 C0.00992533281,16.7846491 0.00992533281,16.7709713 0.0074439996,16.75605 L0.0074439996,16.7398852 C0.0024813332,16.6876607 0,16.6354362 0,16.5807248 C0,16.2101795 0.0831246622,15.8620161 0.233245321,15.5499125 C0.233245321,15.5474256 0.235726654,15.5474256 0.235726654,15.5449387 C0.316369983,15.3770742 0.413141978,15.2166704 0.531005305,15.0761616 C0.535967971,15.0699444 0.538449305,15.0649706 0.540930638,15.0624837 L0.696013963,14.8896455 L0.698495296,14.8871586 L9.09904885,5.53772802 L1.92179256,5.53772802 C0.873429287,5.53772802 0.0161286658,4.67726705 0.0161286658,3.62655967 C0.0161286658,2.57585228 0.873429287,1.71539132 1.92179256,1.71539132 L13.3793486,1.71539132 C13.3954773,1.71539132 13.4140873,1.7178782 13.4314566,1.7178782 C13.4587513,1.72160852 13.4848053,1.72160852 13.5133406,1.7240954 C13.5443573,1.72658228 13.5778553,1.72906916 13.6101126,1.73155604 C13.6460919,1.73652981 13.6808306,1.74150357 13.7143286,1.75020766 C13.7379013,1.75269454 13.7614739,1.7576683 13.7850466,1.76264206 C13.8321919,1.77134615 13.8793373,1.78378055 13.9289639,1.79994528 C13.9339266,1.80243216 13.9426113,1.80243216 13.9500553,1.80491905 C14.2056326,1.88325581 14.4463219,2.0175474 14.6559946,2.20530695 C14.9202565,2.44404756 15.1001532,2.73998645 15.1969252,3.05830727 C15.1969252,3.06079415 15.1994065,3.06328103 15.1994065,3.06576791 C15.2155352,3.11799242 15.2291825,3.17021693 15.2415892,3.22492832 C15.2440705,3.24109305 15.2465519,3.2547709 15.2490332,3.26969219 C15.2577179,3.31445605 15.2651619,3.35673303 15.2701245,3.4014969 C15.2726059,3.42263539 15.2763279,3.44626076 15.2763279,3.46988614 C15.2812905,3.50594592 15.2812905,3.54573602 15.2837719,3.58428268 C15.2837719,3.60044741 15.2862532,3.61288182 15.2862532,3.62655967" id="Fill-15" fill="#000000"></path>
                            <mask id="mask-4" fill="white">
                                <use xlink:href="#path-3"></use>
                            </mask>
                            <g id="Clip-18"></g>
                            <path d="M87.3032274,13.6102694 L96.9494102,13.6102694 L96.9494102,12.2536756 L87.3032274,12.2536756 L87.3032274,13.6102694 Z M85.9335314,11.0263996 L85.9335314,12.2536756 L85.9335314,18.7792523 L87.3032274,18.7792523 L87.3032274,18.1662361 L95.9581176,18.1662361 L95.9581176,16.7934775 L87.3032274,16.7934775 L87.3032274,14.9830279 L96.9494102,14.9830279 L96.9494102,18.7792523 L98.3191061,18.7792523 L98.3191061,12.2536756 L98.3191061,11.0263996 L98.3191061,10.880917 L85.9335314,10.880917 L85.9335314,11.0263996 Z" id="Fill-17" fill="#000000" mask="url(#mask-4)"></path>
                            <path d="M94.5673303,7.80961851 L98.6019781,7.80961851 L98.6019781,3.53218252 L94.5673303,3.53218252 L94.5673303,7.80961851 Z M98.6019781,2.15942399 L94.5673303,2.15942399 L93.329145,2.15942399 L93.1976344,2.15942399 L93.1976344,9.18610736 L94.5673303,9.18610736 L94.5673303,9.18237704 L98.6019781,9.18237704 L99.9431387,9.18237704 L99.971674,9.18237704 L99.971674,2.15942399 L99.431984,2.15942399 L98.6019781,2.15942399 Z" id="Fill-19" fill="#000000" mask="url(#mask-4)"></path>
                            <path d="M102.621738,17.4027635 L106.656386,17.4027635 L106.656386,12.2959525 L102.621738,12.2959525 L102.621738,17.4027635 Z M106.656386,10.923194 L102.621738,10.923194 L101.383553,10.923194 L101.252042,10.923194 L101.252042,18.7792523 L102.621738,18.7792523 L106.656386,18.7792523 L108.026082,18.7792523 L108.026082,10.923194 L107.486392,10.923194 L106.656386,10.923194 Z" id="Fill-20" fill="#000000" mask="url(#mask-4)"></path>
                            <path d="M111.985049,17.4027635 L116.019696,17.4027635 L116.019696,12.2959525 L111.985049,12.2959525 L111.985049,17.4027635 Z M116.850943,10.923194 L116.019696,10.923194 L111.985049,10.923194 L110.748104,10.923194 L110.615353,10.923194 L110.615353,18.7792523 L111.985049,18.7792523 L116.019696,18.7792523 L117.390633,18.7792523 L117.390633,17.4027635 L117.390633,10.923194 L116.850943,10.923194 Z" id="Fill-21" fill="#000000" mask="url(#mask-4)"></path>
                            <path d="M104.480256,7.80961851 L114.027186,7.80961851 L114.027186,3.53218252 L104.480256,3.53218252 L104.480256,7.80961851 Z M104.480256,9.18237704 L114.027186,9.18237704 L114.027186,9.18610736 L115.396882,9.18610736 L115.396882,2.15942399 L114.857192,2.15942399 L114.027186,2.15942399 L104.480256,2.15942399 L103.243312,2.15942399 L103.110561,2.15942399 L103.110561,7.80961851 L103.110561,9.18237704 L103.110561,9.18610736 L104.480256,9.18610736 L104.480256,9.18237704 Z" id="Fill-22" fill="#000000" mask="url(#mask-4)"></path>
                            <polygon id="Fill-23" fill="#000000" mask="url(#mask-4)" points="89.556402 6.76736652 88.5986074 7.72730274 90.0266146 9.17218083 91.9967932 9.20451029 89.578734 6.76736652 91.8801705 6.76736652 91.8801705 5.39460799 88.804558 5.39460799 88.804558 3.696068 91.8801705 3.696068 91.8801705 2.32330947 86.8120474 2.32330947 87.4671194 1.66801623 85.5416048 1.65682526 83.0577903 4.14495009 84.9944709 4.14619353 85.4423515 3.696068 87.4348621 3.696068 87.4348621 5.39460799 83.189301 5.39460799 83.189301 6.76736652 86.3629261 6.76736652 83.0950103 10.0425893 85.0205249 10.0550237 88.3008474 6.76736652"></polygon>
                        </g>
                    </g>
                    <g id="Page-1">
                        <g id="Group-3" transform="translate(0.000000, 0.003717)">
                            <mask id="mask-6" fill="white">
                                <use xlink:href="#path-5"></use>
                            </mask>
                            <g id="Clip-2"></g>
                            <path d="M21.5322616,1.65640004 C20.1282122,0.863375353 18.5289474,0.445273358 16.9071577,0.445273358 C15.2864406,0.445273358 13.6861031,0.863375353 12.2820537,1.65640004 L4.62682015,5.97538312 C1.77259899,7.58565503 -0.000429044896,10.5860897 -0.000429044896,13.8066336 L-0.000429044896,22.4445997 C-0.000429044896,25.6661967 1.77259899,28.6666314 4.62682015,30.2769033 L12.2820537,34.5958864 C13.6861031,35.3878579 15.2864406,35.8070131 16.9071577,35.8070131 C18.5289474,35.8070131 20.1282122,35.3878579 21.5322616,34.5958864 L29.1885678,30.2769033 C32.042789,28.6666314 33.8147444,25.6661967 33.8147444,22.4445997 L33.8147444,13.8066336 C33.8147444,10.5860897 32.042789,7.58565503 29.1885678,5.97538312 L21.5322616,1.65640004 Z" id="Fill-1" fill="#2B4EAF" mask="url(#mask-6)"></path>
                        </g>
                        <polygon id="Fill-4" fill="#FEFEFE" points="14.7169907 17.0463759 5.49038027 11.6068373 5.52148602 11.556286 14.7480965 16.9947713"></polygon>
                        <polygon id="Fill-6" fill="#FEFEFE" points="5.27542877 11.8484308 5.24539563 11.7968262 16.6429733 5.38101428 16.674079 5.43261881"></polygon>
                        <polygon id="Fill-8" fill="#FEFEFE" points="22.5892137 14.8152699 22.5591806 14.7636654 28.0563183 11.6537027 28.0863515 11.7053072"></polygon>
                        <polygon id="Fill-10" fill="#FEFEFE" points="16.6913481 30.7546449 16.661315 30.7030404 28.0524569 24.2756437 28.0824901 24.3272482"></polygon>
                        <mask id="mask-8" fill="white">
                            <use xlink:href="#path-7"></use>
                        </mask>
                        <g id="Clip-13"></g>
                        <polygon id="Fill-12" fill="#FEFEFE" mask="url(#mask-8)" points="5.50464601 24.3610545 5.56578491 24.3610545 5.56578491 11.6663405 5.50464601 11.6663405"></polygon>
                        <polygon id="Fill-14" fill="#FEFEFE" mask="url(#mask-8)" points="16.6008196 30.7084115 16.6619585 30.7084115 16.6619585 24.9792557 16.6008196 24.9792557"></polygon>
                        <path d="M5.58391205,12.4201879 C5.17739202,12.4201879 4.84810006,12.0958166 4.84810006,11.6966713 C4.84810006,11.2975261 5.17739202,10.9731548 5.58391205,10.9731548 C5.9915047,10.9731548 6.32079666,11.2975261 6.32079666,11.6966713 C6.32079666,12.0958166 5.9915047,12.4201879 5.58391205,12.4201879 Z" id="Fill-15" fill="#12CE83" mask="url(#mask-8)"></path>
                        <path d="M6.32079666,24.3306183 C6.32079666,24.7297636 5.9915047,25.0541349 5.58391205,25.0541349 C5.17739202,25.0541349 4.84810006,24.7297636 4.84810006,24.3306183 C4.84810006,23.9314731 5.17739202,23.6071018 5.58391205,23.6071018 C5.9915047,23.6071018 6.32079666,23.9314731 6.32079666,24.3306183" id="Fill-16" fill="#12CE83" mask="url(#mask-8)"></path>
                        <path d="M17.3676301,30.7488526 C17.3676301,31.1479978 17.0383382,31.4723691 16.6307455,31.4723691 C16.2242255,31.4723691 15.8949335,31.1479978 15.8949335,30.7488526 C15.8949335,30.3497073 16.2242255,30.025336 16.6307455,30.025336 C17.0383382,30.025336 17.3676301,30.3497073 17.3676301,30.7488526" id="Fill-17" fill="#12CE83" mask="url(#mask-8)"></path>
                        <path d="M17.3676301,5.34394327 C17.3676301,5.7430885 17.0383382,6.06745982 16.6307455,6.06745982 C16.2242255,6.06745982 15.8949335,5.7430885 15.8949335,5.34394327 C15.8949335,4.94479804 16.2242255,4.62042672 16.6307455,4.62042672 C17.0383382,4.62042672 17.3676301,4.94479804 17.3676301,5.34394327" id="Fill-18" fill="#12CE83" mask="url(#mask-8)"></path>
                        <path d="M28.5968076,11.694881 C28.5968076,12.0940262 28.2675157,12.4183975 27.859923,12.4183975 C27.453403,12.4183975 27.124111,12.0940262 27.124111,11.694881 C27.124111,11.2957357 27.453403,10.9713644 27.859923,10.9713644 C28.2675157,10.9713644 28.5968076,11.2957357 28.5968076,11.694881" id="Fill-19" fill="#12CE83" mask="url(#mask-8)"></path>
                        <path d="M28.5968076,24.3340937 C28.5968076,24.733239 28.2675157,25.0576103 27.859923,25.0576103 C27.453403,25.0576103 27.124111,24.733239 27.124111,24.3340937 C27.124111,23.9349485 27.453403,23.6105772 27.859923,23.6105772 C28.2675157,23.6105772 28.5968076,23.9349485 28.5968076,24.3340937" id="Fill-20" fill="#12CE83" mask="url(#mask-8)"></path>
                        <path d="M22.6683725,8.53605195 C22.6683725,8.74352322 22.4967546,8.91097465 22.2865226,8.91097465 C22.075218,8.91097465 21.9036,8.74352322 21.9036,8.53605195 C21.9036,8.32858068 22.075218,8.16112925 22.2865226,8.16112925 C22.4967546,8.16112925 22.6683725,8.32858068 22.6683725,8.53605195" id="Fill-21" fill="#FEFEFE" mask="url(#mask-8)"></path>
                        <path d="M28.3201809,18.0103274 C28.3201809,18.2177987 28.148563,18.3852501 27.938331,18.3852501 C27.7270264,18.3852501 27.5554084,18.2177987 27.5554084,18.0103274 C27.5554084,17.8028561 27.7270264,17.6354047 27.938331,17.6354047 C28.148563,17.6354047 28.3201809,17.8028561 28.3201809,18.0103274" id="Fill-22" fill="#FEFEFE" mask="url(#mask-8)"></path>
                        <path d="M11.5276855,27.4864985 C11.5276855,27.6939698 11.3560676,27.8614212 11.1458356,27.8614212 C10.9345309,27.8614212 10.762913,27.6939698 10.762913,27.4864985 C10.762913,27.2790273 10.9345309,27.1115758 11.1458356,27.1115758 C11.3560676,27.1115758 11.5276855,27.2790273 11.5276855,27.4864985" id="Fill-23" fill="#FEFEFE" mask="url(#mask-8)"></path>
                        <path d="M11.5240386,8.54079114 C11.5240386,8.74826241 11.3524207,8.91571384 11.1421887,8.91571384 C10.9308841,8.91571384 10.7592661,8.74826241 10.7592661,8.54079114 C10.7592661,8.33331987 10.9308841,8.16586845 11.1421887,8.16586845 C11.3524207,8.16586845 11.5240386,8.33331987 11.5240386,8.54079114" id="Fill-24" fill="#FEFEFE" mask="url(#mask-8)"></path>
                        <path d="M5.96640558,18.0103274 C5.96640558,18.2177987 5.79478762,18.3852501 5.58455562,18.3852501 C5.37325101,18.3852501 5.20163305,18.2177987 5.20163305,18.0103274 C5.20163305,17.8028561 5.37325101,17.6354047 5.58455562,17.6354047 C5.79478762,17.6354047 5.96640558,17.8028561 5.96640558,18.0103274" id="Fill-25" fill="#FEFEFE" mask="url(#mask-8)"></path>
                        <path d="M22.6679435,27.4899739 C22.6679435,27.6974452 22.4963255,27.8648966 22.2860935,27.8648966 C22.0747889,27.8648966 21.903171,27.6974452 21.903171,27.4899739 C21.903171,27.2825027 22.0747889,27.1150512 22.2860935,27.1150512 C22.4963255,27.1150512 22.6679435,27.2825027 22.6679435,27.4899739" id="Fill-26" fill="#FEFEFE" mask="url(#mask-8)"></path>
                        <path d="M22.3038989,22.701495 C22.3038989,23.4176394 21.7075265,24.0031929 20.9802954,24.0031929 L15.9851402,24.0031929 C15.352299,24.0031929 14.8245738,23.5671873 14.6926424,22.9858465 C14.6926424,22.9816338 14.6904972,22.9784744 14.6904972,22.9742618 C14.6722628,22.88685 14.6615367,22.7962788 14.6615367,22.7036013 C14.6615367,22.5045552 14.7065864,22.3160407 14.7902502,22.1475362 C14.7923954,22.146483 14.7923954,22.1422704 14.7945406,22.1412172 C14.8449534,22.036955 14.9082375,21.941118 14.9833204,21.8547594 L14.9811751,21.8547594 L15.3962761,21.4019034 L20.9802954,21.4019034 C21.3439109,21.4019034 21.6742755,21.5482917 21.9145407,21.783145 C22.1548058,22.0190514 22.3038989,22.3444759 22.3038989,22.701495" id="Fill-27" fill="#12CE83" mask="url(#mask-8)"></path>
                        <path d="M22.1418272,13.5565407 C22.1418272,13.5649659 22.139682,13.572338 22.139682,13.5818163 C22.139682,13.6060389 22.1386093,13.6313146 22.1364641,13.6565903 C22.1343189,13.6744939 22.1332463,13.6923975 22.1311011,13.7103011 C22.1268106,13.7355768 22.1235928,13.7597993 22.1182297,13.785075 C22.1160845,13.8029786 22.1128667,13.8187759 22.1085762,13.8345732 C22.1032131,13.8619552 22.0967775,13.8903904 22.087124,13.9188255 C22.0839061,13.929357 22.0817609,13.9419949 22.0785431,13.9525264 C22.0667443,13.9872805 22.0549456,14.0188751 22.039929,14.0515229 C22.0377838,14.0567886 22.0367112,14.0620544 22.034566,14.0673202 C22.0184768,14.1031274 22.0002424,14.1399878 21.982008,14.1747418 L21.9798627,14.175795 C21.9401761,14.2495158 21.8929811,14.3190239 21.8382779,14.3832663 L21.8361327,14.3832663 C21.8254066,14.3980104 21.8146805,14.4117014 21.8018091,14.4264456 L15.4047497,21.4014821 L14.9907214,21.8553913 L14.991794,21.8553913 C14.9177838,21.9406968 14.8544996,22.0375869 14.8030142,22.140796 C14.800869,22.1429023 14.800869,22.1460617 14.7997964,22.148168 C14.7161327,22.3156195 14.6700103,22.5051871 14.6700103,22.70318 C14.6700103,22.7958575 14.6807365,22.8874819 14.6989709,22.9748937 C14.6989709,22.9780531 14.7011161,22.9822657 14.7011161,22.9854252 C14.83412,23.5678192 15.3618452,24.0038248 15.9946864,24.0038248 L13.2101851,24.0038248 C13.1951685,24.0048779 13.1812245,24.0048779 13.166208,24.0048779 C13.132957,24.0048779 13.1029238,24.0048779 13.0696729,24.0038248 C12.9731378,23.9975058 12.8808931,23.9838148 12.7897211,23.9638049 C12.7865032,23.9638049 12.7822128,23.9616986 12.778995,23.9606455 C12.7039121,23.9427418 12.6309745,23.9195725 12.5601821,23.8921905 L12.5591094,23.8911373 L12.554819,23.8911373 C12.554819,23.889031 12.5537464,23.889031 12.5516012,23.889031 C12.5494559,23.8869247 12.5473107,23.8869247 12.5462381,23.8858716 C12.5204954,23.8742869 12.4936801,23.8658616 12.4679374,23.8532238 C12.4657922,23.8532238 12.4657922,23.8511175 12.463647,23.8511175 C12.4550661,23.847958 12.4443399,23.8426923 12.4346864,23.8374265 C12.4046533,23.8226823 12.3746201,23.806885 12.3456596,23.7910877 C12.3456596,23.7910877 12.344587,23.7910877 12.344587,23.7889814 C12.2512697,23.7373769 12.1622429,23.6752408 12.081797,23.6036264 C12.0528365,23.580457 12.0260212,23.553075 11.9981332,23.5267462 C11.9970606,23.5246399 11.9949154,23.5246399 11.9949154,23.5225335 C11.9691727,23.498311 11.9477205,23.4730353 11.924123,23.4477596 C11.9080338,23.429856 11.8930172,23.4119524 11.8769281,23.3929956 C11.8726376,23.3877299 11.8672745,23.381411 11.8619115,23.3761452 C11.8458223,23.3550821 11.8297331,23.3319127 11.8125713,23.3108497 C11.8093535,23.306637 11.8072083,23.3055839 11.8061357,23.3013713 C11.8039904,23.2982118 11.8018452,23.2961055 11.7986274,23.2929461 C11.7771751,23.2645109 11.7567955,23.2339694 11.7407063,23.203428 C11.7364159,23.1981622 11.7353432,23.1907901 11.7310528,23.1855244 C11.727835,23.1781523 11.7224719,23.1697271 11.7181814,23.162355 C11.7096006,23.1444514 11.6988744,23.1286541 11.6892209,23.1107505 C11.6860031,23.1033784 11.6817126,23.0939 11.6784948,23.0854748 C11.6677687,23.0644117 11.6570426,23.0422955 11.647389,23.0191261 L11.6452438,23.018073 C11.6291546,22.9833189 11.6162833,22.949618 11.6034119,22.915917 C11.5841049,22.8600999 11.5690883,22.8053359 11.5551444,22.7463593 C11.5551444,22.7410935 11.5529992,22.7368809 11.5508539,22.7316152 C11.5476361,22.7189773 11.5433457,22.7063395 11.542273,22.6947548 C11.5401278,22.6852764 11.5379826,22.6747449 11.53691,22.6642133 C11.53691,22.6600007 11.5347648,22.6547349 11.5347648,22.6494692 C11.5326195,22.6442034 11.5326195,22.6389376 11.5315469,22.6336719 C11.5272565,22.6083962 11.5240386,22.5820673 11.5197482,22.5546854 L11.5197482,22.531516 C11.5186756,22.5209844 11.5186756,22.5125592 11.5165303,22.5009745 L11.5165303,22.490443 C11.5133125,22.4546358 11.5111673,22.4188285 11.5111673,22.3819682 C11.5111673,22.1302644 11.5690883,21.8922517 11.6731317,21.6795147 C11.6731317,21.6784615 11.675277,21.6784615 11.675277,21.6763552 C11.7310528,21.5626146 11.7986274,21.4530866 11.8801459,21.3572497 C11.8844363,21.353037 11.885509,21.3498776 11.8876542,21.3477713 L11.9949154,21.2298181 L11.9970606,21.2277118 L17.8385069,14.8582386 L12.8476421,14.8582386 C12.1182658,14.8582386 11.5218934,14.2726851 11.5218934,13.5565407 C11.5218934,12.8403962 12.1182658,12.2548428 12.8476421,12.2548428 L20.8160785,12.2548428 C20.8268046,12.2548428 20.8396759,12.2569491 20.8525473,12.2569491 C20.8707817,12.2580022 20.8890161,12.2580022 20.9083231,12.2601085 C20.930848,12.2622148 20.9544454,12.263268 20.9758977,12.2653743 C21.0016404,12.2685338 21.0252378,12.2727464 21.0488353,12.2780121 C21.0649245,12.2801185 21.0810137,12.2832779 21.0981755,12.2864374 C21.1303538,12.2917031 21.1636048,12.3011815 21.1979284,12.3117131 C21.2011463,12.3138194 21.2065093,12.3138194 21.212945,12.3159257 C21.3909986,12.3685834 21.5583261,12.4602077 21.7031288,12.5886925 C21.8876181,12.7508781 22.0131137,12.9530836 22.0796157,13.1689801 C22.0796157,13.1710864 22.0817609,13.1721396 22.0817609,13.1742459 C22.092487,13.2100531 22.1021405,13.2458603 22.1107214,13.2837739 C22.1128667,13.2943054 22.1150119,13.3027306 22.1160845,13.3132622 C22.1214476,13.3438036 22.1268106,13.3722388 22.1311011,13.4027802 C22.1332463,13.4175244 22.1343189,13.4333217 22.1343189,13.449119 C22.1386093,13.4743947 22.1386093,13.5007235 22.139682,13.5281055 C22.139682,13.538637 22.1418272,13.5481154 22.1418272,13.5565407" id="Fill-28" fill="#FEFEFE" mask="url(#mask-8)"></path>
                    </g>
                </g>
            </g>
        </g>
    </g>
</svg>