<?xml version="1.0" encoding="UTF-8"?>
<svg width="174px" height="45px" viewBox="0 0 174 45" version="1.1" xmlns="http://www.w3.org/2000/svg" xmlns:xlink="http://www.w3.org/1999/xlink">
    <!-- Generator: Sketch 43.1 (39012) - http://www.bohemiancoding.com/sketch -->
    <title>logo</title>
    <desc>Created with Sketch.</desc>
    <defs>
        <polygon id="path-1" points="0.301863218 0.198775173 4.15121577 0.198775173 4.15121577 4.05788411 0.301863218 4.05788411 0.301863218 0.198775173"></polygon>
        <polygon id="path-3" points="0 25.1522775 120.563353 25.1522775 120.563353 0.198775173 0 0.198775173"></polygon>
        <polygon id="path-5" points="2.26880439e-16 44.5168271 2.26880439e-16 0.55384496 41.6743877 0.55384496 41.6743877 44.5168271 0 44.5168271"></polygon>
        <polygon id="path-7" points="0 44.5217102 41.6749165 44.5217102 41.6749165 0.558466237 0 0.558466237"></polygon>
    </defs>
    <g id="Page-2" stroke="none" stroke-width="1" fill="none" fill-rule="evenodd">
        <g id="001_01_home" transform="translate(-36.000000, -24.000000)">
            <g id="导航">
                <g id="logo" transform="translate(36.000000, 24.000000)">
                    <g id="Page-1" transform="translate(53.336683, 11.283019)">
                        <polygon id="Fill-1" fill="#000000" points="62.2050785 19.6232406 65.809785 19.6232406 65.809785 6.37770698 62.2050785 6.37770698"></polygon>
                        <g id="Group-24" transform="translate(0.000000, 0.300684)">
                            <path d="M81.7924344,19.3230678 L78.1864537,19.3230678 L78.1864537,11.5867159 C78.1864537,10.6314846 78.0169854,9.91378405 77.6780487,9.4361684 C77.339112,8.95855275 76.8001262,8.71974492 76.0585429,8.71974492 C75.0506521,8.71974492 74.3218108,9.05688538 73.8720189,9.73244335 C73.4235011,10.4080013 73.1979681,11.5279717 73.1979681,13.0910775 L73.1979681,19.3230678 L69.5932615,19.3230678 L69.5932615,6.07753426 L72.8322732,6.07753426 L72.8322732,7.7721759 L73.0323223,7.7721759 C73.4349689,7.13237525 73.9879709,6.64837436 74.6938767,6.32017323 C75.3985082,5.9919721 76.2012531,5.82851006 77.0995627,5.82851006 C78.6362457,5.82851006 79.802137,6.24610449 80.5985108,7.07873927 C81.3948846,7.91137404 81.7924344,9.11435251 81.7924344,10.6863976 L81.7924344,19.3230678 Z" id="Fill-2" fill="#000000"></path>
                            <path d="M21.9534144,9.12827232 C22.3853676,8.64427143 22.9842407,8.39907837 23.7500338,8.39907837 C24.5132785,8.39907837 25.1197968,8.64427143 25.5708629,9.12827232 C26.0193807,9.61227321 26.2512847,10.3018787 26.2665751,11.1958117 L21.2092827,11.1958117 C21.2717184,10.3018787 21.5189129,9.61227321 21.9534144,9.12827232 L21.9534144,9.12827232 Z M24.3782135,16.289953 L24.3782135,16.3001694 C22.6312878,16.3001694 21.1481212,15.1699826 20.6155064,13.5992146 L29.6482969,13.5992146 L29.6482969,11.8471058 C29.6482969,9.96856938 29.1271499,8.49357986 28.0886784,7.42724545 C27.0489328,6.36091103 25.5925243,5.82838235 23.725824,5.82838235 C21.7712041,5.82838235 20.2396179,6.43370273 19.133614,7.64817461 C18.0263358,8.85881536 17.4733338,10.5764438 17.4733338,12.7946748 C17.4733338,13.0717941 17.4835274,13.3386969 17.5026404,13.5992146 L17.5243017,13.5992146 C18.1269974,16.8467456 20.9633625,19.3050615 24.3782135,19.3050615 L24.3782135,19.3229401 L29.6712325,19.3229401 L29.6712325,16.289953 L24.3782135,16.289953 Z" id="Fill-4" fill="#000000"></path>
                            <path d="M35.5121567,11.195684 C35.5733182,10.301751 35.8243353,9.61342255 36.2562884,9.12814462 C36.69079,8.64414373 37.2896631,8.39895066 38.0516336,8.39895066 C38.8148783,8.39895066 39.4213966,8.64414373 39.8724627,9.12814462 C40.3209805,9.61342255 40.5516103,10.301751 40.5681749,11.195684 L35.5121567,11.195684 Z M38.6798133,16.2898253 L38.6798133,16.3000417 C36.9316135,16.3000417 35.449721,15.1698549 34.915832,13.5990869 L43.9498968,13.5990869 L43.951171,13.5990869 L43.951171,11.8469781 C43.951171,9.96844167 43.4325723,8.49345216 42.3902782,7.42711774 C41.3518068,6.36078333 39.8979467,5.82825465 38.028698,5.82825465 L38.028698,5.82825465 L38.0274238,5.82825465 C36.0715297,5.82825465 34.5412178,6.43357502 33.4339396,7.64804691 C32.3279356,8.85868766 31.7736594,10.5763161 31.7736594,12.7945471 C31.7736594,13.0716664 31.7851272,13.3385692 31.8042402,13.5990869 L31.8055144,13.5990869 L31.8246273,13.5990869 C32.4273231,16.8466179 35.2649623,19.3049338 38.6798133,19.3049338 L38.6798133,19.3228124 L43.9728323,19.3228124 L43.9728323,16.2898253 L38.6798133,16.2898253 Z" id="Fill-6" fill="#000000"></path>
                            <path d="M56.5338775,13.5995977 C56.5338775,14.932835 55.4457123,16.0247103 54.1141752,16.0247103 C52.7839124,16.0247103 51.694473,14.932835 51.694473,13.5995977 L51.694473,11.767035 C51.694473,10.4325206 52.7839124,9.34192232 54.1141752,9.34192232 C55.4457123,9.34192232 56.5338775,10.4325206 56.5338775,11.767035 L56.5338775,13.5995977 Z M54.9271136,6.07778967 L54.5474026,6.07778967 C52.8374287,6.07778967 51.3364233,7.0010948 50.5056461,8.37264349 L50.5056461,6.12120928 L46.884375,6.12120928 L46.884375,25.1517667 L50.5056461,25.1517667 L50.5056461,17.3758263 C51.3364233,18.747375 52.8374287,19.6706801 54.5474026,19.6706801 L54.9271136,19.6706801 C57.5290262,19.6706801 59.6582113,17.5367342 59.6582113,14.9290038 L59.6582113,10.8194659 C59.6582113,8.21173554 57.5290262,6.07778967 54.9271136,6.07778967 L54.9271136,6.07778967 Z" id="Fill-8" fill="#000000"></path>
                            <g id="Group-12" transform="translate(61.932522, 0.000000)">
                                <mask id="mask-2" fill="white">
                                    <use xlink:href="#path-1"></use>
                                </mask>
                                <g id="Clip-11"></g>
                                <path d="M4.15121577,2.12826579 C4.15121577,1.06320842 3.28985783,0.198647468 2.2259024,0.198647468 C1.16322115,0.198647468 0.301863218,1.06320842 0.301863218,2.12826579 C0.301863218,3.19332316 1.16322115,4.05788411 2.2259024,4.05788411 C3.28985783,4.05788411 4.15121577,3.19332316 4.15121577,2.12826579" id="Fill-10" fill="#000000" mask="url(#mask-2)"></path>
                            </g>
                            <path d="M15.9386896,17.5100439 C15.9386896,18.5891488 15.0582187,19.4728655 13.9827954,19.4728655 L6.60773666,19.4728655 C5.67247524,19.4728655 4.89394018,18.8151862 4.69771367,17.9378547 C4.69771367,17.9327465 4.69516527,17.9276384 4.69516527,17.9212531 C4.66840711,17.7897173 4.65184253,17.6530732 4.65184253,17.512598 C4.65184253,17.213769 4.71937504,16.9289874 4.84297225,16.6761321 C4.84552065,16.672301 4.84552065,16.6671928 4.84806905,16.6646387 C4.92324674,16.5088389 5.0175374,16.3632555 5.12711844,16.2342738 L5.12457004,16.2342738 L5.73745934,15.5497765 L13.9827954,15.5497765 C14.5205071,15.5497765 15.0097991,15.7707056 15.3640262,16.1257248 C15.7182533,16.4820209 15.9386896,16.97113 15.9386896,17.5100439" id="Fill-13" fill="#12CE83"></path>
                            <path d="M15.6993952,3.72457479 C15.6993952,3.73862231 15.6968468,3.74883869 15.6968468,3.76160916 C15.6968468,3.79992058 15.6942984,3.83823199 15.69175,3.87526636 C15.6892016,3.90208435 15.685379,3.92890234 15.6828306,3.95572034 C15.6777338,3.99403175 15.672637,4.03106612 15.6649918,4.06937754 C15.6611692,4.09619553 15.6560724,4.12045942 15.6509756,4.14472332 C15.6433304,4.18431178 15.6318627,4.22773139 15.6191207,4.27115099 C15.6140239,4.28775261 15.6102013,4.30563127 15.6051045,4.32223288 C15.5898141,4.37331477 15.5707012,4.42184256 15.5490398,4.47037036 C15.5464914,4.47803264 15.543943,4.48697197 15.5413946,4.49463425 C15.5171848,4.54827024 15.4904267,4.60446031 15.4636685,4.6555422 L15.4598459,4.6580963 C15.4012328,4.7691994 15.3311519,4.87391727 15.2508774,4.97097286 L15.248329,4.97097286 C15.2317645,4.99268266 15.2164741,5.01439247 15.1973611,5.03610227 L5.75045616,15.5500319 L5.13756686,16.2345292 L5.14138946,16.2345292 C5.03053422,16.3635109 4.93624356,16.5090943 4.86106587,16.6648941 C4.85851747,16.6674482 4.85851747,16.6725564 4.85596907,16.6751105 C4.73237186,16.9292429 4.66483936,17.2140244 4.66483936,17.5128534 C4.66483936,17.6533286 4.68140393,17.7899727 4.70816209,17.9215085 C4.70816209,17.9278938 4.71071049,17.933002 4.71071049,17.9381101 C4.906937,18.8154416 5.68674626,19.4731209 6.62073349,19.4731209 L2.50889612,19.4731209 C2.48723475,19.475675 2.46557338,19.475675 2.44391201,19.475675 C2.39549249,19.475675 2.34962135,19.475675 2.30120182,19.4731209 C2.15976583,19.4641816 2.02215243,19.4424717 1.88836163,19.4130997 C1.88326484,19.4130997 1.87689385,19.4105456 1.87179705,19.4079915 C1.76221601,19.3811735 1.65390917,19.3454162 1.54942493,19.3058277 L1.54687653,19.3032736 L1.54177974,19.3032736 C1.54177974,19.3007195 1.53923134,19.3007195 1.53668295,19.3007195 C1.53413455,19.2981654 1.53158615,19.2981654 1.52776356,19.2943343 C1.49081181,19.2790097 1.45003747,19.2649622 1.41308573,19.2458065 C1.41053733,19.2458065 1.41053733,19.2432524 1.40798893,19.2432524 C1.39397275,19.2381442 1.37740818,19.2304819 1.3646662,19.2215426 C1.31879506,19.2011098 1.27547233,19.1768459 1.23342379,19.152582 C1.23342379,19.152582 1.2296012,19.152582 1.2296012,19.1500279 C1.093262,19.070851 0.962019588,18.9776266 0.843519162,18.8690776 C0.800196426,18.8345973 0.760696284,18.7937318 0.719921944,18.7541433 C0.717373547,18.7515892 0.714825151,18.7515892 0.714825151,18.7477581 C0.676599207,18.7107237 0.644744254,18.6724123 0.610340904,18.6353779 C0.58613114,18.6085599 0.564469772,18.5817419 0.540260007,18.5523698 C0.533889017,18.5434305 0.526243828,18.5357682 0.518598639,18.528106 C0.494388875,18.4949027 0.47017911,18.4604225 0.445969346,18.4284963 C0.440872553,18.422111 0.438324157,18.4195569 0.434501562,18.4144488 C0.431953166,18.4093406 0.42940477,18.4067865 0.424307977,18.4016783 C0.392453024,18.3582587 0.363146467,18.312285 0.338936703,18.2663113 C0.332565712,18.258649 0.330017316,18.2471556 0.324920523,18.2394933 C0.319823731,18.2292769 0.310904344,18.2152294 0.305807551,18.205013 C0.29306557,18.178195 0.276500994,18.1539311 0.263759013,18.1271131 C0.257388022,18.1156197 0.25229123,18.1028492 0.247194437,18.0888017 C0.230629862,18.0568755 0.215339484,18.0236723 0.201323305,17.989192 L0.198774908,17.9866379 C0.174565144,17.9355561 0.155452172,17.8844742 0.1363392,17.8333923 C0.107032643,17.7491072 0.0853712747,17.6660991 0.0649841046,17.5779828 C0.0649841046,17.5690435 0.0611615103,17.5639353 0.058613114,17.556273 C0.0535163215,17.5371173 0.048419529,17.5179616 0.0458711327,17.4988059 C0.0433227364,17.4860354 0.0407743402,17.4694338 0.0369517458,17.4541093 C0.0369517458,17.447724 0.0344033495,17.4400617 0.0344033495,17.4323995 C0.0318549533,17.4234601 0.0318549533,17.4157978 0.029306557,17.4081356 C0.0242097645,17.3698241 0.019112972,17.3302357 0.0140161794,17.2893702 L0.0140161794,17.2548899 C0.010193585,17.2382883 0.010193585,17.2242408 0.00764518878,17.2089162 L0.00764518878,17.1923146 C0.00254839626,17.1386786 0,17.0850426 0,17.0288525 C0,16.6482925 0.0853712747,16.2907193 0.239549249,15.9701804 C0.239549249,15.9676263 0.242097645,15.9676263 0.242097645,15.9650722 C0.324920523,15.7926708 0.424307977,15.6279318 0.5453568,15.4836254 C0.550453592,15.4772402 0.553001989,15.472132 0.555550385,15.4695779 L0.714825151,15.2920683 L0.717373547,15.2895142 L9.34496909,5.68739634 L1.9737329,5.68739634 C0.897035484,5.68739634 0.0165645757,4.80367968 0.0165645757,3.72457479 C0.0165645757,2.64546991 0.897035484,1.76175324 1.9737329,1.76175324 L13.7409526,1.76175324 C13.7575172,1.76175324 13.7766302,1.76430734 13.794469,1.76430734 C13.8225013,1.76813848 13.8492595,1.76813848 13.878566,1.77069257 C13.910421,1.77324667 13.9448243,1.77580076 13.9779535,1.77835486 C14.0149052,1.78346305 14.0505828,1.78857123 14.0849861,1.79751056 C14.1091959,1.80006466 14.1334057,1.80517285 14.1576154,1.81028104 C14.206035,1.81922037 14.2544545,1.83199084 14.3054224,1.84859245 C14.3105192,1.85114655 14.3194386,1.85114655 14.3270838,1.85370064 C14.5895686,1.93415462 14.836763,2.07207571 15.0521025,2.26490984 C15.3235067,2.5101029 15.5082654,2.81404014 15.6076529,3.14096422 C15.6076529,3.14351832 15.6102013,3.14607241 15.6102013,3.1486265 C15.6267659,3.20226249 15.6407821,3.25589847 15.653524,3.31208855 C15.6560724,3.32869016 15.6586208,3.34273768 15.6611692,3.35806225 C15.6700886,3.40403594 15.6777338,3.44745555 15.6828306,3.49342925 C15.685379,3.51513905 15.6892016,3.53940295 15.6892016,3.56366684 C15.6942984,3.60070121 15.6942984,3.64156672 15.6968468,3.68115519 C15.6968468,3.6977568 15.6993952,3.71052727 15.6993952,3.72457479" id="Fill-15" fill="#000000"></path>
                            <mask id="mask-4" fill="white">
                                <use xlink:href="#path-3"></use>
                            </mask>
                            <g id="Clip-18"></g>
                            <path d="M89.662774,13.9781145 L99.5696645,13.9781145 L99.5696645,12.584856 L89.662774,12.584856 L89.662774,13.9781145 Z M88.2560593,11.3244104 L88.2560593,12.584856 L88.2560593,19.2867997 L89.662774,19.2867997 L89.662774,18.6572154 L98.5515802,18.6572154 L98.5515802,17.2473553 L89.662774,17.2473553 L89.662774,15.3879746 L99.5696645,15.3879746 L99.5696645,19.2867997 L100.976379,19.2867997 L100.976379,12.584856 L100.976379,11.3244104 L100.976379,11.1749959 L88.2560593,11.1749959 L88.2560593,11.3244104 Z" id="Fill-17" fill="#000000" mask="url(#mask-4)"></path>
                            <path d="M97.1232041,8.02068928 L101.266896,8.02068928 L101.266896,3.62764691 L97.1232041,3.62764691 L97.1232041,8.02068928 Z M101.266896,2.2177868 L97.1232041,2.2177868 L95.8515544,2.2177868 L95.7164894,2.2177868 L95.7164894,9.43438053 L97.1232041,9.43438053 L97.1232041,9.43054939 L101.266896,9.43054939 L102.644305,9.43054939 L102.673611,9.43054939 L102.673611,2.2177868 L102.119335,2.2177868 L101.266896,2.2177868 Z" id="Fill-19" fill="#000000" mask="url(#mask-4)"></path>
                            <path d="M105.395298,17.8731084 L109.538991,17.8731084 L109.538991,12.6282756 L105.395298,12.6282756 L105.395298,17.8731084 Z M109.538991,11.2184155 L105.395298,11.2184155 L104.123649,11.2184155 L103.988584,11.2184155 L103.988584,19.2867997 L105.395298,19.2867997 L109.538991,19.2867997 L110.945705,19.2867997 L110.945705,11.2184155 L110.391429,11.2184155 L109.538991,11.2184155 Z" id="Fill-20" fill="#000000" mask="url(#mask-4)"></path>
                            <path d="M115.011672,17.8731084 L119.155364,17.8731084 L119.155364,12.6282756 L115.011672,12.6282756 L115.011672,17.8731084 Z M120.009077,11.2184155 L119.155364,11.2184155 L115.011672,11.2184155 L113.741296,11.2184155 L113.604957,11.2184155 L113.604957,19.2867997 L115.011672,19.2867997 L119.155364,19.2867997 L120.563353,19.2867997 L120.563353,17.8731084 L120.563353,11.2184155 L120.009077,11.2184155 Z" id="Fill-21" fill="#000000" mask="url(#mask-4)"></path>
                            <path d="M107.304047,8.02068928 L117.109002,8.02068928 L117.109002,3.62764691 L107.304047,3.62764691 L107.304047,8.02068928 Z M107.304047,9.43054939 L117.109002,9.43054939 L117.109002,9.43438053 L118.515717,9.43438053 L118.515717,2.2177868 L117.96144,2.2177868 L117.109002,2.2177868 L107.304047,2.2177868 L106.033672,2.2177868 L105.897332,2.2177868 L105.897332,8.02068928 L105.897332,9.43054939 L105.897332,9.43438053 L107.304047,9.43438053 L107.304047,9.43054939 Z" id="Fill-22" fill="#000000" mask="url(#mask-4)"></path>
                            <polygon id="Fill-23" fill="#000000" mask="url(#mask-4)" points="91.9768453 6.95026832 90.9931643 7.93614876 92.4597664 9.42007761 94.483193 9.45328083 91.9997808 6.95026832 94.3634184 6.95026832 94.3634184 5.54040821 91.2046812 5.54040821 91.2046812 3.79596173 94.3634184 3.79596173 94.3634184 2.38610162 89.158319 2.38610162 89.8310956 1.71309774 87.8535401 1.70160432 85.3025955 4.25697577 87.2916187 4.25825282 87.7516043 3.79596173 89.7979665 3.79596173 89.7979665 5.54040821 85.4376605 5.54040821 85.4376605 6.95026832 88.6970593 6.95026832 85.3408214 10.3140106 87.3183769 10.3267811 90.6873568 6.95026832"></polygon>
                        </g>
                    </g>
                    <g id="Page-1">
                        <g id="Group-3" transform="translate(0.000000, 0.004621)">
                            <mask id="mask-6" fill="white">
                                <use xlink:href="#path-5"></use>
                            </mask>
                            <g id="Clip-2"></g>
                            <path d="M26.5370576,2.05930816 C24.8066616,1.07338557 22.8356757,0.553583094 20.8369295,0.553583094 C18.8395052,0.553583094 16.8671974,1.07338557 15.1368013,2.05930816 L5.70224322,7.42885468 C2.18460848,9.43081436 -0.000528768844,13.1610845 -0.000528768844,17.1650039 L-0.000528768844,27.9040969 C-0.000528768844,31.9093256 2.18460848,35.6395958 5.70224322,37.6415555 L15.1368013,43.011102 C16.8671974,43.9957153 18.8395052,44.5168271 20.8369295,44.5168271 C22.8356757,44.5168271 24.8066616,43.9957153 26.5370576,43.011102 L35.9729376,37.6415555 C39.4905724,35.6395958 41.6743877,31.9093256 41.6743877,27.9040969 L41.6743877,17.1650039 C41.6743877,13.1610845 39.4905724,9.43081436 35.9729376,7.42885468 L26.5370576,2.05930816 Z" id="Fill-1" fill="#2B4EAF" mask="url(#mask-6)"></path>
                        </g>
                        <polygon id="Fill-4" fill="#FEFEFE" points="18.1376967 21.1927916 6.76652271 14.4301221 6.80485845 14.3672744 18.1760324 21.1286346"></polygon>
                        <polygon id="Fill-6" fill="#FEFEFE" points="6.50160952 14.7304815 6.4645957 14.6663245 20.51134 6.68990964 20.5496758 6.75406663"></polygon>
                        <polygon id="Fill-8" fill="#FEFEFE" points="27.8396796 18.4189842 27.8026658 18.3548272 34.5775166 14.4883871 34.6145305 14.5525441"></polygon>
                        <polygon id="Fill-10" fill="#FEFEFE" points="20.5709587 38.2355045 20.5339449 38.1713475 34.5727577 30.18053 34.6097715 30.244687"></polygon>
                        <mask id="mask-8" fill="white">
                            <use xlink:href="#path-7"></use>
                        </mask>
                        <g id="Clip-13"></g>
                        <polygon id="Fill-12" fill="#FEFEFE" mask="url(#mask-8)" points="6.78410427 30.2867164 6.85945383 30.2867164 6.85945383 14.504099 6.78410427 14.504099"></polygon>
                        <polygon id="Fill-14" fill="#FEFEFE" mask="url(#mask-8)" points="20.4593885 38.1780251 20.5347381 38.1780251 20.5347381 31.0552908 20.4593885 31.0552908"></polygon>
                        <path d="M6.88179432,15.4413147 C6.38078584,15.4413147 5.97495575,15.0380422 5.97495575,14.5418076 C5.97495575,14.045573 6.38078584,13.6423005 6.88179432,13.6423005 C7.38412472,13.6423005 7.78995481,14.045573 7.78995481,14.5418076 C7.78995481,15.0380422 7.38412472,15.4413147 6.88179432,15.4413147 Z" id="Fill-15" fill="#12CE83" mask="url(#mask-8)"></path>
                        <path d="M7.78995481,30.2488768 C7.78995481,30.7451115 7.38412472,31.1483839 6.88179432,31.1483839 C6.38078584,31.1483839 5.97495575,30.7451115 5.97495575,30.2488768 C5.97495575,29.7526422 6.38078584,29.3493698 6.88179432,29.3493698 C7.38412472,29.3493698 7.78995481,29.7526422 7.78995481,30.2488768" id="Fill-16" fill="#12CE83" mask="url(#mask-8)"></path>
                        <path d="M21.4044306,38.2283032 C21.4044306,38.7245378 20.9986005,39.1278102 20.4962701,39.1278102 C19.9952617,39.1278102 19.5894316,38.7245378 19.5894316,38.2283032 C19.5894316,37.7320686 19.9952617,37.3287961 20.4962701,37.3287961 C20.9986005,37.3287961 21.4044306,37.7320686 21.4044306,38.2283032" id="Fill-17" fill="#12CE83" mask="url(#mask-8)"></path>
                        <path d="M21.4044306,6.64382136 C21.4044306,7.14005597 20.9986005,7.54332843 20.4962701,7.54332843 C19.9952617,7.54332843 19.5894316,7.14005597 19.5894316,6.64382136 C19.5894316,6.14758675 19.9952617,5.7443143 20.4962701,5.7443143 C20.9986005,5.7443143 21.4044306,6.14758675 21.4044306,6.64382136" id="Fill-18" fill="#12CE83" mask="url(#mask-8)"></path>
                        <path d="M35.2436332,14.5395818 C35.2436332,15.0358164 34.8378031,15.4390888 34.3354727,15.4390888 C33.8344642,15.4390888 33.4286341,15.0358164 33.4286341,14.5395818 C33.4286341,14.0433471 33.8344642,13.6400747 34.3354727,13.6400747 C34.8378031,13.6400747 35.2436332,14.0433471 35.2436332,14.5395818" id="Fill-19" fill="#12CE83" mask="url(#mask-8)"></path>
                        <path d="M35.2436332,30.2531976 C35.2436332,30.7494322 34.8378031,31.1527047 34.3354727,31.1527047 C33.8344642,31.1527047 33.4286341,30.7494322 33.4286341,30.2531976 C33.4286341,29.756963 33.8344642,29.3536906 34.3354727,29.3536906 C34.8378031,29.3536906 35.2436332,29.756963 35.2436332,30.2531976" id="Fill-20" fill="#12CE83" mask="url(#mask-8)"></path>
                        <path d="M27.9372375,10.6123889 C27.9372375,10.8703262 27.72573,11.078509 27.4666332,11.078509 C27.2062146,11.078509 26.994707,10.8703262 26.994707,10.6123889 C26.994707,10.3544517 27.2062146,10.1462688 27.4666332,10.1462688 C27.72573,10.1462688 27.9372375,10.3544517 27.9372375,10.6123889" id="Fill-21" fill="#FEFEFE" mask="url(#mask-8)"></path>
                        <path d="M34.9027095,22.3912178 C34.9027095,22.6491551 34.6912019,22.857338 34.4321052,22.857338 C34.1716866,22.857338 33.960179,22.6491551 33.960179,22.3912178 C33.960179,22.1332806 34.1716866,21.9250977 34.4321052,21.9250977 C34.6912019,21.9250977 34.9027095,22.1332806 34.9027095,22.3912178" id="Fill-22" fill="#FEFEFE" mask="url(#mask-8)"></path>
                        <path d="M14.2070935,34.1724036 C14.2070935,34.4303408 13.995586,34.6385237 13.7364892,34.6385237 C13.4760706,34.6385237 13.264563,34.4303408 13.264563,34.1724036 C13.264563,33.9144663 13.4760706,33.7062835 13.7364892,33.7062835 C13.995586,33.7062835 14.2070935,33.9144663 14.2070935,34.1724036" id="Fill-23" fill="#FEFEFE" mask="url(#mask-8)"></path>
                        <path d="M14.202599,10.6182809 C14.202599,10.8762181 13.9910914,11.084401 13.7319947,11.084401 C13.471576,11.084401 13.2600685,10.8762181 13.2600685,10.6182809 C13.2600685,10.3603436 13.471576,10.1521608 13.7319947,10.1521608 C13.9910914,10.1521608 14.202599,10.3603436 14.202599,10.6182809" id="Fill-24" fill="#FEFEFE" mask="url(#mask-8)"></path>
                        <path d="M7.35319174,22.3912178 C7.35319174,22.6491551 7.1416842,22.857338 6.88258747,22.857338 C6.62216881,22.857338 6.41066128,22.6491551 6.41066128,22.3912178 C6.41066128,22.1332806 6.62216881,21.9250977 6.88258747,21.9250977 C7.1416842,21.9250977 7.35319174,22.1332806 7.35319174,22.3912178" id="Fill-25" fill="#FEFEFE" mask="url(#mask-8)"></path>
                        <path d="M27.9367087,34.1767244 C27.9367087,34.4346616 27.7252012,34.6428445 27.4661045,34.6428445 C27.2056858,34.6428445 26.9941783,34.4346616 26.9941783,34.1767244 C26.9941783,33.9187871 27.2056858,33.7106042 27.4661045,33.7106042 C27.7252012,33.7106042 27.9367087,33.9187871 27.9367087,34.1767244" id="Fill-26" fill="#FEFEFE" mask="url(#mask-8)"></path>
                        <path d="M27.4880484,28.2234802 C27.4880484,29.113822 26.7530597,29.8418073 25.8567965,29.8418073 L19.7006052,29.8418073 C18.9206712,29.8418073 18.2702855,29.2997463 18.1076891,28.5769983 C18.1076891,28.571761 18.1050452,28.567833 18.1050452,28.5625957 C18.0825726,28.4539216 18.0693533,28.3413196 18.0693533,28.2260989 C18.0693533,27.9786362 18.1248741,27.7442669 18.227984,27.5347747 C18.2306278,27.5334654 18.2306278,27.528228 18.2332717,27.5269187 C18.295402,27.3972954 18.3733954,27.2781468 18.46593,27.170782 L18.4632861,27.170782 L18.97487,26.6077718 L25.8567965,26.6077718 C26.3049281,26.6077718 26.7120801,26.7897681 27.0081906,27.0817478 C27.3043012,27.3750369 27.4880484,27.7796187 27.4880484,28.2234802" id="Fill-27" fill="#12CE83" mask="url(#mask-8)"></path>
                        <path d="M27.2883059,16.8540776 C27.2883059,16.8645522 27.2856621,16.8737175 27.2856621,16.8855014 C27.2856621,16.9156159 27.2843402,16.9470397 27.2816963,16.9784636 C27.2790525,17.0007221 27.2777306,17.0229807 27.2750867,17.0452392 C27.269799,17.076663 27.2658333,17.1067775 27.2592236,17.1382014 C27.2565798,17.1604599 27.252614,17.1800998 27.2473264,17.1997397 C27.2407167,17.2337822 27.2327852,17.269134 27.2208879,17.3044858 C27.2169221,17.317579 27.2142783,17.3332909 27.2103125,17.3463842 C27.1957714,17.389592 27.1812302,17.4288718 27.1627233,17.4694609 C27.1600795,17.4760075 27.1587576,17.4825541 27.1561137,17.4891008 C27.1362849,17.5336178 27.1138122,17.5794443 27.0913395,17.622652 L27.0886957,17.6239614 C27.0397846,17.7156142 26.98162,17.8020297 26.914202,17.8818986 L26.9115581,17.8818986 C26.8983389,17.9002292 26.8851197,17.9172504 26.8692566,17.935581 L18.9853132,26.607248 L18.4750512,27.1715676 L18.4763731,27.1715676 C18.3851605,27.277623 18.3071671,27.398081 18.2437149,27.526395 C18.241071,27.5290136 18.241071,27.5329416 18.2397491,27.5355603 C18.1366392,27.7437431 18.0797965,27.9794218 18.0797965,28.2255752 C18.0797965,28.3407959 18.0930157,28.4547072 18.1154884,28.5633813 C18.1154884,28.5673093 18.1181323,28.5725466 18.1181323,28.5764746 C18.2820506,29.3005319 18.9324363,29.8425929 19.7123703,29.8425929 L16.2806605,29.8425929 C16.2621536,29.8439023 16.2449686,29.8439023 16.2264617,29.8439023 C16.1854821,29.8439023 16.1484683,29.8439023 16.1074887,29.8425929 C15.9885157,29.834737 15.8748304,29.8177157 15.7624671,29.7928385 C15.7585013,29.7928385 15.7532136,29.7902199 15.7492478,29.7889106 C15.6567133,29.766652 15.5668226,29.7378469 15.4795757,29.7038044 L15.4782538,29.702495 L15.4729661,29.702495 C15.4729661,29.6998764 15.4716442,29.6998764 15.4690003,29.6998764 C15.4663565,29.6972577 15.4637127,29.6972577 15.4623907,29.6959484 C15.4306646,29.6815458 15.3976166,29.6710712 15.3658904,29.6553593 C15.3632466,29.6553593 15.3632466,29.6527407 15.3606027,29.6527407 C15.3500274,29.6488127 15.3368081,29.642266 15.3249108,29.6357194 C15.287897,29.6173888 15.2508832,29.597749 15.2151913,29.5781091 C15.2151913,29.5781091 15.2138694,29.5781091 15.2138694,29.5754904 C15.0988622,29.5113334 14.9891426,29.4340832 14.8899985,29.345049 C14.8543066,29.3162438 14.8212585,29.2822014 14.7868885,29.2494682 C14.7855666,29.2468495 14.7829228,29.2468495 14.7829228,29.2442309 C14.7511966,29.2141164 14.7247582,29.1826926 14.6956759,29.1512687 C14.6758471,29.1290102 14.6573402,29.1067516 14.6375113,29.0831838 C14.6322236,29.0766371 14.625614,29.0687812 14.6190044,29.0622346 C14.5991756,29.036048 14.5793468,29.0072429 14.558196,28.9810563 C14.5542302,28.975819 14.5515864,28.9745097 14.5502645,28.9692724 C14.5476206,28.9653444 14.5449768,28.9627258 14.541011,28.9587978 C14.5145726,28.923446 14.4894561,28.8854755 14.4696272,28.8475051 C14.4643395,28.8409584 14.4630176,28.8317932 14.4577299,28.8252465 C14.4537642,28.8160812 14.4471546,28.8056066 14.4418669,28.7964414 C14.4312915,28.7741828 14.4180723,28.7545429 14.406175,28.7322844 C14.4022092,28.7231191 14.3969215,28.7113352 14.3929557,28.7008605 C14.3797365,28.674674 14.3665173,28.6471782 14.35462,28.618373 L14.3519762,28.6170637 C14.3321473,28.5738559 14.3162843,28.5319575 14.3004212,28.490059 C14.2766266,28.4206647 14.2581197,28.3525798 14.2409347,28.2792575 C14.2409347,28.2727109 14.2382909,28.2674736 14.235647,28.260927 C14.2316812,28.245215 14.2263936,28.2295031 14.2250716,28.2151005 C14.2224278,28.2033166 14.219784,28.1902233 14.218462,28.1771301 C14.218462,28.1718928 14.2158182,28.1653462 14.2158182,28.1587995 C14.2131743,28.1522529 14.2131743,28.1457063 14.2118524,28.1391596 C14.2065647,28.1077358 14.202599,28.0750026 14.1973113,28.0409602 L14.1973113,28.012155 C14.1959894,27.9990617 14.1959894,27.9885871 14.1933455,27.9741845 L14.1933455,27.9610913 C14.1893797,27.9165742 14.1867359,27.8720571 14.1867359,27.8262307 C14.1867359,27.5133017 14.2581197,27.217394 14.3863461,26.9529101 C14.3863461,26.9516008 14.38899,26.9516008 14.38899,26.9489822 C14.4577299,26.8075749 14.541011,26.671405 14.6414771,26.5522563 C14.6467648,26.547019 14.6480867,26.5430911 14.6507306,26.5404724 L14.7829228,26.3938279 L14.7855666,26.3912092 L21.9847544,18.4724047 L15.8338508,18.4724047 C14.9349438,18.4724047 14.1999551,17.7444194 14.1999551,16.8540776 C14.1999551,15.9637358 14.9349438,15.2357505 15.8338508,15.2357505 L25.6544102,15.2357505 C25.6676294,15.2357505 25.6834925,15.2383691 25.6993556,15.2383691 C25.7218282,15.2396784 25.7443009,15.2396784 25.7680955,15.2422971 C25.7958559,15.2449157 25.8249382,15.2462251 25.8513766,15.2488437 C25.8831027,15.2527717 25.912185,15.258009 25.9412673,15.2645556 C25.9610961,15.2671743 25.980925,15.2711023 26.0020757,15.2750302 C26.0417334,15.2815769 26.082713,15.2933608 26.1250145,15.3064541 C26.1289802,15.3090727 26.1355899,15.3090727 26.1435214,15.3116914 C26.3629605,15.3771577 26.5691803,15.4910691 26.7476398,15.6508069 C26.9750104,15.8524431 27.1296753,16.1038337 27.2116345,16.3722456 C27.2116345,16.3748642 27.2142783,16.3761735 27.2142783,16.3787922 C27.2274975,16.4233093 27.2393948,16.4678264 27.2499702,16.5149621 C27.252614,16.5280554 27.2552579,16.53853 27.2565798,16.5516232 C27.2631894,16.5895937 27.269799,16.6249455 27.2750867,16.662916 C27.2777306,16.6812465 27.2790525,16.7008864 27.2790525,16.7205263 C27.2843402,16.7519501 27.2843402,16.7846833 27.2856621,16.8187258 C27.2856621,16.831819 27.2883059,16.843603 27.2883059,16.8540776" id="Fill-28" fill="#FEFEFE" mask="url(#mask-8)"></path>
                    </g>
                </g>
            </g>
        </g>
    </g>
</svg>