<?xml version="1.0" encoding="UTF-8"?>
<svg width="16px" height="12px" viewBox="0 0 16 12" version="1.1" xmlns="http://www.w3.org/2000/svg" xmlns:xlink="http://www.w3.org/1999/xlink">
    <!-- Generator: Sketch 45.2 (43514) - http://www.bohemiancoding.com/sketch -->
    <title>browse</title>
    <desc>Created with Sketch.</desc>
    <defs></defs>
    <g id="Page-3" stroke="none" stroke-width="1" fill="none" fill-rule="evenodd">
        <g id="007_05_提醒" transform="translate(-478.000000, -252.000000)" fill-rule="nonzero" fill="#000000">
            <g id="browse" transform="translate(478.000000, 252.000000)">
                <path d="M15.8810149,5.20744906 L15.8570179,5.16745406 C13.5621047,1.74548181 10.9848269,0.0104986929 8.19557557,0.0104986929 C3.50376205,0.0104986929 0.144581921,5.15745532 0.119385071,5.20744906 C-0.0385951811,5.51421074 -0.0385951811,5.83937008 0.119385071,6.14733159 L0.155380583,6.20492438 C2.70186227,9.59850019 5.2679415,11.248294 8,11.248294 C9.20304962,11.248294 10.3005124,10.9175353 11.2731908,10.4183977 C11.7811274,10.1580303 12.3494563,9.82207224 12.6902137,9.52210975 C12.7614048,9.45891762 12.7994001,9.34933132 12.7994001,9.24134483 C12.7994001,9.02017246 12.6202225,8.84139483 12.3994501,8.84139483 C12.3114611,8.84139483 12.2346707,8.87579052 12.1686789,8.92338458 C12.1686789,8.92338458 11.2199975,9.56490438 10.6904637,9.81487313 C9.87576551,10.200425 8.97387825,10.447994 8,10.447994 C5.54510685,10.447994 3.19620049,8.91298587 0.819297591,5.75658043 C0.792500929,5.69218849 0.795700535,5.64099487 0.827296583,5.57980254 C0.854493181,5.53220847 3.98130233,0.810398693 8.19557557,0.810398693 C10.695663,0.810398693 13.0441695,2.41859767 15.1779028,5.59060117 C15.1871016,5.61139858 15.1923009,5.62899636 15.1955006,5.64179479 L15.1603049,5.69458817 C14.8967379,6.09453817 13.7796775,7.45716786 13.6584927,7.58995126 C13.5373079,7.72273466 13.4869142,7.77552805 13.4869142,7.90951132 C13.4869142,8.13068367 13.6660917,8.30946134 13.8868641,8.30946134 C14.0012498,8.30946134 14.0912386,8.2678665 14.176028,8.18307712 C14.2608174,8.09868767 15.5418573,6.56927882 15.8282215,6.13493313 L15.8406199,6.11613548 C16.0353956,5.89096362 16.0525934,5.54140731 15.8810149,5.20744906 L15.8810149,5.20744906 Z" id="Shape"></path>
                <path d="M6.13383328,5.58100238 C6.13383328,6.55968003 7.00612425,7.41797274 8,7.41797274 C9.01107361,7.41797274 9.86576677,6.57647794 9.86576677,5.58100238 C9.86576677,4.58552679 9.01107361,3.74483191 8,3.74483191 C7.00612425,3.74483191 6.13383328,4.60272465 6.13383328,5.58100238 L6.13383328,5.58100238 Z M9.06586676,5.58100238 C9.06586676,6.12373454 8.5575303,6.61807272 8,6.61807272 C7.44166978,6.61807272 6.93373329,6.12373454 6.93373329,5.58100238 C6.93373329,5.03867017 7.44206973,4.54473192 8,4.54473192 C8.55793027,4.54473192 9.06586676,5.03867017 9.06586676,5.58100238 L9.06586676,5.58100238 Z" id="Shape"></path>
            </g>
        </g>
    </g>
</svg>