<?xml version="1.0" encoding="UTF-8"?>
<svg width="50px" height="50px" viewBox="0 0 50 50" version="1.1" xmlns="http://www.w3.org/2000/svg" xmlns:xlink="http://www.w3.org/1999/xlink">
    <!-- Generator: Sketch 45.2 (43514) - http://www.bohemiancoding.com/sketch -->
    <title>Group 4</title>
    <desc>Created with Sketch.</desc>
    <defs></defs>
    <g id="Page-3" stroke="none" stroke-width="1" fill="none" fill-rule="evenodd">
        <g id="007_05_提醒" transform="translate(-435.000000, -399.000000)">
            <g id="Group-2" transform="translate(388.000000, 372.000000)">
                <g id="Group-4" transform="translate(47.000000, 27.000000)">
                    <circle id="Oval-11" fill="#B0D5FF" cx="25" cy="25" r="25"></circle>
                    <g id="browse" transform="translate(13.000000, 18.000000)" fill-rule="nonzero" fill="#FFFFFF">
                        <path d="M23.8215223,7.81117358 L23.7855268,7.75118109 C20.3431571,2.61822272 16.4772403,0.0157480394 12.2933634,0.0157480394 C5.25564307,0.0157480394 0.216872882,7.73618298 0.179077606,7.81117358 C-0.0578927717,8.27131611 -0.0578927717,8.75905512 0.179077606,9.22099739 L0.233070874,9.30738657 C4.0527934,14.3977503 7.90191224,16.872441 12,16.872441 C13.8045744,16.872441 15.4507686,16.376303 16.9097863,15.6275966 C17.671691,15.2370454 18.5241845,14.7331084 19.0353206,14.2831646 C19.1421072,14.1883764 19.1991001,14.023997 19.1991001,13.8620173 C19.1991001,13.5302587 18.9303337,13.2620923 18.5991751,13.2620923 C18.4671916,13.2620923 18.352006,13.3136858 18.2530183,13.3850769 C18.2530183,13.3850769 16.8299962,14.3473566 16.0356955,14.7223097 C14.8136483,15.3006374 13.4608174,15.671991 12,15.671991 C8.31766028,15.671991 4.79430073,13.3694788 1.22894639,8.63487064 C1.18875139,8.53828273 1.1935508,8.4614923 1.24094487,8.3697038 C1.28173977,8.29831271 5.9719535,1.21559804 12.2933634,1.21559804 C16.0434946,1.21559804 19.5662542,3.6278965 22.7668542,8.38590175 C22.7806524,8.41709787 22.7884514,8.44349454 22.7932508,8.46269218 L22.7404574,8.54188226 C22.3451069,9.14180726 20.6695163,11.1857518 20.487739,11.3849269 C20.3059618,11.584102 20.2303712,11.6632921 20.2303712,11.864267 C20.2303712,12.1960255 20.4991376,12.464192 20.8302962,12.464192 C21.0018747,12.464192 21.1368579,12.4017998 21.264042,12.2746157 C21.3912261,12.1480315 23.3127859,9.85391823 23.7423322,9.2023997 L23.7609299,9.17420322 C24.0530933,8.83644543 24.0788901,8.31211096 23.8215223,7.81117358 L23.8215223,7.81117358 Z" id="Shape"></path>
                        <path d="M9.20074991,8.37150357 C9.20074991,9.83952005 10.5091864,11.1269591 12,11.1269591 C13.5166104,11.1269591 14.7986502,9.86471691 14.7986502,8.37150357 C14.7986502,6.87829018 13.5166104,5.61724786 12,5.61724786 C10.5091864,5.61724786 9.20074991,6.90408697 9.20074991,8.37150357 L9.20074991,8.37150357 Z M13.5988001,8.37150357 C13.5988001,9.1856018 12.8362954,9.92710909 12,9.92710909 C11.1625047,9.92710909 10.4005999,9.1856018 10.4005999,8.37150357 C10.4005999,7.55800526 11.1631046,6.81709788 12,6.81709788 C12.8368954,6.81709788 13.5988001,7.55800526 13.5988001,8.37150357 L13.5988001,8.37150357 Z" id="Shape"></path>
                    </g>
                </g>
            </g>
        </g>
    </g>
</svg>