<?xml version="1.0" encoding="UTF-8"?>
<svg width="16px" height="15px" viewBox="0 0 16 15" version="1.1" xmlns="http://www.w3.org/2000/svg" xmlns:xlink="http://www.w3.org/1999/xlink">
    <!-- Generator: Sketch 45.2 (43514) - http://www.bohemiancoding.com/sketch -->
    <title>comments</title>
    <desc>Created with Sketch.</desc>
    <defs></defs>
    <g id="Page-3" stroke="none" stroke-width="1" fill="none" fill-rule="evenodd">
        <g id="007_05_提醒" transform="translate(-688.000000, -251.000000)" fill-rule="nonzero" fill="#3C4146">
            <g id="comments" transform="translate(688.000000, 251.000000)">
                <path d="M2.05083617,11.6770833 C1.37203602,11.6770833 0.820512812,11.1167809 0.820512812,10.4284005 L0.820512812,0.427083328 L0.410256406,0.84375 L13.9508333,0.84375 C14.6286185,0.84375 15.1794872,1.40395759 15.1794872,2.09243286 L15.1794872,12.09375 L15.5897436,11.6770833 L8.2051282,11.6770833 L8.0817863,11.6770833 L7.9788933,11.7461627 L4.4673827,14.1036885 C4.27836886,14.2305869 4.2264317,14.4890785 4.3513778,14.6810457 C4.47632386,14.8730128 4.73083867,14.9257615 4.9198525,14.7988631 L8.43136309,12.4413373 L8.2051282,12.5104167 L15.5897436,12.5104167 L16,12.5104167 L16,12.09375 L16,2.09243286 C16,0.943963906 15.0820155,0.0104166719 13.9508333,0.0104166719 L0.410256406,0.0104166719 L0,0.0104166719 L0,0.427083328 L0,10.4284005 C0,11.5769643 0.918826266,12.5104167 2.05083617,12.5104167 L4.18933286,12.5104167 C4.41591123,12.5104167 4.59958927,12.3238686 4.59958927,12.09375 C4.59958927,11.8636314 4.41591123,11.6770833 4.18933286,11.6770833 L2.05083617,11.6770833 Z" id="Shape"></path>
                <path d="M5.74358973,6.26041667 C5.74358973,5.33994209 5.00887753,4.59375 4.10256409,4.59375 C3.19625067,4.59375 2.46153845,5.33994209 2.46153845,6.26041667 C2.46153845,7.18089123 3.19625067,7.92708333 4.10256409,7.92708333 C5.00887753,7.92708333 5.74358973,7.18089123 5.74358973,6.26041667 Z M3.28205128,6.26041667 C3.28205128,5.80017936 3.64940741,5.42708333 4.10256409,5.42708333 C4.55572083,5.42708333 4.92307694,5.80017936 4.92307694,6.26041667 C4.92307694,6.72065397 4.55572083,7.09375 4.10256409,7.09375 C3.64940741,7.09375 3.28205128,6.72065397 3.28205128,6.26041667 Z" id="Shape"></path>
                <path d="M9.84615383,6.26041667 C9.84615383,5.33994209 9.11144164,4.59375 8.2051282,4.59375 C7.29881477,4.59375 6.56410256,5.33994209 6.56410256,6.26041667 C6.56410256,7.18089123 7.29881477,7.92708333 8.2051282,7.92708333 C9.11144164,7.92708333 9.84615383,7.18089123 9.84615383,6.26041667 Z M7.38461541,6.26041667 C7.38461541,5.80017936 7.7519715,5.42708333 8.2051282,5.42708333 C8.65828494,5.42708333 9.02564103,5.80017936 9.02564103,6.26041667 C9.02564103,6.72065397 8.65828494,7.09375 8.2051282,7.09375 C7.7519715,7.09375 7.38461541,6.72065397 7.38461541,6.26041667 Z" id="Shape"></path>
                <path d="M13.9487179,6.26041667 C13.9487179,5.33994209 13.2140057,4.59375 12.3076923,4.59375 C11.4013789,4.59375 10.6666667,5.33994209 10.6666667,6.26041667 C10.6666667,7.18089123 11.4013789,7.92708333 12.3076923,7.92708333 C13.2140057,7.92708333 13.9487179,7.18089123 13.9487179,6.26041667 Z M11.4871795,6.26041667 C11.4871795,5.80017936 11.8545356,5.42708333 12.3076923,5.42708333 C12.760849,5.42708333 13.1282051,5.80017936 13.1282051,6.26041667 C13.1282051,6.72065397 12.760849,7.09375 12.3076923,7.09375 C11.8545356,7.09375 11.4871795,6.72065397 11.4871795,6.26041667 Z" id="Shape"></path>
            </g>
        </g>
    </g>
</svg>