<?xml version="1.0" encoding="UTF-8"?>
<svg width="50px" height="50px" viewBox="0 0 50 50" version="1.1" xmlns="http://www.w3.org/2000/svg" xmlns:xlink="http://www.w3.org/1999/xlink">
    <!-- Generator: Sketch 45.2 (43514) - http://www.bohemiancoding.com/sketch -->
    <title>Group 6</title>
    <desc>Created with Sketch.</desc>
    <defs></defs>
    <g id="Page-3" stroke="none" stroke-width="1" fill="none" fill-rule="evenodd">
        <g id="007_05_提醒" transform="translate(-435.000000, -624.000000)">
            <g id="Group-2-Copy-2" transform="translate(388.000000, 597.000000)">
                <g id="Group-6" transform="translate(47.000000, 27.000000)">
                    <circle id="Oval-11" fill="#507EFD" cx="25" cy="25" r="25"></circle>
                    <g id="trust" transform="translate(11.000000, 14.000000)" fill-rule="nonzero" fill="#FFFFFF">
                        <path d="M22.5974483,0.0169186507 L18.1837241,2.21006699 L19.2513104,4.30400001 C19.2010345,4.32237322 19.1631724,4.35360767 19.1197241,4.38484211 C18.9751034,4.49630624 18.5232414,4.79395217 18.1464827,4.861933 C17.4128276,4.95196171 16.9584827,4.58388517 16.3253793,4.78782775 C15.9672414,4.87479425 15.4272414,5.19693781 14.8307586,5.63054546 C14.2845517,5.32677514 13.3553793,4.84968422 12.8215862,4.78170336 C12.3684828,4.72780863 11.5845517,4.86866986 11.3772414,4.84968422 C11.0569655,4.82457416 10.6361379,4.58327274 10.4542759,4.4595598 L11.6031724,2.21067942 L7.19565516,0.01753111 L0,14.1110048 L4.41434484,16.2980287 L9.88944828,5.57358853 C10.1911034,5.7591579 10.8254483,6.08742586 11.3791034,6.08742583 C11.8495862,6.08742583 12.1251724,5.94350239 12.6521379,6.00780861 C12.8402069,6.03230621 13.2802759,6.22461244 13.7507586,6.45978947 C12.8993873,7.15711076 12.0701603,7.88034266 11.2642759,8.62844018 C10.3754483,9.56853589 10.3617931,10.7272727 11.0445517,11.5203828 C11.8396552,12.4966124 12.7868276,12.2559234 13.6129655,11.9184689 L15.9535862,10.7260478 C16.2931034,10.5490526 16.5289655,10.4265646 16.532069,10.4314641 L21.4857931,14.656689 C21.6552414,14.805512 21.762,15.0033301 21.7806207,15.2268708 C21.7992414,15.4559235 21.7303448,15.6727273 21.5795172,15.8399234 C21.0457241,16.4597129 20.6565517,16.1308325 20.6565517,16.1308325 L19.701931,15.4063158 L18.9297931,16.3849952 C18.9297931,16.3849952 19.6504138,16.9221053 19.8782069,17.1162488 C20.016,17.2332249 20.0290345,17.339177 20.0166207,17.4261436 C20.0042069,17.5994641 19.8912414,17.8101436 19.7025517,18.0269474 C19.413931,18.3613397 19.2004138,18.4544306 19.0433793,18.4544306 C18.8987586,18.4544306 18.8050345,18.3735885 18.7547586,18.3307177 C18.3789311,18.0569309 18.0021703,17.7843935 17.6244828,17.51311 L16.8709655,18.5046507 L17.9757931,19.316134 C18.1073793,19.4398469 18.1204138,19.5390622 18.1142069,19.6321531 C18.0955862,19.7993493 17.9757931,20.0222775 17.7877241,20.2452057 C17.5866207,20.468134 17.3861379,20.6230813 17.2036552,20.672689 C17.0975172,20.7008612 17.01,20.7106603 16.8523448,20.5918469 L15.5085517,19.5139522 L14.7171724,20.4742584 L16.0044828,21.5086699 C16.173931,21.645244 16.1863448,21.7567081 16.173931,21.855311 C16.1553103,22.0286316 16.0355173,22.2454354 15.8412414,22.4689761 C15.6967254,22.6361625 15.4914277,22.7406363 15.2695862,22.7598852 C15.0436552,22.7782584 14.823931,22.7041531 14.6166207,22.5369569 L8.61144829,17.5443445 C8.32903448,17.3397895 7.93986207,17.3955215 7.73255173,17.6680574 C7.5252414,17.9405933 7.58172415,18.3307177 7.85793103,18.5352727 L13.8376552,23.5033876 C14.2152499,23.8230538 14.6963325,23.9988081 15.1938621,23.9988517 C15.9597931,23.9682297 16.4042069,23.6656842 16.8014483,23.2737225 C17.360069,22.7225263 17.4295862,21.9232919 17.4295862,21.8920574 C17.4674483,21.8798086 18.378,21.4645741 18.7417241,21.0432153 C19.2730345,20.45711 19.3692414,19.8452823 19.3698621,19.6554258 C19.8155172,19.5623349 20.2617931,19.289799 20.6571724,18.8316938 C21.040138,18.3858373 21.2474483,17.9087464 21.2722759,17.4622775 C21.2971034,17.4561531 22.0543448,17.237512 22.5403448,16.6446698 C22.7476552,16.402756 22.8916552,16.1240957 22.9673793,15.8209378 C22.9922069,15.808689 24.5873793,14.7491675 24.5873793,14.7491675 L25.3787586,16.2980287 L29.7931034,14.1110048 L22.5974483,0.0169186507 Z M3.85510344,14.6377033 L1.68889655,13.5598086 L7.74806897,1.67724402 L9.92048277,2.75513877 L3.85510344,14.6377033 Z M22.8426207,14.4147751 C22.7150684,14.1462305 22.5309799,13.9075907 22.3026207,13.714756 L17.0410345,9.22311962 C16.8489844,9.06069195 16.5774365,9.0265075 16.3502069,9.13615312 C16.2558621,9.17963638 14.0052414,10.3438852 13.2151034,10.7952536 C12.7868276,11.0377799 12.276,11.0757512 11.979931,10.6366316 C11.6956552,10.2220096 11.8204138,9.83311005 12.0997241,9.55751196 C13.8326897,7.94679425 16.0541379,6.12662202 16.6202069,5.99494737 C17.2173104,5.83142584 17.558069,6.16704307 18.3717931,6.07578947 C19.0011724,6.02373207 19.6212414,5.55521532 19.8223448,5.41312918 L24.0163448,13.6284019 L22.8426207,14.4147751 L22.8426207,14.4147751 Z M19.8726207,2.75513877 L22.0388276,1.67724402 L28.1042069,13.5598086 L25.9317931,14.6377033 L19.8726207,2.75513877 L19.8726207,2.75513877 Z" id="Shape"></path>
                    </g>
                </g>
            </g>
        </g>
    </g>
</svg>