<?xml version="1.0" encoding="UTF-8"?>
<svg width="50px" height="50px" viewBox="0 0 50 50" version="1.1" xmlns="http://www.w3.org/2000/svg" xmlns:xlink="http://www.w3.org/1999/xlink">
    <!-- Generator: Sketch 45.2 (43514) - http://www.bohemiancoding.com/sketch -->
    <title>Group 5</title>
    <desc>Created with Sketch.</desc>
    <defs></defs>
    <g id="Page-3" stroke="none" stroke-width="1" fill="none" fill-rule="evenodd">
        <g id="007_05_提醒" transform="translate(-435.000000, -511.000000)">
            <g id="Group-2-Copy" transform="translate(388.000000, 484.000000)">
                <g id="Group-5" transform="translate(47.000000, 27.000000)">
                    <circle id="Oval-11" fill="#D2DBE5" cx="25" cy="25" r="25"></circle>
                    <g id="comments" transform="translate(13.000000, 16.000000)" fill-rule="nonzero" fill="#FAFBFF">
                        <path d="M3.07625426,17.515625 C2.05805402,17.515625 1.23076922,16.6751713 1.23076922,15.6426007 L1.23076922,0.640624992 L0.615384609,1.265625 L20.9262499,1.265625 C21.9429278,1.265625 22.7692308,2.10593639 22.7692308,3.13864929 L22.7692308,18.140625 L23.3846154,17.515625 L12.3076923,17.515625 L12.1226794,17.515625 L11.9683399,17.6192441 L6.70107405,21.1555328 C6.41755329,21.3458804 6.33964755,21.7336178 6.5270667,22.0215685 C6.71448579,22.3095192 7.09625801,22.3886423 7.37977875,22.1982947 L12.6470446,18.6620059 L12.3076923,18.765625 L23.3846154,18.765625 L24,18.765625 L24,18.140625 L24,3.13864929 C24,1.41594586 22.6230232,0.0156250078 20.9262499,0.0156250078 L0.615384609,0.0156250078 L0,0.0156250078 L0,0.640624992 L0,15.6426007 C0,17.3654464 1.3782394,18.765625 3.07625426,18.765625 L6.28399929,18.765625 C6.62386685,18.765625 6.8993839,18.485803 6.8993839,18.140625 C6.8993839,17.795447 6.62386685,17.515625 6.28399929,17.515625 L3.07625426,17.515625 Z" id="Shape"></path>
                        <path d="M8.6153846,9.39062501 C8.6153846,8.00991314 7.5133163,6.890625 6.15384614,6.890625 C4.79437601,6.890625 3.69230768,8.00991314 3.69230768,9.39062501 C3.69230768,10.7713369 4.79437601,11.890625 6.15384614,11.890625 C7.5133163,11.890625 8.6153846,10.7713369 8.6153846,9.39062501 Z M4.92307692,9.39062501 C4.92307692,8.70026904 5.47411111,8.14062499 6.15384614,8.14062499 C6.83358124,8.14062499 7.38461541,8.70026904 7.38461541,9.39062501 C7.38461541,10.080981 6.83358124,10.640625 6.15384614,10.640625 C5.47411111,10.640625 4.92307692,10.080981 4.92307692,9.39062501 Z" id="Shape"></path>
                        <path d="M14.7692307,9.39062501 C14.7692307,8.00991314 13.6671625,6.890625 12.3076923,6.890625 C10.9482221,6.890625 9.84615384,8.00991314 9.84615384,9.39062501 C9.84615384,10.7713369 10.9482221,11.890625 12.3076923,11.890625 C13.6671625,11.890625 14.7692307,10.7713369 14.7692307,9.39062501 Z M11.0769231,9.39062501 C11.0769231,8.70026904 11.6279573,8.14062499 12.3076923,8.14062499 C12.9874274,8.14062499 13.5384615,8.70026904 13.5384615,9.39062501 C13.5384615,10.080981 12.9874274,10.640625 12.3076923,10.640625 C11.6279573,10.640625 11.0769231,10.080981 11.0769231,9.39062501 Z" id="Shape"></path>
                        <path d="M20.9230769,9.39062501 C20.9230769,8.00991314 19.8210086,6.890625 18.4615384,6.890625 C17.1020683,6.890625 16,8.00991314 16,9.39062501 C16,10.7713369 17.1020683,11.890625 18.4615384,11.890625 C19.8210086,11.890625 20.9230769,10.7713369 20.9230769,9.39062501 Z M17.2307693,9.39062501 C17.2307693,8.70026904 17.7818034,8.14062499 18.4615384,8.14062499 C19.1412735,8.14062499 19.6923077,8.70026904 19.6923077,9.39062501 C19.6923077,10.080981 19.1412735,10.640625 18.4615384,10.640625 C17.7818034,10.640625 17.2307693,10.080981 17.2307693,9.39062501 Z" id="Shape"></path>
                    </g>
                </g>
            </g>
        </g>
    </g>
</svg>