<?xml version="1.0" encoding="UTF-8"?>
<svg width="20px" height="16px" viewBox="0 0 20 16" version="1.1" xmlns="http://www.w3.org/2000/svg" xmlns:xlink="http://www.w3.org/1999/xlink">
    <!-- Generator: Sketch 45.2 (43514) - http://www.bohemiancoding.com/sketch -->
    <title>trust</title>
    <desc>Created with Sketch.</desc>
    <defs></defs>
    <g id="Page-3" stroke="none" stroke-width="1" fill="none" fill-rule="evenodd">
        <g id="007_05_提醒" transform="translate(-878.000000, -250.000000)" fill-rule="nonzero" fill="#3C4146">
            <g id="trust" transform="translate(878.000000, 250.000000)">
                <path d="M15.0649655,0 L12.1224828,1.46209889 L12.8342069,2.85805424 C12.8006897,2.87030304 12.7754483,2.89112601 12.7464828,2.91194898 C12.650069,2.98625839 12.3488276,3.18468901 12.0976552,3.23000957 C11.6085517,3.29002871 11.3056552,3.04464434 10.8835862,3.18060607 C10.6448276,3.23858373 10.2848276,3.45334611 9.88717242,3.74241788 C9.5230345,3.53990433 8.90358622,3.22184371 8.54772414,3.17652314 C8.24565519,3.14059332 7.7230345,3.2345008 7.58482759,3.22184371 C7.37131034,3.20510367 7.09075862,3.04423606 6.96951723,2.96176077 L7.73544827,1.46250718 L4.79710344,0.00040830622 L0,9.39605742 L2.94289656,10.8540734 L6.59296552,3.70444658 C6.79406897,3.8281595 7.21696552,4.0470048 7.58606897,4.04700478 C7.89972414,4.04700478 8.08344828,3.95105583 8.43475863,3.99392664 C8.56013794,4.01025837 8.85351724,4.13846253 9.16717242,4.29524722 C8.59959152,4.76012807 8.04677354,5.24228267 7.50951723,5.74101435 C6.91696552,6.36774482 6.90786206,7.14023604 7.36303448,7.66897608 C7.89310344,8.31979585 8.52455172,8.15933652 9.07531035,7.93436683 L10.6357241,7.13941946 C10.862069,7.02142266 11.0193104,6.93976396 11.0213793,6.94303032 L14.3238621,9.75984689 C14.4368276,9.8590622 14.508,9.990941 14.5204138,10.1399681 C14.5328276,10.2926699 14.4868966,10.4372058 14.3863448,10.5486699 C14.0304828,10.9618628 13.7710345,10.7426092 13.7710345,10.7426093 L13.1346207,10.2595981 L12.6198621,10.912051 C12.6198621,10.912051 13.1002759,11.2701244 13.2521379,11.3995534 C13.344,11.4775375 13.3526896,11.5481722 13.3444138,11.6061499 C13.3361379,11.721697 13.2608276,11.8621499 13.1350345,12.0066858 C12.9426207,12.229614 12.8002759,12.2916747 12.6955862,12.2916746 C12.5991724,12.2916746 12.5366897,12.2377799 12.5031724,12.2091994 C12.2526207,12.0266748 12.0014469,11.8449832 11.7496552,11.6641276 L11.2473103,12.3251547 L11.9838621,12.8661435 C12.0715862,12.9486188 12.0802759,13.0147624 12.0761379,13.076823 C12.0637241,13.1882871 11.9838621,13.3369059 11.8584828,13.4855247 C11.7244138,13.6341435 11.5907586,13.7374418 11.4691034,13.7705136 C11.3983448,13.7892951 11.34,13.7958278 11.2348965,13.7166188 L10.3390345,12.9980223 L9.81144828,13.6382265 L10.6696552,14.3278341 C10.7826207,14.4188836 10.7908966,14.493193 10.7826207,14.5589282 C10.7702069,14.6744753 10.6903448,14.8190112 10.5608276,14.9680383 C10.4644836,15.0794959 10.3276185,15.1491451 10.1797241,15.1619777 C10.0291034,15.1742265 9.88262069,15.124823 9.7444138,15.0133589 L5.74096552,11.6849506 C5.55268966,11.5485806 5.29324138,11.5857353 5.15503449,11.7674258 C5.0168276,11.9491164 5.05448277,12.2091994 5.23862069,12.3455694 L9.22510344,15.6576459 C9.47683325,15.8707568 9.79755499,15.9879263 10.1292414,15.9879553 C10.6398621,15.9675407 10.9361379,15.7658437 11.2009655,15.5045359 C11.5733793,15.1370718 11.6197241,14.6042488 11.6197241,14.5834258 C11.6449655,14.57526 12.252,14.298437 12.4944828,14.0175311 C12.8486896,13.6267943 12.9128276,13.2189091 12.9132414,13.0923381 C13.2103448,13.0302775 13.5078621,12.8485869 13.7714483,12.5431834 C14.0267586,12.2459458 14.1649655,11.9278852 14.1815172,11.6302392 C14.198069,11.6261563 14.7028966,11.4803955 15.0268966,11.0851675 C15.1651034,10.9238915 15.2611035,10.738118 15.3115862,10.5360128 C15.3281379,10.5278469 16.3915862,9.82149922 16.3915862,9.82149922 L16.9191724,10.8540734 L19.862069,9.39605742 L15.0649655,0 Z M2.57006896,9.7471898 L1.12593103,9.0285933 L5.16537931,1.10688358 L6.61365518,1.82548008 L2.57006896,9.7471898 Z M15.2284138,9.59857099 C15.143379,9.41954122 15.0206533,9.26044803 14.8684138,9.13189156 L11.3606897,6.13746731 C11.2326562,6.0291822 11.0516244,6.00639257 10.9001379,6.07948965 C10.8372414,6.10847849 9.3368276,6.88464434 8.81006897,7.18555663 C8.52455172,7.34724084 8.18400001,7.37255504 7.9866207,7.07980861 C7.79710345,6.80339393 7.88027586,6.5441276 8.06648276,6.36039554 C9.22179311,5.28658373 10.7027586,4.07313558 11.0801379,3.98535248 C11.4782069,3.87633812 11.7053793,4.10008295 12.2478621,4.03924722 C12.6674483,4.00454228 13.0808276,3.69219778 13.2148965,3.59747368 L16.0108966,9.07432218 L15.2284138,9.59857099 L15.2284138,9.59857099 Z M13.2484138,1.82548008 L14.6925517,1.10688358 L18.7361379,9.0285933 L17.2878621,9.7471898 L13.2484138,1.82548008 L13.2484138,1.82548008 Z" id="Shape"></path>
            </g>
        </g>
    </g>
</svg>