<?xml version="1.0" encoding="UTF-8"?>
<svg width="30px" height="30px" viewBox="0 0 30 30" version="1.1" xmlns="http://www.w3.org/2000/svg" xmlns:xlink="http://www.w3.org/1999/xlink">
    <!-- Generator: Sketch 45.2 (43514) - http://www.bohemiancoding.com/sketch -->
    <title>支付宝</title>
    <desc>Created with Sketch.</desc>
    <defs></defs>
    <g id="Page-3" stroke="none" stroke-width="1" fill="none" fill-rule="evenodd">
        <g id="006_02_订单确认" transform="translate(-746.000000, -920.000000)" fill-rule="nonzero" fill="#1CACEA">
            <g id="支付宝" transform="translate(746.000000, 920.000000)">
                <path d="M20.2743072,15.6538581 C19.8881505,16.4261415 19.3794309,17.2191719 18.7469794,18.0335189 C18.7469794,18.0335189 23.5795149,20.3446129 28.681011,21.1588399 C29.5280374,19.2798937 30,17.1945574 30,14.99997 C30,6.71579906 23.2845307,0.000269853516 15.0003898,0.000269824219 C6.71615883,0.000269824219 -1.13686838e-13,6.71582903 -1.13686838e-13,14.99997 C-1.13686838e-13,23.284171 6.7161888,29.9997002 15.0003898,29.9997002 C20.1385228,29.9997002 24.6741253,27.4155682 27.3773123,23.4759002 C24.630143,22.8780468 21.7124711,21.6661803 17.2314942,19.6760641 C17.2314942,19.6760641 15.0003898,21.4611695 14.1887111,21.928575 C13.4748908,22.3394062 12.8058323,22.6129838 12.2092382,22.8027642 C11.612674,22.9925147 11.0900133,23.1116896 10.6405065,23.1609786 C10.1911196,23.209548 9.8195637,23.2415678 9.5245795,23.255539 C9.49594755,23.2695102 9.46131935,23.2768256 9.41871621,23.2768256 L9.08178847,23.2768256 C8.31013462,23.2768256 7.58375224,23.1855931 6.90327094,23.0025284 C6.22216005,22.8200933 5.62889379,22.5497237 5.12347222,22.1922289 C4.61817056,21.8340146 4.21861228,21.3845977 3.92296852,20.8446079 C3.62873388,20.3039285 3.48092701,19.6760641 3.48092701,18.960325 C3.49552781,18.3424443 3.66333211,17.7811379 3.98694823,17.2757463 C4.30921521,16.769785 4.7273018,16.3423143 5.23928924,15.9907258 C5.75130668,15.6399168 6.31995841,15.3735347 6.94518454,15.19044 C7.56966111,15.0086945 8.19752558,14.9314332 8.82946743,14.9594056 C9.44668857,14.9873779 10.0439123,15.0606218 10.6191599,15.1804863 C11.1950671,15.2996612 11.7457302,15.4434506 12.2724383,15.6119445 C12.798397,15.7804083 13.2971028,15.9628134 13.7671767,16.1592197 C14.2141854,16.3461019 14.6600725,16.5356559 15.104814,16.7278714 C15.2791666,16.8005087 15.4545439,16.8706616 15.6308925,16.9383089 C15.8132976,17.0088245 16.0030781,17.0788004 16.1994543,17.1493759 C16.6068976,16.6300131 16.9505412,16.120664 17.2314642,15.6225878 C17.5117876,15.123882 17.7434816,14.6677793 17.9259167,14.2536502 C18.1090413,13.8395211 18.2488732,13.4926097 18.3474211,13.2116267 C18.4459091,12.9306437 18.5085396,12.7342074 18.536542,12.6217183 L9.39805922,12.6217183 L9.39805922,11.6109951 L13.7146198,11.6109951 L13.7146198,9.27396741 L7.71357044,9.27396741 L7.71357044,8.26324415 L13.7146198,8.26324415 L13.7146198,6.36828797 C13.7146198,6.24176769 13.7852253,6.13992185 13.9250572,6.06272048 C14.0662383,5.98545914 14.2273868,5.93287228 14.4097918,5.90489991 C14.6201393,5.86295634 14.8585491,5.84163976 15.1255309,5.84163976 L16.7467596,5.84163976 L16.7467596,8.26324415 L22.9163627,8.26324415 L22.9163627,9.27396741 L16.7467596,9.27396741 L16.7467596,11.6109951 L21.6499605,11.6109951 C21.6505901,11.6043393 21.6519693,11.5969939 21.6532584,11.5903381 L21.6532584,11.6109951 L21.6499605,11.6109951 C21.5513526,12.2368808 21.3836083,12.8960155 21.1479568,13.590498 C20.9514906,14.1943176 20.6605239,14.8821442 20.2743072,15.6538581 L20.2743072,15.6538581 Z M5.43974297,19.001639 C5.38319859,21.5756374 8.29544388,21.7667969 8.7442911,21.7807381 C10.2283562,21.8260096 11.4268211,21.2660524 12.360343,20.7114618 C13.2938349,20.1567512 14.8172052,18.7246135 14.8731499,18.6753246 C14.9311157,18.6249092 14.9871026,18.5722627 15.0409842,18.517504 C14.6342004,18.2931553 14.2339826,18.0861058 13.8411401,17.8963253 C13.4482976,17.7072045 11.450806,16.6345102 9.67847256,16.450816 C6.32268671,16.103245 5.45638248,18.2185923 5.43974297,19.001639 L5.43974297,19.001639 Z" id="Shape"></path>
            </g>
        </g>
    </g>
</svg>