<?xml version="1.0" encoding="UTF-8"?>
<svg width="30px" height="24px" viewBox="0 0 30 24" version="1.1" xmlns="http://www.w3.org/2000/svg" xmlns:xlink="http://www.w3.org/1999/xlink">
    <!-- Generator: Sketch 45.2 (43514) - http://www.bohemiancoding.com/sketch -->
    <title>钱包</title>
    <desc>Created with Sketch.</desc>
    <defs></defs>
    <g id="Page-3" stroke="none" stroke-width="1" fill="none" fill-rule="evenodd">
        <g id="006_02_订单确认" transform="translate(-438.000000, -922.000000)" fill-rule="nonzero" fill="#469BFF">
            <g id="钱包" transform="translate(453.000000, 934.000000) scale(1, -1) translate(-453.000000, -934.000000) translate(438.000000, 922.000000)">
                <path d="M29.9448235,4.42364973 C29.9448235,1.98050134 27.9338235,0 25.4531176,0 L4.49170588,0 C2.01097059,0 0,1.9805303 0,4.42364973 L0,19.1692068 C0,21.6123552 2.011,23.5928565 4.49170588,23.5928565 L25.4530882,23.5928565 C27.9338235,23.5928565 29.9447941,21.6123262 29.9447941,19.1692068 L29.9447941,16.220078 L22.4586176,16.220078 C19.9778824,16.220078 17.9669118,14.2395477 17.9669118,11.7964283 C17.9669118,9.35330882 19.9779118,7.37277852 22.4586176,7.37277852 L29.9448235,7.37277852 L29.9448235,4.42364973 L29.9448235,4.42364973 Z" id="Shape"></path>
                <path d="M20,12.2118249 C20,13.4333846 21.0055,14.4236497 22.2458529,14.4236497 C23.4862059,14.4236497 24.4917059,13.4333846 24.4917059,12.2118249 C24.4917059,10.9902652 23.4862059,10 22.2458529,10 C21.0055,10 20,10.9902652 20,12.2118249 Z" id="Shape"></path>
            </g>
        </g>
    </g>
</svg>