<?xml version="1.0" encoding="UTF-8"?>
<svg width="9px" height="9px" viewBox="0 0 9 9" version="1.1" xmlns="http://www.w3.org/2000/svg" xmlns:xlink="http://www.w3.org/1999/xlink">
    <!-- Generator: Sketch 45.1 (43504) - http://www.bohemiancoding.com/sketch -->
    <title>head</title>
    <desc>Created with Sketch.</desc>
    <defs></defs>
    <g id="Page-2" stroke="none" stroke-width="1" fill="none" fill-rule="evenodd">
        <g id="004_03_已购买授权_详情" transform="translate(-609.000000, -426.000000)" fill-rule="nonzero" fill="#FEF8F8">
            <g id="Group-4" transform="translate(429.000000, 414.000000)">
                <g id="Group-5" transform="translate(175.000000, 8.000000)">
                    <g id="head" transform="translate(5.000000, 4.000000)">
                        <path d="M6.06290625,5.20982609 C6.486375,4.78301087 6.75,4.18451087 6.75,3.52173913 L6.75,2.34782609 C6.75,1.0511413 5.74265625,0 4.5,0 C3.25734375,0 2.25,1.0511413 2.25,2.34782609 L2.25,3.52173913 C2.25,4.18431522 2.513625,4.78261957 2.9368125,5.20953261 C1.22221875,5.48823913 0,6.21078261 0,7.05267391 L0,7.82608696 C0,8.47467391 0.5034375,9 1.125,9 L7.875,9 C8.4965625,9 9,8.47467391 9,7.82608696 L9,7.05570652 C9,6.21391304 7.7776875,5.48911957 6.06290625,5.20982609 Z M3,3.52173913 L3,2.34782609 C3,1.48343478 3.671625,0.782608696 4.5,0.782608696 C5.32846875,0.782608696 6,1.48343478 6,2.34782609 L6,3.52173913 C6,4.38613043 5.32846875,5.08695652 4.5,5.08695652 C3.671625,5.08695652 3,4.38613043 3,3.52173913 Z M8.25,7.82608696 C8.25,8.0418913 8.0818125,8.2173913 7.875,8.2173913 L1.125,8.2173913 C0.9181875,8.2173913 0.75,8.0418913 0.75,7.82608696 L0.75,7.05267391 C0.75,6.9615 0.96609375,6.6671413 1.608,6.38628261 C2.358375,6.05788043 3.4125,5.86956522 4.5,5.86956522 C5.5869375,5.86956522 6.64078125,6.05836957 7.3914375,6.38745652 C8.03371875,6.66919565 8.25,6.9641413 8.25,7.05570652 L8.25,7.82608696 Z" id="Shape"></path>
                    </g>
                </g>
            </g>
        </g>
    </g>
</svg>