<?xml version="1.0" encoding="UTF-8"?>
<svg width="24px" height="24px" viewBox="0 0 24 24" version="1.1" xmlns="http://www.w3.org/2000/svg" xmlns:xlink="http://www.w3.org/1999/xlink">
    <!-- Generator: Sketch 45.1 (43504) - http://www.bohemiancoding.com/sketch -->
    <title>thin 0021 calendar month day planner</title>
    <desc>Created with Sketch.</desc>
    <defs></defs>
    <g id="Page-2" stroke="none" stroke-width="1" fill="none" fill-rule="evenodd">
        <g id="004_03_已购买授权_详情" transform="translate(-708.000000, -421.000000)">
            <g id="Group-9" transform="translate(708.000000, 414.000000)">
                <g id="thin-0021-calendar-month-day-planner" transform="translate(0.000000, 7.000000)">
                    <g id="Group" fill-rule="nonzero" fill="#A1A9B2">
                        <path d="M21.1211,24 L2.8789,24 C1.2915,24 0,22.709 0,21.1211 L0,2.8784 C0,1.291 1.2915,0 2.8789,0 L21.1211,0 C22.709,0 24,1.291 24,2.8784 L24,21.1211 C24,22.709 22.709,24 21.1211,24 Z M2.8789,1 C1.8428,1 1,1.8428 1,2.8784 L1,21.1211 C1,22.1572 1.8428,23 2.8789,23 L21.1211,23 C22.1572,23 23,22.1572 23,21.1211 L23,2.8784 C23,1.8428 22.1572,1 21.1211,1 L2.8789,1 Z" id="Shape"></path>
                        <path d="M23.5,7 L0.5,7 C0.2236,7 0,6.7764 0,6.5 C0,6.2236 0.2236,6 0.5,6 L23.5,6 C23.7764,6 24,6.2236 24,6.5 C24,6.7764 23.7764,7 23.5,7 Z" id="Shape"></path>
                        <path d="M7.5098,4.0898 C7.3697,4.0898 7.2398,4.0297 7.1499,3.9399 C7.0601,3.8496 7.0098,3.7197 7.0098,3.5898 C7.0098,3.4599 7.0601,3.3296 7.1499,3.23 C7.3296,3.0498 7.6699,3.0401 7.8599,3.23 C7.9497,3.3296 8.0098,3.46 8.0098,3.5899 C8.0098,3.7198 7.9497,3.8496 7.8599,3.9399 C7.7598,4.04 7.6396,4.0898 7.5098,4.0898 Z" id="Shape"></path>
                        <path d="M16.5098,4.0898 C16.3702,4.0898 16.2403,4.0297 16.1494,3.9399 C16.0596,3.8496 16.0098,3.7197 16.0098,3.5898 C16.0098,3.4599 16.0596,3.3295 16.1494,3.2299 C16.3398,3.0497 16.6699,3.0497 16.8594,3.2299 C16.96,3.3295 17.0098,3.4599 17.0098,3.5898 C17.0098,3.7197 16.96,3.8398 16.8594,3.9399 C16.7695,4.04 16.6396,4.0898 16.5098,4.0898 Z" id="Shape"></path>
                        <path d="M16.5078,19.9229 C16.2314,19.9229 16.0078,19.6993 16.0078,19.4229 L16.0078,11.2256 L14.6123,11.7407 C14.3555,11.8364 14.0654,11.7036 13.9707,11.4448 C13.875,11.1855 14.0068,10.8979 14.2666,10.8022 L16.335,10.0385 C16.4854,9.9819 16.6592,10.0033 16.794,10.0976 C16.9278,10.1909 17.0079,10.3442 17.0079,10.5078 L17.0079,19.4228 C17.0078,19.6992 16.7842,19.9229 16.5078,19.9229 Z" id="Shape"></path>
                        <path d="M9.4531,20.0352 C7.9922,20.0352 6.4814,19.3116 5.9106,18.2569 C5.7788,18.0137 5.8691,17.71 6.1118,17.5792 C6.355,17.4483 6.6587,17.5372 6.7895,17.7804 C7.2475,18.6251 8.8188,19.2091 10.0253,18.9835 C10.6327,18.8692 11.3847,18.5089 11.5185,17.4396 C11.5966,16.8126 11.4726,16.3371 11.1391,15.9875 C10.4687,15.2854 9.0678,15.2346 8.581,15.2668 C8.373,15.2795 8.1918,15.1779 8.0991,15.0012 C8.0063,14.8235 8.0278,14.6076 8.1543,14.4533 L10.9619,11.008 L6.6704,11.008 C6.394,11.008 6.1704,10.7844 6.1704,10.508 C6.1704,10.2316 6.394,10.008 6.6704,10.008 L12.0146,10.008 C12.208,10.008 12.3837,10.1193 12.4658,10.2936 C12.5488,10.4679 12.5244,10.6745 12.4023,10.8239 L9.5654,14.3049 C10.2915,14.3918 11.2324,14.6369 11.8623,15.2971 C12.4092,15.8703 12.6269,16.6321 12.5107,17.5637 C12.3505,18.8459 11.5122,19.7219 10.2104,19.966 C9.9634,20.0127 9.7085,20.0352 9.4531,20.0352 Z" id="Shape"></path>
                    </g>
                    <rect id="Rectangle-path" x="0" y="0" width="24" height="24"></rect>
                </g>
            </g>
        </g>
    </g>
</svg>