<?xml version="1.0" encoding="UTF-8"?>
<svg width="118px" height="117px" viewBox="0 0 118 117" version="1.1" xmlns="http://www.w3.org/2000/svg" xmlns:xlink="http://www.w3.org/1999/xlink">
    <!-- Generator: Sketch 45.1 (43504) - http://www.bohemiancoding.com/sketch -->
    <title>Group 8</title>
    <desc>Created with Sketch.</desc>
    <defs></defs>
    <g id="Page-2" stroke="none" stroke-width="1" fill="none" fill-rule="evenodd" opacity="0.176279438">
        <g id="004_03_已购买授权_详情" transform="translate(-1028.000000, -245.000000)">
            <g id="Group-2-Copy-4" transform="translate(410.000000, 185.000000)">
                <g id="Group-8" transform="translate(594.000000, 36.000000)">
                    <g id="thin-0312-post-stamp-copy" transform="translate(78.184479, 78.184479) rotate(-20.000000) translate(-78.184479, -78.184479) translate(17.184479, 17.184479)">
                        <g id="Group" transform="translate(0.714169, 17.580228)" fill-rule="nonzero" fill="#768DA7">
                            <path d="M102.490356,95.5934736 C100.726894,95.5934736 98.9533145,95.0056529 97.3623539,93.8249527 C97.0117861,93.5679708 95.776452,92.7727435 94.7191841,93.6226048 C91.68093,96.0533093 87.5064922,96.1818002 84.3549232,93.9337147 C83.3421719,93.2027328 82.1715891,93.1926154 81.1487203,93.9337147 C78.1301951,96.0877084 74.2127392,96.0826497 71.1992727,93.9337147 C70.1865213,93.2027328 69.0159386,93.1926154 67.9930698,93.9337147 C64.9892148,96.0877084 61.0818763,96.0927671 58.0461515,93.9337147 C57.0283414,93.2027328 55.860288,93.2027328 54.8424779,93.9337147 C51.8290114,96.0826497 47.9186377,96.0927671 44.8930303,93.9337147 C43.8706674,93.2027328 42.7071668,93.2027328 41.6893568,93.9337147 C38.5301997,96.1812943 34.3704322,96.0730382 31.3276252,93.6226048 C30.2728867,92.7778022 29.0355291,93.563418 28.682432,93.8300114 C26.2001287,95.6678365 23.1765448,96.0578621 20.3704849,94.9166198 C17.3372895,93.6716741 15.1215797,90.7619109 14.5853577,87.3184551 C14.370363,85.935407 15.3163396,84.6408861 16.6973642,84.4284208 C18.0905297,84.2356844 19.3724038,85.1644614 19.5848691,86.5378979 C19.8489332,88.2421734 20.8864722,89.6601265 22.289755,90.233277 C22.9468799,90.5049291 24.2682119,90.8064275 25.6639067,89.7688885 C28.4750253,87.6695287 31.9478216,87.629565 34.4943703,89.6798554 C35.7838325,90.7123357 37.413745,90.7664638 38.7502531,89.813405 C41.5067378,87.847089 45.0736259,87.847089 47.8301105,89.813405 C49.0846677,90.7123357 50.6483113,90.7123357 51.9033743,89.813405 C54.6598589,87.847089 58.226747,87.847089 60.9832317,89.813405 C62.233236,90.7077829 63.7943503,90.7123357 65.0539661,89.8184637 C67.8205682,87.8425362 71.3773389,87.8475949 74.1338235,89.813405 C75.3984981,90.7123357 76.964671,90.7077829 78.2141695,89.813405 C80.9610426,87.8521477 84.522872,87.8425362 87.2889682,89.813405 C88.6325584,90.7720283 90.2680356,90.7123357 91.552439,89.6753026 C94.0868468,87.6401883 97.5545845,87.6745874 100.380373,89.759277 C102.371477,91.2460284 104.016566,90.2535118 104.826463,89.5417529 C106.382519,88.1536462 107.350754,85.441678 105.794698,82.7737206 C104.075752,79.8194409 104.040847,76.3269156 105.705665,73.6690756 C106.752815,71.9991993 106.807449,69.7121619 105.839215,67.9830988 C104.223972,65.083453 104.223972,61.4771071 105.839215,58.5718967 C106.767991,56.9121378 106.762933,54.7728143 105.839215,53.1130555 C105.157302,51.8928975 105.596903,50.3515121 106.812508,49.6695996 C108.023055,48.9927458 109.568993,49.427288 110.255964,50.6428931 C112.019426,53.8045795 112.019426,57.8849255 110.255964,61.0370003 C109.485524,62.4154956 109.485524,64.1344412 110.255964,65.5174893 C112.128188,68.8668534 112.024485,73.1202068 109.989371,76.3511974 C109.337304,77.3983479 109.406608,78.9200043 110.167437,80.2291954 C113.018013,85.1148861 111.333467,90.5145406 108.196568,93.3155418 C106.501398,94.8275867 104.505742,95.5934736 102.490356,95.5934736 Z" id="Shape"></path>
                            <path d="M16.9811571,43.5045641 C15.582933,43.5045641 14.451808,42.3709098 14.451808,40.9726857 C14.451808,38.9395948 15.0052296,36.988455 16.0498508,35.3261667 C16.7044464,34.283569 16.6351422,32.7649478 15.874314,31.4557567 C14.6597205,29.3705613 14.2024142,26.8513296 14.5853577,24.3690264 C15.1215797,20.9210177 17.339313,18.0087252 20.3750378,16.7663089 C23.1810977,15.6200079 26.2021522,16.0176216 28.6773733,17.8554466 C29.0304704,18.1174872 30.2607458,18.9076558 31.3276252,18.0603239 C34.3709381,15.6250666 38.5352584,15.5011285 41.6893568,17.7517433 C42.7071668,18.4731137 43.8731968,18.4751372 44.890501,17.749214 C47.9186377,15.5926909 51.818894,15.5926909 54.8424779,17.7517433 C55.860288,18.4731137 57.0258121,18.475643 58.0436222,17.749214 C61.0672061,15.5952203 64.964933,15.5926909 67.9981285,17.7517433 C69.1343121,18.5621468 69.3963527,20.1429899 68.5859492,21.2791736 C67.7709929,22.4204159 66.1997613,22.6799271 65.0539661,21.8669943 C63.799409,20.9751458 62.2428475,20.970593 60.9832317,21.8669943 C58.226747,23.8378631 54.6598589,23.8358396 51.9033743,21.8695236 C50.6488171,20.970593 49.0851735,20.9731223 47.8301105,21.8669943 C45.0736259,23.8378631 41.5067378,23.8358396 38.7502531,21.8695236 C37.4162744,20.9184884 35.7888912,20.970593 34.491841,22.0056026 C31.9473158,24.0427404 28.4891897,24.0108706 25.658848,21.9160637 C24.2606239,20.8739718 22.9443506,21.1800231 22.2922844,21.4466165 C20.8864722,22.0222963 19.8489332,23.4377201 19.5848691,25.1419955 C19.3774625,26.4830564 19.6121861,27.8220938 20.2470527,28.9112315 C21.971057,31.87057 22.0034327,35.3605659 20.3335564,38.0184059 C19.795311,38.87282 19.5110121,39.8956888 19.5110121,40.9726857 C19.5105062,42.3709098 18.3793813,43.5045641 16.9811571,43.5045641 Z" id="Shape"></path>
                            <path d="M27.1233412,38.2334006 C25.725117,38.2334006 24.5939921,37.1022757 24.5939921,35.7040515 L24.5939921,30.4774045 C24.5939921,29.0791803 25.725117,27.9480554 27.1233412,27.9480554 L62.1391442,27.9480554 C63.5373684,27.9480554 64.6684933,29.0791803 64.6684933,30.4774045 C64.6684933,31.8756287 63.5373684,33.0067536 62.1391442,33.0067536 L29.6526903,33.0067536 L29.6526903,35.7040515 C29.6526903,37.1022757 28.5215653,38.2334006 27.1233412,38.2334006 Z" id="Shape"></path>
                            <path d="M97.945116,83.5937356 L63.0724741,83.5937356 C61.6742499,83.5937356 60.543125,82.4626107 60.543125,81.0643865 C60.543125,79.6661623 61.6742499,78.5350374 63.0724741,78.5350374 L95.4157669,78.5350374 L95.4157669,55.7708955 C95.4157669,54.3726713 96.5468918,53.2415464 97.945116,53.2415464 C99.3433401,53.2415464 100.474465,54.3726713 100.474465,55.7708955 L100.474465,81.0643865 C100.474465,82.4626107 99.3433401,83.5937356 97.945116,83.5937356 Z" id="Shape"></path>
                            <path d="M95.376309,40.073755 C87.0077046,40.073755 80.2002144,33.1231037 80.2002144,24.5814917 C80.2002144,16.0398798 87.0077046,9.08922851 95.376309,9.08922851 C103.744913,9.08922851 110.552404,16.0398798 110.552404,24.5814917 C110.552404,33.1231037 103.744913,40.073755 95.376309,40.073755 Z M95.376309,14.1479267 C89.7990942,14.1479267 85.2589126,18.8287402 85.2589126,24.5814917 C85.2589126,30.3342433 89.7990942,35.0150568 95.376309,35.0150568 C100.953524,35.0150568 105.493705,30.3342433 105.493705,24.5814917 C105.493705,18.8287402 100.95403,14.1479267 95.376309,14.1479267 Z" id="Shape"></path>
                            <path d="M95.376309,49.0175334 C82.1958709,49.0175334 71.4759835,38.0553344 71.4759835,24.5809859 C71.4759835,11.1066374 82.1958709,0.144438355 95.376309,0.144438355 C108.556747,0.144438355 119.276635,11.1066374 119.276635,24.5809859 C119.276635,38.0553344 108.556747,49.0175334 95.376309,49.0175334 Z M95.376309,5.20364242 C84.9872605,5.20364242 76.5346817,13.8960035 76.5346817,24.5814917 C76.5346817,35.26698 84.9872605,43.9593411 95.376309,43.9593411 C105.765358,43.9593411 114.217936,35.26698 114.217936,24.5814917 C114.217936,13.8960035 105.765358,5.20364242 95.376309,5.20364242 Z" id="Shape"></path>
                            <path d="M46.6666099,56.4725369 C43.6086269,56.4725369 40.7383215,55.2574376 38.5823043,53.04881 C36.1890342,50.5887651 32.0439369,50.5933179 29.657749,53.0437513 C25.3452087,57.4701122 17.8011721,57.4650535 13.4886319,53.04881 C11.0973853,50.5887651 6.95279383,50.5887651 4.56205306,53.04881 C3.58623018,54.0418325 1.98312872,54.0711729 0.985553437,53.0882678 C-0.0150570664,52.1149743 -0.0347859894,50.5144022 0.941036893,49.5117682 C5.25357711,45.0955247 12.7976137,45.0955247 17.1101539,49.5117682 C19.5014006,51.9718131 23.645992,51.9718131 26.0367328,49.5117682 C30.3447202,45.1000775 37.8953331,45.090466 42.2033205,49.5168269 C44.5945671,51.9672603 48.7391586,51.972319 51.1298993,49.5117682 C52.1082516,48.5187458 53.711353,48.4894053 54.706399,49.4723104 C55.7070095,50.4456039 55.7267384,52.046176 54.7509155,53.04881 C52.5948983,55.2569318 49.724593,56.4725369 46.6666099,56.4725369 Z" id="Shape"></path>
                            <path d="M46.6666099,68.6695642 C43.6086269,68.6695642 40.7383215,67.4544649 38.5823043,65.2458372 C36.1890342,62.7807336 32.0439369,62.7903451 29.657749,65.2407785 C25.3452087,69.6671395 17.8011721,69.6620808 13.4886319,65.2458372 C11.0973853,62.7857923 6.95279383,62.7857923 4.56205306,65.2458372 C3.58623018,66.2439184 1.98312872,66.2732588 0.985553437,65.2852951 C-0.0150570664,64.3120015 -0.0347859894,62.7114294 0.941036893,61.7087954 C5.25357711,57.2925519 12.7976137,57.2925519 17.1101539,61.7087954 C19.5014006,64.1688404 23.645992,64.1688404 26.0367328,61.7087954 C30.3447202,57.2971047 37.8953331,57.2874932 42.2033205,61.7138541 C44.5945671,64.1642876 48.7391586,64.1693462 51.1298993,61.7087954 C52.1082516,60.7208317 53.711353,60.6909854 54.706399,61.6693376 C55.7070095,62.6426311 55.7267384,64.2432032 54.7509155,65.2458372 C52.5948983,67.4544649 49.724593,68.6695642 46.6666099,68.6695642 Z" id="Shape"></path>
                            <path d="M46.6666099,80.8665914 C43.6111562,80.8665914 40.7383215,79.6464334 38.5843278,77.4428645 C36.1834696,74.9777608 32.043431,74.9873723 29.657749,77.4378058 C25.3452087,81.8540493 17.7991486,81.8494965 13.4911613,77.4428645 C11.0953618,74.9828195 6.95279383,74.9828195 4.56205306,77.4428645 C3.58623018,78.4409456 1.98312872,78.4702861 0.985553437,77.4823223 C-0.0150570664,76.5090288 -0.0347859894,74.9084567 0.941036893,73.9058227 C5.25357711,69.4895791 12.7976137,69.4895791 17.1101539,73.9058227 C19.5014006,76.3562561 23.6434627,76.3562561 26.0392621,73.9058227 C30.3421908,69.494132 37.895839,69.4845204 42.2033205,73.9108814 C44.5945671,76.3511974 48.7366292,76.3562561 51.1324287,73.9058227 C52.1082516,72.9128002 53.7062943,72.8834598 54.7089283,73.8663648 C55.7070095,74.8396584 55.7267384,76.4452892 54.7483862,77.4428645 C52.5948983,79.6464334 49.7220636,80.8665914 46.6666099,80.8665914 Z" id="Shape"></path>
                        </g>
                        <rect id="Rectangle-path" x="0" y="1.56319402e-13" width="121.408757" height="121.408757"></rect>
                    </g>
                </g>
            </g>
        </g>
    </g>
</svg>