<?xml version="1.0" encoding="UTF-8"?>
<svg width="22px" height="29px" viewBox="0 0 22 29" version="1.1" xmlns="http://www.w3.org/2000/svg" xmlns:xlink="http://www.w3.org/1999/xlink">
    <!-- Generator: Sketch 45.1 (43504) - http://www.bohemiancoding.com/sketch -->
    <title>lilpapers 3</title>
    <desc>Created with Sketch.</desc>
    <defs></defs>
    <g id="Page-2" stroke="none" stroke-width="1" fill="none" fill-rule="evenodd">
        <g id="004_03_已购买授权_详情" transform="translate(-465.000000, -895.000000)" fill-rule="nonzero" fill="#4A90E2">
            <g id="Group-6-Copy" transform="translate(444.000000, 888.000000)">
                <g id="lilpapers-3" transform="translate(22.000000, 8.000000)">
                    <path d="M19.6875,0 L0.3125,0 C0.14,0 0,0.137454545 0,0.306818182 L0,26.6931818 C0,26.8625455 0.14,27 0.3125,27 L19.6875,27 C19.86,27 20,26.8625455 20,26.6931818 L20,0.306818182 C20,0.137454545 19.86,0 19.6875,0 Z M19.375,26.3863636 L0.625,26.3863636 L0.625,0.613636364 L19.375,0.613636364 L19.375,26.3863636 Z" id="Shape" stroke="#4A90E2" stroke-width="0.3"></path>
                    <path d="M2.3746875,23.1988295 C2.371875,23.2196932 2.3796875,23.2408636 2.3953125,23.2549773 L2.7678125,23.5887955 L2.876875,24.0726477 C2.8815625,24.0932045 2.89625,24.1103864 2.9159375,24.1183636 L3.3821875,24.3073636 L3.6525,24.7258636 C3.6640625,24.7436591 3.68375,24.7550114 3.705,24.7559318 L4.209375,24.7771023 L4.609375,25.0790114 C4.62625,25.0918977 4.64875,25.0955795 4.6690625,25.0894432 L5.1503125,24.9394091 L5.6315625,25.0894432 C5.638125,25.0912841 5.6446875,25.0925114 5.65125,25.0925114 C5.665625,25.0925114 5.6796875,25.0879091 5.69125,25.0793182 L6.09125,24.7774091 L6.5953125,24.7562386 C6.616875,24.7553182 6.6365625,24.7439659 6.6478125,24.7261705 L6.918125,24.3079773 L7.384375,24.1189773 C7.4040625,24.111 7.41875,24.0938182 7.4234375,24.0732614 L7.5325,23.5894091 L7.9053125,23.2552841 C7.92125,23.2411705 7.9290625,23.22 7.9259375,23.1991364 L7.8590625,22.7079205 L8.0921875,22.26825 C8.1021875,22.2495341 8.1021875,22.2274432 8.0921875,22.2087273 L7.8590625,21.7693636 L7.925625,21.2781477 C7.9284375,21.2572841 7.920625,21.2361136 7.905,21.222 L7.5325,20.8881818 L7.4234375,20.4046364 C7.41875,20.3840795 7.4040625,20.3668977 7.384375,20.3589205 L6.9178125,20.1699205 L6.6475,19.7514205 C6.6359375,19.733625 6.61625,19.7222727 6.595,19.7213523 L6.090625,19.699875 L5.6903125,19.3979659 C5.673125,19.3850795 5.6503125,19.3817045 5.630625,19.3875341 L5.149375,19.5375682 L4.6684375,19.3875341 C4.648125,19.3810909 4.625625,19.3847727 4.60875,19.3979659 L4.2084375,19.699875 L3.704375,19.7210455 C3.6828125,19.7219659 3.663125,19.7333182 3.651875,19.7511136 L3.3815625,20.1693068 L2.915,20.3583068 C2.8953125,20.3662841 2.880625,20.3834659 2.8759375,20.4040227 L2.7678125,20.8881818 L2.3953125,21.2223068 C2.379375,21.2364205 2.3715625,21.2575909 2.3746875,21.2784545 L2.44125,21.7696705 L2.208125,22.2090341 C2.198125,22.22775 2.198125,22.2498409 2.208125,22.2685568 L2.44125,22.7079205 L2.3746875,23.1988295 Z M2.3403125,22.2384886 L2.5671875,21.8107841 C2.5734375,21.7988182 2.5759375,21.785625 2.5740625,21.7724318 L2.5090625,21.2944091 L2.871875,20.9691818 C2.881875,20.9602841 2.88875,20.9483182 2.8915625,20.9354318 L2.9975,20.4644659 L3.4515625,20.280375 C3.4640625,20.2751591 3.4746875,20.2665682 3.481875,20.2552159 L3.745,19.8480682 L4.2353125,19.8275114 C4.24875,19.8268977 4.261875,19.8222955 4.2725,19.8143182 L4.6621875,19.5203864 L5.1303125,19.6664318 C5.143125,19.6704205 5.1571875,19.6704205 5.17,19.6664318 L5.6384375,19.5203864 L6.028125,19.8143182 C6.03875,19.8222955 6.051875,19.8272045 6.0653125,19.8275114 L6.5559375,19.848375 L6.8190625,20.2555227 C6.82625,20.266875 6.836875,20.2754659 6.849375,20.2806818 L7.3034375,20.4647727 L7.409375,20.9354318 C7.4121875,20.9483182 7.419375,20.9602841 7.4290625,20.9691818 L7.791875,21.2941023 L7.726875,21.772125 C7.725,21.7853182 7.7275,21.7985114 7.73375,21.8104773 L7.960625,22.2381818 L7.73375,22.6661932 C7.7275,22.6781591 7.725,22.6913523 7.726875,22.7045455 L7.791875,23.1825682 L7.4290625,23.5077955 C7.4190625,23.5166932 7.4121875,23.5286591 7.409375,23.5415455 L7.303125,24.0125114 L6.8490625,24.1962955 C6.8365625,24.2015114 6.8259375,24.2101023 6.81875,24.2214545 L6.555625,24.6286023 L6.0653125,24.6491591 C6.051875,24.6497727 6.03875,24.654375 6.028125,24.6623523 L5.63875,24.9562841 L5.1703125,24.8102386 C5.16375,24.8083977 5.1571875,24.8071705 5.150625,24.8071705 C5.1440625,24.8071705 5.1371875,24.8080909 5.1309375,24.8102386 L4.6625,24.9562841 L4.273125,24.6623523 C4.2625,24.654375 4.249375,24.6494659 4.2359375,24.6491591 L3.7453125,24.6286023 L3.4821875,24.2214545 C3.475,24.2101023 3.464375,24.2015114 3.451875,24.1962955 L2.9978125,24.0122045 L2.891875,23.5412386 C2.8890625,23.5283523 2.881875,23.5163864 2.8721875,23.5074886 L2.5096875,23.1825682 L2.5740625,22.7045455 C2.5759375,22.6913523 2.5734375,22.6781591 2.5671875,22.6661932 L2.3403125,22.2384886 Z" id="Shape"></path>
                    <path d="M5.1503125,24.6752386 C6.51875,24.6752386 7.631875,23.5823523 7.631875,22.2387955 C7.631875,20.8955455 6.51875,19.8023523 5.1503125,19.8023523 C3.7821875,19.8023523 2.66875,20.8952386 2.66875,22.2387955 C2.6690625,23.5820455 3.7821875,24.6752386 5.1503125,24.6752386 Z M5.1503125,20.1091705 C6.3465625,20.1091705 7.319375,21.0646023 7.319375,22.2387955 C7.319375,23.4132955 6.34625,24.3684205 5.1503125,24.3684205 C3.954375,24.3684205 2.98125,23.4129886 2.98125,22.2387955 C2.9815625,21.0642955 3.954375,20.1091705 5.1503125,20.1091705 Z" id="Shape"></path>
                    <path d="M5.1503125,23.7418977 C5.9946875,23.7418977 6.6815625,23.0675114 6.6815625,22.2384886 C6.6815625,21.4094659 5.9946875,20.7353864 5.1503125,20.7353864 C4.3059375,20.7353864 3.619375,21.4097727 3.619375,22.2384886 C3.619375,23.0672045 4.30625,23.7418977 5.1503125,23.7418977 Z M5.1503125,20.8581136 C5.925625,20.8581136 6.5565625,21.4772727 6.5565625,22.2384886 C6.5565625,22.9997045 5.925625,23.6191705 5.1503125,23.6191705 C4.375,23.6191705 3.744375,22.9997045 3.744375,22.2384886 C3.744375,21.4772727 4.375,20.8581136 5.1503125,20.8581136 Z" id="Shape"></path>
                    <path d="M14.768125,22.9929545 C14.4671875,22.9509205 14.2021875,23.0230227 13.923125,22.8886364 C13.7578125,22.8091705 13.8221875,22.6993295 13.5846875,22.7352273 C13.35125,22.7705114 13.1884375,23.0303864 13.0409375,23.2727727 C13.1271875,22.9021364 13.1946875,22.4870114 12.7471875,22.4805682 C12.684375,22.4796477 12.613125,22.4974432 12.54125,22.5262841 C12.326875,22.3590682 12.071875,22.2332727 11.8140625,22.1031818 C11.7915625,22.0918295 11.763125,22.0804773 11.734375,22.0688182 C12.1846875,21.6702614 12.6115625,21.2474659 13.0021875,20.8397045 C13.066875,20.7722045 13.001875,20.6721818 12.9134375,20.6896705 C12.205625,20.8298864 11.445625,21.1704545 11.0228125,21.7656818 C10.9915625,21.8098636 11.018125,21.8660114 11.056875,21.8933182 C11.1703125,21.9737045 11.28875,22.0427386 11.4096875,22.1074773 C11.27625,22.2363409 11.1440625,22.366125 11.0053125,22.4897727 C10.72875,22.7355341 10.25875,22.9496932 10.0653125,23.2485341 C10.084375,23.2190795 10.0378125,23.1819545 10.015,23.2104886 C10.0046875,23.223375 9.994375,23.2365682 9.98375,23.2494545 C9.973125,23.2629545 9.968125,23.2844318 9.98375,23.2973182 C9.989375,23.3019205 9.995,23.3065227 10.0003125,23.311125 C10.0125,23.32125 10.0290625,23.3249318 10.0434375,23.3166477 C10.576875,23.0128977 11.0953125,22.6232386 11.5865625,22.1998295 C11.6575,22.2357273 11.72875,22.271625 11.800625,22.3078295 C11.859375,22.3375909 12.1428125,22.4744318 12.355625,22.6296818 C12.2190625,22.7263295 12.114375,22.8542727 12.10625,22.9742386 C12.039375,22.9549091 11.9775,22.9404886 11.933125,22.9453977 C11.755625,22.9647273 11.69125,22.9941818 11.569375,23.1236591 C11.5240625,23.1718295 11.5340625,23.2764545 11.6134375,23.2875 C11.866875,23.3224773 11.9578125,23.1994432 12.13,23.0834659 C12.2271875,23.2721591 12.575,23.2948636 12.8121875,23.2264432 C12.795625,23.3758636 12.76,23.5495227 12.756875,23.7017045 C12.755,23.790375 12.8671875,23.8287273 12.9290625,23.7716591 C13.230625,23.4946023 13.293125,22.9895795 13.750625,23.0914432 C13.82625,23.1083182 13.933125,23.2516023 14.0784375,23.2779886 C14.1240625,23.2755341 14.1671875,23.2651023 14.2078125,23.2463864 C14.4375,23.0942045 14.6290625,23.1150682 14.783125,23.3086705 C14.8021875,23.3114318 14.84875,23.3362841 14.8684375,23.3433409 C15.1390625,23.4402955 15.546875,23.2970114 15.8221875,23.2835114 C16.174375,23.2663295 16.515625,23.2736932 16.865625,23.3154205 C17.0196875,23.3338295 17.0171875,23.0978864 16.865625,23.0788636 C16.1596875,22.9892727 15.4653125,23.0902159 14.768125,22.9929545 Z M11.414375,21.900375 C11.2609375,21.8718409 11.23375,21.8104773 11.3321875,21.7162841 C11.400625,21.5647159 11.5184375,21.4542614 11.6853125,21.3846136 C11.9884375,21.1796591 12.328125,21.0314659 12.6815625,20.9323636 C12.343125,21.3051477 11.9190625,21.6181023 11.559375,21.9657273 C11.5525,21.9721705 11.545625,21.9786136 11.53875,21.9850568 C11.489375,21.9602045 11.4434375,21.9335114 11.414375,21.900375 Z M12.5078125,23.0521705 C12.4575,23.0797841 12.35375,23.05125 12.244375,23.0165795 C12.3915625,22.9392614 12.5046875,22.8944659 12.588125,22.879125 C12.61125,22.9444773 12.594375,23.0046136 12.5078125,23.0521705 Z" id="Shape"></path>
                    <path d="M10,6.28977273 C11.1159375,6.28977273 12.02375,5.39846591 12.02375,4.30281818 C12.02375,3.20717045 11.1159375,2.31586364 10,2.31586364 C8.8840625,2.31586364 7.97625,3.20717045 7.97625,4.30281818 C7.97625,5.39846591 8.8840625,6.28977273 10,6.28977273 Z M10,2.62268182 C10.94375,2.62268182 11.71125,3.37653409 11.71125,4.30281818 C11.71125,5.22940909 10.9434375,5.98295455 10,5.98295455 C9.0565625,5.98295455 8.28875,5.22910227 8.28875,4.30281818 C8.28875,3.37653409 9.05625,2.62268182 10,2.62268182 Z" id="Shape"></path>
                    <rect id="Rectangle-path" x="3.75" y="7.21022727" width="12.5" height="1"></rect>
                    <rect id="Rectangle-path" x="7.5" y="8.4375" width="5" height="1"></rect>
                    <rect id="Rectangle-path" x="3.75" y="12.1193182" width="12.5" height="1"></rect>
                    <rect id="Rectangle-path" x="5" y="13.3465909" width="10" height="1"></rect>
                    <rect id="Rectangle-path" x="7.5" y="14.5738636" width="5" height="1"></rect>
                </g>
            </g>
        </g>
    </g>
</svg>