<?xml version="1.0" encoding="UTF-8"?>
<svg width="16px" height="17px" viewBox="0 0 16 17" version="1.1" xmlns="http://www.w3.org/2000/svg" xmlns:xlink="http://www.w3.org/1999/xlink">
    <!-- Generator: Sketch 45.1 (43504) - http://www.bohemiancoding.com/sketch -->
    <title>nc sample glyph ui attach</title>
    <desc>Created with Sketch.</desc>
    <defs></defs>
    <g id="Page-2" stroke="none" stroke-width="1" fill="none" fill-rule="evenodd">
        <g id="004_03_已购买授权_详情" transform="translate(-614.000000, -1029.000000)" fill-rule="nonzero" fill="#768DA7">
            <g id="Group-5" transform="translate(459.000000, 1022.000000)">
                <g id="nc-sample-glyph-ui-attach" transform="translate(155.000000, 7.000000)">
                    <path d="M14.6461538,8.12030075 L8.55384615,14.075188 C6.89230769,15.6992481 4.12307692,15.6992481 2.46153846,14.075188 C1.66153846,13.2932331 1.16923077,12.2105263 1.16923077,11.0676692 C1.16923077,9.92481203 1.6,8.90225564 2.46153846,8.12030075 L8.73846154,1.98496241 C9.23076923,1.44360902 9.96923077,1.20300752 10.7076923,1.20300752 C11.4461538,1.20300752 12.1230769,1.5037594 12.6769231,1.98496241 C13.7846154,3.06766917 13.7846154,4.7518797 12.6769231,5.83458647 L6.83076923,11.5488722 C6.33846154,12.0300752 5.53846154,12.0300752 5.10769231,11.5488722 C4.86153846,11.3082707 4.73846154,11.0075188 4.73846154,10.7067669 C4.73846154,10.406015 4.86153846,10.1052632 5.10769231,9.86466165 L10.7692308,4.33082707 C11.0153846,4.09022556 11.0153846,3.72932331 10.7692308,3.4887218 C10.5230769,3.2481203 10.1538462,3.2481203 9.90769231,3.4887218 L4.24615385,9.02255639 C3.69230769,9.44360902 3.44615385,10.0451128 3.44615385,10.7067669 C3.44615385,11.3684211 3.69230769,11.9699248 4.18461538,12.3909774 C5.10769231,13.2932331 6.70769231,13.2932331 7.69230769,12.3909774 L13.5384615,6.67669173 C15.0769231,5.17293233 15.0769231,2.64661654 13.5384615,1.14285714 C12.8,0.421052632 11.7538462,0 10.7076923,0 C9.66153846,0 8.61538462,0.421052632 7.87692308,1.14285714 L1.6,7.27819549 C0.553846154,8.30075188 1.77635684e-15,9.68421053 1.77635684e-15,11.1278195 C1.77635684e-15,12.5714286 0.553846154,13.9548872 1.6,14.9774436 C2.70769231,16.0601504 4.12307692,16.5413534 5.53846154,16.5413534 C6.95384615,16.5413534 8.36923077,16 9.47692308,14.9774436 L15.5692308,9.02255639 C15.8153846,8.78195489 15.8153846,8.42105263 15.5692308,8.18045113 C15.2615385,7.87969925 14.8923077,7.87969925 14.6461538,8.12030075 Z" id="Shape"></path>
                </g>
            </g>
        </g>
    </g>
</svg>