<?xml version="1.0" encoding="UTF-8"?>
<svg width="15px" height="16px" viewBox="0 0 15 16" version="1.1" xmlns="http://www.w3.org/2000/svg" xmlns:xlink="http://www.w3.org/1999/xlink">
    <!-- Generator: Sketch 43.1 (39012) - http://www.bohemiancoding.com/sketch -->
    <title>thin 0287 mobile message sms</title>
    <desc>Created with Sketch.</desc>
    <defs></defs>
    <g id="Page-2" stroke="none" stroke-width="1" fill="none" fill-rule="evenodd">
        <g id="002_02_注册" transform="translate(-643.000000, -400.000000)">
            <g id="thin-0287-mobile-message-sms" transform="translate(642.000000, 400.000000)">
                <g id="Group" transform="translate(1.640000, 0.640000)" stroke="#96979B" stroke-linecap="round" stroke-linejoin="round">
                    <path d="M8.319616,1.300032 C8.319616,0.585344 7.734592,0 7.019328,0 L1.300288,0 C0.585024,0 0,0.585344 0,1.300032 L0,13.44256 C0,14.157632 0.585024,14.7424 1.300288,14.7424 L7.019328,14.7424 C7.734592,14.7424 8.319616,14.157632 8.319616,13.44256 L8.319616,9.603328" id="Shape"></path>
                    <path d="M4.26432577,14.092224 C4.5659351,14.092224 4.81043777,13.8477213 4.81043777,13.546112 C4.81043777,13.2445027 4.5659351,13 4.26432577,13 C3.96271645,13 3.71821377,13.2445027 3.71821377,13.546112 C3.71821377,13.8477213 3.96271645,14.092224 4.26432577,14.092224 Z" id="Oval"></path>
                    <polyline id="Shape" points="8.32 11.6 0 11.6 0 2 5.857472 2"></polyline>
                    <path d="M6.544576,8.872768 C5.264576,8.586496 4,7.159232 4,5.463488 C4,3.560768 5.462912,2 7.203008,2 L10.392,2 C12.13216,2 13.542912,3.617344 13.542912,5.520064 C13.542912,7.422656 12.13216,9.04 10.392,9.04 L9.38752,9.04 L6.544576,11.339264 L6.544576,8.872768 Z" id="Shape"></path>
                    <path d="M6,6.392192 C6.15552,6.516416 6.395328,6.609728 6.568448,6.609728 C6.84544,6.609728 7.069952,6.429568 7.069952,6.207296 C7.069952,5.985024 6.830208,5.875072 6.568448,5.804864 C6.297152,5.726848 6.066944,5.624704 6.066944,5.402432 C6.066944,5.18016 6.291456,5 6.568448,5 C6.754944,5 6.917696,5.081664 7.004096,5.20288" id="Shape"></path>
                    <path d="M11,6.392192 C11.15552,6.516416 11.395328,6.609728 11.568448,6.609728 C11.84544,6.609728 12.069952,6.429568 12.069952,6.207296 C12.069952,5.985024 11.830208,5.875072 11.568448,5.804864 C11.297152,5.726848 11.066944,5.624704 11.066944,5.402432 C11.066944,5.18016 11.291456,5 11.568448,5 C11.754944,5 11.917696,5.081664 12.004096,5.20288" id="Shape"></path>
                    <path d="M8,6.608704 L8,5" id="Shape"></path>
                    <path d="M9.249728,6.608768 L9.249728,5.638784 C9.249728,5.638784 9.271872,5 8.685696,5 C8.09952,5 8,5.626944 8,5.626944" id="Shape"></path>
                    <path d="M10.249728,6.608768 L10.249728,5.638784 C10.249728,5.638784 10.271872,5 9.685696,5 C9.09952,5 9,5.626944 9,5.626944" id="Shape"></path>
                </g>
                <rect id="Rectangle-path" x="0" y="1" width="15.36" height="15.36"></rect>
            </g>
        </g>
    </g>
</svg>