<?xml version="1.0" encoding="UTF-8"?>
<svg width="24px" height="24px" viewBox="0 0 24 24" version="1.1" xmlns="http://www.w3.org/2000/svg" xmlns:xlink="http://www.w3.org/1999/xlink">
    <!-- Generator: Sketch 45.1 (43504) - http://www.bohemiancoding.com/sketch -->
    <title>share</title>
    <desc>Created with Sketch.</desc>
    <defs></defs>
    <g id="Page-2" stroke="none" stroke-width="1" fill="none" fill-rule="evenodd">
        <g id="005_02_购买详情" transform="translate(-1265.000000, -718.000000)" fill-rule="nonzero" fill="#8A949F">
            <g id="share" transform="translate(1265.000000, 718.000000)">
                <path d="M19.2,14.4 C17.7564,14.4 16.464,15.0411 15.5835,16.0503 L9.4929,13.005 C9.5619,12.681 9.6,12.3444 9.6,12 C9.6,11.6556 9.5619,11.319 9.4929,10.995 L15.5838,7.9497 C16.4637,8.9592 17.7564,9.6 19.2,9.6 C21.8508,9.6 24,7.4508 24,4.8 C24,2.1492 21.8508,0 19.2,0 C16.5492,0 14.4,2.1492 14.4,4.8 C14.4,5.1444 14.4381,5.481 14.5071,5.805 L8.4165,8.8503 C7.5363,7.8408 6.2442,7.2 4.8,7.2 C2.1492,7.2 0,9.3492 0,12 C0,14.6508 2.1492,16.8 4.8,16.8 C6.2442,16.8 7.536,16.1589 8.4165,15.1497 L14.5071,18.195 C14.4381,18.519 14.4,18.8556 14.4,19.2 C14.4,21.8508 16.5492,24 19.2,24 C21.8508,24 24,21.8508 24,19.2 C24,16.5492 21.8508,14.4 19.2,14.4 Z M19.2,2.4 C20.5254,2.4 21.6,3.4746 21.6,4.8 C21.6,6.1254 20.5254,7.2 19.2,7.2 C17.8746,7.2 16.8,6.1254 16.8,4.8 C16.8,3.4746 17.8746,2.4 19.2,2.4 Z M4.8,14.4 C3.4746,14.4 2.4,13.3254 2.4,12 C2.4,10.6746 3.4746,9.6 4.8,9.6 C6.1254,9.6 7.2,10.6746 7.2,12 C7.2,13.3254 6.1254,14.4 4.8,14.4 Z M19.2,21.6 C17.8746,21.6 16.8,20.5254 16.8,19.2 C16.8,17.8746 17.8746,16.8 19.2,16.8 C20.5254,16.8 21.6,17.8746 21.6,19.2 C21.6,20.5254 20.5254,21.6 19.2,21.6 Z" id="Shape"></path>
            </g>
        </g>
    </g>
</svg>