<?xml version="1.0" encoding="UTF-8"?>
<svg width="16px" height="17px" viewBox="0 0 16 17" version="1.1" xmlns="http://www.w3.org/2000/svg" xmlns:xlink="http://www.w3.org/1999/xlink">
    <!-- Generator: Sketch 45.2 (43514) - http://www.bohemiancoding.com/sketch -->
    <title>thin 0056 bin trash recycle delete garbage empty</title>
    <desc>Created with Sketch.</desc>
    <defs></defs>
    <g id="Page-2" stroke="none" stroke-width="1" fill="none" fill-rule="evenodd">
        <g id="003_01_首次上传" transform="translate(-407.000000, -234.000000)">
            <g id="Group-2" transform="translate(248.000000, 220.000000)">
                <g id="thin-0056-bin-trash-recycle-delete-garbage-empty" transform="translate(157.000000, 13.000000)">
                    <g id="Group" transform="translate(2.000000, 1.000000)" fill-rule="nonzero" fill="#768DA7">
                        <path d="M12.9186,16.0260667 L3.069,16.0260667 C2.8942,16.0260667 2.749,15.8913333 2.73666667,15.7168 L1.81833333,3.04426667 C1.81153333,2.9518 1.8434,2.861 1.9066,2.79326667 C1.96973333,2.7252 2.05826667,2.6868 2.15073333,2.6868 L13.8366,2.6868 C13.9290667,2.6868 14.0176,2.7252 14.0807333,2.79326667 C14.1438667,2.861 14.1758,2.9518 14.1692667,3.04426667 L13.2512667,15.7168 C13.2382667,15.8912667 13.0930667,16.0260667 12.9186,16.0260667 Z M3.37893333,15.3594 L12.6087333,15.3594 L13.4785333,3.35353333 L2.50913333,3.35353333 L3.37893333,15.3594 Z" id="Shape"></path>
                        <path d="M15.2005333,3.35353333 L0.7868,3.35353333 C0.602533333,3.35353333 0.453466667,3.20446667 0.453466667,3.0202 C0.453466667,2.83593333 0.602533333,2.68686667 0.7868,2.68686667 L15.2005333,2.68686667 C15.3848,2.68686667 15.5338667,2.83593333 15.5338667,3.0202 C15.5338667,3.20446667 15.3847333,3.35353333 15.2005333,3.35353333 Z" id="Shape"></path>
                        <path d="M10.1452,3.35353333 L5.84213333,3.35353333 C5.73533333,3.35353333 5.63513333,3.3024 5.57226667,3.21586667 C5.50973333,3.12953333 5.4922,3.0182 5.5254,2.91666667 L6.18653333,0.891266667 C6.23113333,0.7542 6.35906667,0.661466667 6.50326667,0.661466667 L9.4844,0.661466667 C9.62893333,0.661466667 9.75653333,0.754266667 9.80146667,0.891266667 L10.4622667,2.91666667 C10.4954667,3.0182 10.4778667,3.12953333 10.4147333,3.2158 C10.3522,3.3024 10.2519333,3.35353333 10.1452,3.35353333 Z M6.3014,2.68686667 L9.68553333,2.68686667 L9.2422,1.32813333 L6.74513333,1.32813333 L6.3014,2.68686667 Z" id="Shape"></path>
                        <path d="M8,13.9407333 C7.81573333,13.9407333 7.66666667,13.7916667 7.66666667,13.6074 L7.66666667,5.05566667 C7.66666667,4.8714 7.81573333,4.72233333 8,4.72233333 C8.18426667,4.72233333 8.33333333,4.8714 8.33333333,5.05566667 L8.33333333,13.6074 C8.33333333,13.7916667 8.18426667,13.9407333 8,13.9407333 Z" id="Shape"></path>
                        <path d="M10.4674667,13.9407333 C10.4596667,13.9407333 10.4524667,13.9407333 10.4446667,13.9400667 C10.2610667,13.9276667 10.1217333,13.7688667 10.1341333,13.5852667 L10.7031333,5.03353333 C10.7155333,4.8496 10.8776,4.7168 11.0579333,4.723 C11.2415333,4.7354 11.3808667,4.8942 11.3684667,5.0778 L10.7994667,13.6295333 C10.7877333,13.806 10.6412667,13.9407333 10.4674667,13.9407333 Z" id="Shape"></path>
                        <path d="M5.53286667,13.9407333 C5.35873333,13.9407333 5.2122,13.806 5.20053333,13.6295333 L4.6312,5.0778 C4.61913333,4.8942 4.75813333,4.73533333 4.94173333,4.723 C5.12533333,4.71453333 5.2842,4.84993333 5.29653333,5.03353333 L5.86586667,13.5852667 C5.87793333,13.7688667 5.73893333,13.9277333 5.55533333,13.9400667 C5.54786667,13.9407333 5.54033333,13.9407333 5.53286667,13.9407333 Z" id="Shape"></path>
                    </g>
                    <rect id="Rectangle-path" x="0" y="0" width="20" height="20"></rect>
                </g>
            </g>
        </g>
    </g>
</svg>