<?xml version="1.0" encoding="UTF-8"?>
<svg width="20px" height="14px" viewBox="0 0 20 14" version="1.1" xmlns="http://www.w3.org/2000/svg" xmlns:xlink="http://www.w3.org/1999/xlink">
    <!-- Generator: Sketch 45.2 (43514) - http://www.bohemiancoding.com/sketch -->
    <title>thin 0043 eye visibility show visible</title>
    <desc>Created with Sketch.</desc>
    <defs></defs>
    <g id="Page-2" stroke="none" stroke-width="1" fill="none" fill-rule="evenodd">
        <g id="003_01_首次上传" transform="translate(-372.000000, -236.000000)">
            <g id="Group-2" transform="translate(248.000000, 220.000000)">
                <g id="thin-0043-eye-visibility-show-visible" transform="translate(124.000000, 13.000000)">
                    <g id="Group" transform="translate(0.000000, 2.500000)" fill-rule="nonzero" fill="#768DA7">
                        <path d="M10.03825,11.7081667 C7.784,11.7081667 5.95008333,9.82341667 5.95008333,7.50733333 C5.95008333,5.19125 7.784,3.30691667 10.03825,3.30691667 C12.2925,3.30691667 14.12675,5.19125 14.12675,7.50733333 C14.12675,9.82341667 12.2925,11.7081667 10.03825,11.7081667 Z M10.03825,4.14025 C8.24341667,4.14025 6.78341667,5.65066667 6.78341667,7.50733333 C6.78341667,9.36441667 8.24341667,10.8748333 10.03825,10.8748333 C11.8335,10.8748333 13.2934167,9.36441667 13.2934167,7.50733333 C13.2934167,5.65066667 11.8335,4.14025 10.03825,4.14025 Z" id="Shape"></path>
                        <path d="M10.03825,9.48083333 C8.97583333,9.48083333 8.11158333,8.59625 8.11158333,7.50816667 C8.11158333,6.42008333 8.97583333,5.53508333 10.03825,5.53508333 C11.10025,5.53508333 11.9645,6.42008333 11.9645,7.50816667 C11.9645,8.59625 11.10025,9.48083333 10.03825,9.48083333 Z M10.03825,6.36841667 C9.43525,6.36841667 8.94491667,6.87991667 8.94491667,7.50816667 C8.94491667,8.13641667 9.43525,8.6475 10.03825,8.6475 C10.64125,8.6475 11.1311667,8.13641667 11.1311667,7.50816667 C11.1311667,6.87991667 10.64125,6.36841667 10.03825,6.36841667 Z" id="Shape"></path>
                        <path d="M10.03825,14.18375 C6.10391667,14.18375 2.42916667,11.69675 0.447583333,7.69283333 C0.39025,7.5765 0.39025,7.43975 0.447583333,7.32333333 C2.42883333,3.3195 6.1035,0.8325 10.03825,0.8325 C13.973,0.8325 17.6480833,3.3195 19.6289167,7.32341667 C19.6866667,7.43975 19.6866667,7.5765 19.6289167,7.69291667 C17.6473333,11.69675 13.9721667,14.18375 10.03825,14.18375 Z M1.28783333,7.50816667 C3.14733333,11.1174167 6.48316667,13.3504167 10.03825,13.3504167 C13.5929167,13.3504167 16.92875,11.1173333 18.78825,7.50816667 C16.9295,3.89891667 13.59375,1.66591667 10.03825,1.66591667 C6.48275,1.66591667 3.147,3.89891667 1.28783333,7.50816667 Z" id="Shape"></path>
                    </g>
                    <rect id="Rectangle-path" x="0" y="0" width="20" height="20"></rect>
                </g>
            </g>
        </g>
    </g>
</svg>