<?xml version="1.0" encoding="UTF-8"?>
<svg width="16px" height="16px" viewBox="0 0 16 16" version="1.1" xmlns="http://www.w3.org/2000/svg" xmlns:xlink="http://www.w3.org/1999/xlink">
    <!-- Generator: Sketch 45.2 (43514) - http://www.bohemiancoding.com/sketch -->
    <title>Shape</title>
    <desc>Created with Sketch.</desc>
    <defs></defs>
    <g id="Page-2" stroke="none" stroke-width="1" fill="none" fill-rule="evenodd">
        <g id="005_04_交易记录" transform="translate(-838.000000, -821.000000)" fill-rule="nonzero" fill="#4A90E2">
            <g id="Group-9" transform="translate(232.000000, 768.000000)">
                <path d="M614,53 C609.581818,53 606,56.5816364 606,61 C606,65.4183636 609.581818,69 614,69 C618.418182,69 622,65.4183636 622,61 C622,56.5816364 618.418182,53 614,53 Z M614,67.5454545 C610.385091,67.5454545 607.454545,64.6149091 607.454545,61 C607.454545,57.3850909 610.385091,54.4545455 614,54.4545455 C617.614909,54.4545455 620.545455,57.3850909 620.545455,61 C620.545455,64.6149091 617.614909,67.5454545 614,67.5454545 Z M615.932182,59.0309091 L613.360727,61.6021818 L612.332364,60.5738182 C612.048364,60.2898182 611.588,60.2898182 611.303818,60.5738182 C611.019818,60.8578182 611.019818,61.3183636 611.303818,61.6025455 L612.846364,63.1445455 C613.130364,63.4285455 613.591091,63.4285455 613.874909,63.1445455 L616.960545,60.0590909 C617.244545,59.7750909 617.244909,59.3147273 616.960727,59.0305455 C616.676909,58.7470909 616.216182,58.7470909 615.932182,59.0309091 Z" id="Shape"></path>
            </g>
        </g>
    </g>
</svg>