<?xml version="1.0" encoding="UTF-8"?>
<svg width="16px" height="16px" viewBox="0 0 16 16" version="1.1" xmlns="http://www.w3.org/2000/svg" xmlns:xlink="http://www.w3.org/1999/xlink">
    <!-- Generator: Sketch 45.2 (43514) - http://www.bohemiancoding.com/sketch -->
    <title>circle check copy</title>
    <desc>Created with Sketch.</desc>
    <defs></defs>
    <g id="Page-2" stroke="none" stroke-width="1" fill="none" fill-rule="evenodd">
        <g id="005_04_交易记录" transform="translate(-838.000000, -614.000000)" fill-rule="nonzero" fill="#12CE83">
            <g id="Group-6" transform="translate(232.000000, 561.000000)">
                <g id="Group-2" transform="translate(606.000000, 53.000000)">
                    <g id="circle-check-copy">
                        <path d="M8,0 C3.58181818,0 0,3.58163636 0,8 C0,12.4183636 3.58181818,16 8,16 C12.4181818,16 16,12.4183636 16,8 C16,3.58163636 12.4181818,0 8,0 Z M8,14.5454545 C4.38509091,14.5454545 1.45454545,11.6149091 1.45454545,8 C1.45454545,4.38509091 4.38509091,1.45454545 8,1.45454545 C11.6149091,1.45454545 14.5454545,4.38509091 14.5454545,8 C14.5454545,11.6149091 11.6149091,14.5454545 8,14.5454545 Z M9.93218182,6.03090909 L7.36072727,8.60218182 L6.33236364,7.57381818 C6.04836364,7.28981818 5.588,7.28981818 5.30381818,7.57381818 C5.01981818,7.85781818 5.01981818,8.31836364 5.30381818,8.60254545 L6.84636364,10.1445455 C7.13036364,10.4285455 7.59109091,10.4285455 7.87490909,10.1445455 L10.9605455,7.05909091 C11.2445455,6.77509091 11.2449091,6.31472727 10.9607273,6.03054545 C10.6769091,5.74709091 10.2161818,5.74709091 9.93218182,6.03090909 Z" id="Shape"></path>
                    </g>
                </g>
            </g>
        </g>
    </g>
</svg>