<?xml version="1.0" encoding="UTF-8"?>
<svg width="66px" height="66px" viewBox="0 0 66 66" version="1.1" xmlns="http://www.w3.org/2000/svg" xmlns:xlink="http://www.w3.org/1999/xlink">
    <!-- Generator: Sketch 43.1 (39012) - http://www.bohemiancoding.com/sketch -->
    <title>thin 0104 load upload clipboard box</title>
    <desc>Created with Sketch.</desc>
    <defs></defs>
    <g id="Page-2" stroke="none" stroke-width="1" fill="none" fill-rule="evenodd">
        <g id="003_02_上传文件" transform="translate(-554.000000, -397.000000)">
            <g id="Group-5" transform="translate(297.000000, 287.852146)">
                <g id="thin-0104-load-upload-clipboard-box" transform="translate(257.000000, 109.000000)">
                    <g id="Group" transform="translate(1.000000, 1.000000)" stroke="#D2DBE6" stroke-width="2" stroke-linecap="round" stroke-linejoin="round">
                        <polyline id="Shape" points="26.471675 22.406075 12.313025 22.406075 0.387375 36.269375"></polyline>
                        <polyline id="Shape" points="63.63985 36.269375 51.713925 22.406075 37.529425 22.406075"></polyline>
                        <path d="M44.35135,36.269375 L44.35135,42.571 C44.35135,45.123275 42.28225,47.1921 39.729975,47.1921 L24.4386,47.1921 C21.886325,47.1921 19.8175,45.123 19.8175,42.571 L19.8175,36.269375 L0.387375,36.269375 L0.387375,58.549875 C0.387375,61.360375 2.686925,63.659925 5.497425,63.659925 L58.5298,63.659925 C61.3403,63.659925 63.63985,61.360375 63.63985,58.549875 L63.63985,36.269375 L44.35135,36.269375 L44.35135,36.269375 Z" id="Shape"></path>
                        <path d="M32,0.666225 L32,35.395425" id="Shape"></path>
                        <polyline id="Shape" points="23.339425 9.327075 32.000275 0.666225 40.6614 9.327075"></polyline>
                    </g>
                    <rect id="Rectangle-path" x="0" y="0.000275" width="66" height="66"></rect>
                </g>
            </g>
        </g>
    </g>
</svg>