<?xml version="1.0" encoding="UTF-8"?>
<svg width="92px" height="109px" viewBox="0 0 92 109" version="1.1" xmlns="http://www.w3.org/2000/svg" xmlns:xlink="http://www.w3.org/1999/xlink">
    <!-- Generator: Sketch 45.2 (43514) - http://www.bohemiancoding.com/sketch -->
    <title>认证</title>
    <desc>Created with Sketch.</desc>
    <defs></defs>
    <g id="Page-2" stroke="none" stroke-width="1" fill="none" fill-rule="evenodd">
        <g id="Artboard" transform="translate(-809.000000, -1979.000000)">
            <g id="认证" transform="translate(809.000000, 1979.000000)">
                <rect id="Rectangle-2" fill="#FFF468" x="14" y="25" width="61" height="61"></rect>
                <path d="M91.1419706,15.8315854 L86.6342173,15.765122 C86.5275249,15.765122 76.4184213,15.552439 65.9759041,11.3253659 C55.2666559,6.99195122 48.3583239,2.00719512 48.2916411,1.96731707 L45.5709853,0 L42.863666,1.96731707 C42.7969833,2.0204878 35.8886513,6.99195122 25.1794031,11.3253659 C14.7502223,15.552439 4.62778223,15.765122 4.5344264,15.765122 L0,15.8315854 L0,61.6115854 C0,84.5946341 29.6338102,108.893659 45.5709853,108.893659 C61.521497,108.893659 91.1553071,84.5946341 91.1553071,61.6115854 L91.1419706,15.8315854 L91.1419706,15.8315854 Z M40.503097,74.412439 L21.1517655,57.9826829 L27.099866,51.0040244 L39.5161924,61.5318293 L63.0818731,34.4812195 L70.0302147,40.5028049 L40.503097,74.412439 Z" id="Shape" fill="#1DE394" fill-rule="nonzero"></path>
            </g>
        </g>
    </g>
</svg>